<svg xmlns="http://www.w3.org/2000/svg" xmlns:xlink="http://www.w3.org/1999/xlink" width="100" zoomAndPan="magnify" viewBox="0 0 75 74.999997" height="100" preserveAspectRatio="xMidYMid meet" version="1.0"><defs><clipPath id="c520a0b240"><path d="M 69 27 L 73.921875 27 L 73.921875 38 L 69 38 Z M 69 27 " clip-rule="nonzero"/></clipPath><clipPath id="bd87c7eb82"><path d="M 61 34 L 73.921875 34 L 73.921875 47 L 61 47 Z M 61 34 " clip-rule="nonzero"/></clipPath><clipPath id="c8599eb5fd"><path d="M 1.171875 6 L 41 6 L 41 36 L 1.171875 36 Z M 1.171875 6 " clip-rule="nonzero"/></clipPath><clipPath id="fdb170750f"><path d="M 1.171875 40 L 41 40 L 41 69 L 1.171875 69 Z M 1.171875 40 " clip-rule="nonzero"/></clipPath><clipPath id="088278737a"><path d="M 1.171875 16 L 12 16 L 12 59 L 1.171875 59 Z M 1.171875 16 " clip-rule="nonzero"/></clipPath></defs><g clip-path="url(#c520a0b240)"><path fill="#ffffff" d="M 73.796875 37.234375 C 73.730469 33.800781 72.675781 30.609375 70.90625 27.933594 L 69.800781 32.664062 L 73.796875 37.234375 " fill-opacity="1" fill-rule="nonzero"/></g><path fill="#ffffff" d="M 41.976562 47.648438 C 44.160156 50.746094 47.320312 53.101562 51.011719 54.269531 L 47.75 49.257812 L 41.976562 47.648438 " fill-opacity="1" fill-rule="nonzero"/><path fill="#ffffff" d="M 50.863281 42.386719 L 48.636719 35.535156 L 45.054688 34.703125 L 39.074219 40.726562 C 39.324219 42.105469 39.738281 43.425781 40.289062 44.671875 L 47.984375 46.8125 L 50.863281 42.386719 " fill-opacity="1" fill-rule="nonzero"/><path fill="#ffffff" d="M 49.3125 33.210938 L 55.207031 28.929688 L 55.207031 25.0625 L 47.851562 22.238281 C 46.359375 23.0625 45.003906 24.09375 43.820312 25.300781 L 45.65625 32.363281 L 49.3125 33.210938 " fill-opacity="1" fill-rule="nonzero"/><path fill="#ffffff" d="M 61.714844 20.925781 C 60.007812 20.371094 58.1875 20.070312 56.296875 20.070312 C 54.460938 20.070312 52.695312 20.351562 51.035156 20.875 L 56.414062 22.9375 L 61.714844 20.925781 " fill-opacity="1" fill-rule="nonzero"/><path fill="#ffffff" d="M 57.621094 28.929688 L 63.5 33.199219 L 67.46875 32.03125 L 68.988281 25.523438 C 67.789062 24.257812 66.398438 23.171875 64.871094 22.3125 L 57.621094 25.0625 L 57.621094 28.929688 " fill-opacity="1" fill-rule="nonzero"/><path fill="#ffffff" d="M 41.917969 27.589844 C 39.949219 30.421875 38.789062 33.863281 38.789062 37.574219 C 38.789062 37.578125 38.789062 37.582031 38.789062 37.585938 L 43.328125 33.011719 L 41.917969 27.589844 " fill-opacity="1" fill-rule="nonzero"/><g clip-path="url(#bd87c7eb82)"><path fill="#ffffff" d="M 64.195312 35.511719 L 61.957031 42.40625 L 64.695312 46.828125 L 72.175781 44.945312 C 72.808594 43.585938 73.273438 42.128906 73.539062 40.609375 L 68.082031 34.367188 L 64.195312 35.511719 " fill-opacity="1" fill-rule="nonzero"/></g><path fill="#ffffff" d="M 50.992188 34.972656 L 53.0625 41.34375 L 59.761719 41.34375 L 61.832031 34.972656 L 56.414062 31.035156 L 50.992188 34.972656 " fill-opacity="1" fill-rule="nonzero"/><path fill="#ffffff" d="M 59.953125 43.757812 L 52.855469 43.757812 L 49.953125 48.214844 L 54.351562 54.972656 C 54.992188 55.042969 55.636719 55.082031 56.296875 55.082031 C 57.058594 55.082031 57.8125 55.03125 58.550781 54.9375 L 62.714844 48.214844 L 59.953125 43.757812 " fill-opacity="1" fill-rule="nonzero"/><path fill="#ffffff" d="M 61.863281 54.175781 C 65.34375 53.007812 68.335938 50.777344 70.453125 47.867188 L 64.90625 49.265625 L 61.863281 54.175781 " fill-opacity="1" fill-rule="nonzero"/><path fill="#ffffff" d="M 51.9375 57.398438 L 39.230469 62.910156 C 40.773438 60.125 42.085938 57.371094 43.144531 54.683594 C 43.390625 54.0625 43.082031 53.363281 42.464844 53.117188 C 41.84375 52.875 41.144531 53.179688 40.898438 53.800781 C 39.527344 57.28125 37.710938 60.890625 35.492188 64.527344 L 17.960938 72.128906 C 17.351562 72.394531 17.070312 73.105469 17.335938 73.714844 C 17.53125 74.171875 17.976562 74.441406 18.441406 74.441406 C 18.601562 74.441406 18.765625 74.410156 18.921875 74.34375 L 52.898438 59.617188 C 53.511719 59.351562 53.792969 58.640625 53.527344 58.027344 C 53.261719 57.414062 52.550781 57.136719 51.9375 57.398438 " fill-opacity="1" fill-rule="nonzero"/><path fill="#ffffff" d="M 17.574219 2.855469 L 35.230469 10.507812 C 37.46875 14.132812 39.3125 17.726562 40.714844 21.199219 C 40.902344 21.667969 41.355469 21.953125 41.832031 21.953125 C 41.984375 21.953125 42.136719 21.925781 42.285156 21.867188 C 42.902344 21.617188 43.203125 20.914062 42.953125 20.296875 C 41.875 17.628906 40.550781 14.898438 39 12.140625 L 51.9375 17.75 C 52.09375 17.820312 52.257812 17.851562 52.417969 17.851562 C 52.882812 17.851562 53.328125 17.578125 53.527344 17.125 C 53.792969 16.511719 53.511719 15.800781 52.898438 15.535156 L 18.53125 0.640625 C 17.921875 0.375 17.210938 0.65625 16.945312 1.265625 C 16.679688 1.878906 16.960938 2.589844 17.574219 2.855469 " fill-opacity="1" fill-rule="nonzero"/><g clip-path="url(#c8599eb5fd)"><path fill="#ffffff" d="M 2.265625 15.6875 L 16.703125 19.5 C 19.492188 24.800781 21.234375 29.683594 21.882812 34.023438 C 21.972656 34.621094 22.488281 35.050781 23.078125 35.050781 C 23.136719 35.050781 23.195312 35.046875 23.257812 35.039062 C 23.917969 34.941406 24.371094 34.328125 24.273438 33.667969 C 23.664062 29.605469 22.171875 25.125 19.832031 20.328125 L 38.578125 25.277344 C 38.679688 25.300781 38.785156 25.316406 38.886719 25.316406 C 39.421875 25.316406 39.910156 24.957031 40.050781 24.417969 C 40.222656 23.773438 39.835938 23.109375 39.191406 22.941406 L 31.644531 20.949219 C 29.84375 16.863281 27.402344 12.570312 24.386719 8.179688 C 24.183594 7.882812 23.980469 7.589844 23.777344 7.300781 C 23.394531 6.757812 22.640625 6.625 22.097656 7.007812 C 21.550781 7.390625 21.417969 8.144531 21.800781 8.6875 C 22 8.972656 22.199219 9.257812 22.398438 9.546875 C 24.894531 13.179688 26.976562 16.734375 28.617188 20.148438 L 2.882812 13.355469 C 2.238281 13.183594 1.574219 13.570312 1.40625 14.214844 C 1.234375 14.859375 1.621094 15.519531 2.265625 15.6875 " fill-opacity="1" fill-rule="nonzero"/></g><g clip-path="url(#fdb170750f)"><path fill="#ffffff" d="M 22.398438 65.914062 C 22.3125 66.035156 22.230469 66.15625 22.148438 66.277344 C 21.765625 66.828125 21.902344 67.578125 22.449219 67.957031 C 22.660156 68.105469 22.898438 68.175781 23.136719 68.175781 C 23.519531 68.175781 23.898438 67.992188 24.128906 67.65625 C 24.214844 67.53125 24.300781 67.40625 24.386719 67.28125 C 27.488281 62.765625 29.980469 58.355469 31.800781 54.160156 L 39.191406 52.210938 C 39.835938 52.039062 40.222656 51.378906 40.050781 50.734375 C 39.882812 50.089844 39.222656 49.707031 38.578125 49.875 L 20.003906 54.777344 C 22.300781 50 23.75 45.546875 24.3125 41.511719 C 24.40625 40.851562 23.945312 40.238281 23.285156 40.148438 C 22.625 40.054688 22.015625 40.515625 21.921875 41.175781 C 21.320312 45.480469 19.625 50.332031 16.890625 55.601562 L 2.25 59.464844 C 1.605469 59.636719 1.21875 60.296875 1.390625 60.941406 C 1.53125 61.484375 2.023438 61.839844 2.558594 61.839844 C 2.660156 61.839844 2.761719 61.828125 2.867188 61.800781 L 28.789062 54.957031 C 27.121094 58.480469 24.980469 62.15625 22.398438 65.914062 " fill-opacity="1" fill-rule="nonzero"/></g><path fill="#ffffff" d="M 32.226562 49.785156 C 32.34375 49.824219 32.46875 49.84375 32.585938 49.84375 C 33.101562 49.84375 33.578125 49.511719 33.738281 49 C 34.976562 45.074219 35.601562 41.285156 35.601562 37.730469 C 35.601562 34.035156 34.925781 30.089844 33.585938 25.992188 C 33.378906 25.359375 32.699219 25.015625 32.066406 25.21875 C 31.429688 25.425781 31.085938 26.109375 31.292969 26.742188 C 32.386719 30.089844 33.011719 33.320312 33.15625 36.367188 L 14.015625 36.367188 C 13.351562 36.367188 12.808594 36.910156 12.808594 37.574219 C 12.808594 38.242188 13.351562 38.78125 14.015625 38.78125 L 33.167969 38.78125 C 33.054688 41.785156 32.476562 44.972656 31.4375 48.273438 C 31.234375 48.910156 31.589844 49.585938 32.226562 49.785156 " fill-opacity="1" fill-rule="nonzero"/><path fill="#ffffff" d="M 15.34375 60.832031 C 14.777344 60.480469 14.03125 60.652344 13.679688 61.21875 C 10.324219 66.597656 6.867188 70.917969 5.105469 73.015625 C 4.675781 73.527344 4.738281 74.289062 5.25 74.71875 C 5.476562 74.90625 5.753906 75 6.027344 75 C 6.371094 75 6.710938 74.855469 6.953125 74.570312 C 8.757812 72.421875 12.296875 68 15.726562 62.496094 C 16.082031 61.929688 15.90625 61.1875 15.34375 60.832031 " fill-opacity="1" fill-rule="nonzero"/><path fill="#ffffff" d="M 13.746094 14.347656 C 13.972656 14.71875 14.367188 14.917969 14.773438 14.917969 C 14.988281 14.917969 15.210938 14.859375 15.40625 14.738281 C 15.972656 14.386719 16.148438 13.640625 15.796875 13.074219 C 12.222656 7.328125 8.554688 2.777344 6.683594 0.578125 C 6.253906 0.0703125 5.492188 0.0078125 4.980469 0.4375 C 4.472656 0.871094 4.410156 1.632812 4.84375 2.140625 C 6.667969 4.289062 10.253906 8.734375 13.746094 14.347656 " fill-opacity="1" fill-rule="nonzero"/><g clip-path="url(#088278737a)"><path fill="#ffffff" d="M 8.796875 36.367188 L 2.574219 36.367188 C 1.90625 36.367188 1.367188 36.910156 1.367188 37.574219 C 1.367188 38.242188 1.90625 38.78125 2.574219 38.78125 L 8.816406 38.78125 C 8.523438 43.964844 6.085938 50.082031 1.5625 56.988281 C 1.199219 57.546875 1.355469 58.292969 1.910156 58.660156 C 2.117188 58.792969 2.34375 58.859375 2.570312 58.859375 C 2.964844 58.859375 3.351562 58.664062 3.582031 58.3125 C 8.679688 50.53125 11.261719 43.609375 11.261719 37.730469 C 11.261719 31.855469 8.679688 24.929688 3.582031 17.152344 C 3.21875 16.59375 2.46875 16.4375 1.910156 16.800781 C 1.355469 17.167969 1.199219 17.914062 1.5625 18.472656 C 5.996094 25.242188 8.425781 31.253906 8.796875 36.367188 " fill-opacity="1" fill-rule="nonzero"/></g></svg>