<svg xmlns="http://www.w3.org/2000/svg" xmlns:xlink="http://www.w3.org/1999/xlink" width="512" zoomAndPan="magnify" viewBox="0 0 384 383.999986" height="512" preserveAspectRatio="xMidYMid meet" version="1.0"><defs><g/><clipPath id="7175d51198"><path d="M 34.222656 185 L 62 185 L 62 215 L 34.222656 215 Z M 34.222656 185 " clip-rule="nonzero"/></clipPath><clipPath id="4b0f6f78b2"><path d="M 136 271 L 160 271 L 160 294.359375 L 136 294.359375 Z M 136 271 " clip-rule="nonzero"/></clipPath><clipPath id="0ed7c2b5f8"><path d="M 259 22.859375 L 349.972656 22.859375 L 349.972656 99 L 259 99 Z M 259 22.859375 " clip-rule="nonzero"/></clipPath><clipPath id="da9bc3d897"><path d="M 278 65 L 349.972656 65 L 349.972656 132 L 278 132 Z M 278 65 " clip-rule="nonzero"/></clipPath></defs><path fill="#00bf63" d="M 115.375 273.917969 C 117.117188 276.292969 118.78125 278.671875 120.445312 281.050781 C 120.683594 281.445312 120.683594 281.921875 120.523438 282.316406 C 120.285156 282.714844 119.8125 282.871094 119.414062 282.871094 C 116.480469 282.554688 113.550781 282.160156 110.699219 281.84375 C 108.875 284.21875 107.132812 286.597656 105.386719 288.894531 C 105.070312 289.292969 104.675781 289.453125 104.199219 289.292969 C 103.800781 289.214844 103.484375 288.894531 103.40625 288.421875 C 102.773438 285.570312 102.21875 282.714844 101.582031 279.863281 C 98.808594 278.914062 96.035156 277.960938 93.265625 277.011719 C 92.867188 276.851562 92.550781 276.457031 92.550781 276.058594 C 92.472656 275.582031 92.710938 275.1875 93.105469 274.949219 C 95.640625 273.523438 98.175781 272.019531 100.714844 270.589844 C 100.792969 267.660156 100.871094 264.726562 100.871094 261.796875 C 100.871094 261.320312 101.109375 261.003906 101.585938 260.765625 C 101.980469 260.609375 102.457031 260.6875 102.773438 261.003906 C 104.914062 262.984375 107.054688 264.964844 109.273438 266.945312 C 112.046875 266.074219 114.898438 265.203125 117.671875 264.332031 C 118.070312 264.25 118.542969 264.332031 118.863281 264.648438 C 119.097656 265.042969 119.179688 265.4375 119.019531 265.835938 C 117.828125 268.53125 116.640625 271.222656 115.375 273.917969 Z M 115.375 273.917969 " fill-opacity="1" fill-rule="evenodd"/><g clip-path="url(#7175d51198)"><path fill="#00bf63" d="M 51.421875 192.457031 C 49.363281 190.394531 47.382812 188.253906 45.320312 186.195312 C 45.003906 185.878906 44.53125 185.796875 44.132812 185.957031 C 43.65625 186.035156 43.417969 186.433594 43.417969 186.910156 C 43.183594 189.839844 42.945312 192.691406 42.707031 195.625 C 40.089844 196.972656 37.476562 198.242188 34.859375 199.585938 C 34.464844 199.746094 34.226562 200.140625 34.226562 200.617188 C 34.226562 201.089844 34.542969 201.410156 34.941406 201.566406 C 37.636719 202.675781 40.328125 203.785156 43.101562 204.894531 C 43.5 207.828125 43.894531 210.757812 44.371094 213.613281 C 44.449219 214.089844 44.6875 214.40625 45.164062 214.5625 C 45.558594 214.640625 46.035156 214.5625 46.351562 214.164062 C 48.175781 211.945312 50.074219 209.726562 51.976562 207.507812 C 54.910156 207.984375 57.761719 208.460938 60.695312 208.9375 C 61.089844 209.015625 61.566406 208.855469 61.804688 208.460938 C 62.042969 208.0625 62.042969 207.667969 61.804688 207.269531 C 60.300781 204.734375 58.714844 202.277344 57.210938 199.742188 C 58.554688 197.207031 59.902344 194.59375 61.25 191.976562 C 61.488281 191.582031 61.410156 191.105469 61.171875 190.789062 C 60.855469 190.390625 60.457031 190.234375 59.984375 190.390625 C 57.128906 191.109375 54.277344 191.742188 51.421875 192.457031 Z M 51.421875 192.457031 " fill-opacity="1" fill-rule="evenodd"/></g><g clip-path="url(#4b0f6f78b2)"><path fill="#00bf63" d="M 151.824219 278.671875 L 148.734375 272.332031 C 148.578125 272.015625 148.257812 271.855469 147.863281 271.855469 C 147.546875 271.855469 147.230469 272.09375 147.070312 272.410156 L 144.375 278.910156 L 137.402344 279.941406 C 137.007812 280.019531 136.769531 280.257812 136.609375 280.574219 C 136.53125 280.890625 136.609375 281.285156 136.925781 281.523438 L 142.316406 286.121094 L 141.046875 293.09375 C 141.046875 293.410156 141.125 293.808594 141.445312 293.964844 C 141.761719 294.203125 142.15625 294.203125 142.394531 293.964844 L 148.496094 290.320312 L 154.753906 293.648438 C 155.070312 293.808594 155.390625 293.726562 155.707031 293.492188 C 155.945312 293.332031 156.101562 292.9375 156.023438 292.621094 L 154.359375 285.722656 L 159.429688 280.8125 C 159.746094 280.574219 159.828125 280.175781 159.667969 279.859375 C 159.507812 279.542969 159.269531 279.304688 158.875 279.226562 Z M 151.824219 278.671875 " fill-opacity="1" fill-rule="evenodd"/></g><path fill="#00bf63" d="M 53.40625 155.765625 L 59.109375 159.964844 C 59.347656 160.203125 59.507812 160.519531 59.425781 160.917969 C 59.347656 161.234375 59.109375 161.472656 58.714844 161.550781 L 51.820312 163.054688 L 49.519531 169.792969 C 49.441406 170.109375 49.125 170.347656 48.808594 170.347656 C 48.410156 170.425781 48.09375 170.1875 47.9375 169.949219 L 44.371094 163.769531 L 37.316406 163.6875 C 36.921875 163.6875 36.605469 163.453125 36.445312 163.132812 C 36.367188 162.816406 36.367188 162.5 36.605469 162.183594 L 41.359375 156.953125 L 39.296875 150.21875 C 39.140625 149.820312 39.21875 149.503906 39.535156 149.265625 C 39.773438 149.03125 40.171875 148.949219 40.488281 149.109375 L 46.984375 151.960938 L 52.691406 147.921875 C 53.007812 147.683594 53.402344 147.683594 53.71875 147.839844 C 54.035156 148 54.195312 148.316406 54.117188 148.710938 Z M 53.40625 155.765625 " fill-opacity="1" fill-rule="evenodd"/><path fill="#00bf63" d="M 59.585938 252.917969 C 55.382812 251.253906 51.265625 249.589844 47.144531 247.925781 C 46.507812 247.6875 46.113281 247.132812 46.035156 246.421875 C 46.035156 245.707031 46.351562 245.152344 46.984375 244.835938 C 50.945312 242.773438 54.988281 240.792969 58.949219 238.8125 C 59.265625 234.296875 59.585938 229.859375 59.820312 225.421875 C 59.902344 224.707031 60.296875 224.152344 60.933594 223.917969 C 61.566406 223.679688 62.28125 223.835938 62.753906 224.3125 C 65.925781 227.480469 69.015625 230.652344 72.183594 233.820312 C 76.542969 232.792969 80.824219 231.683594 85.179688 230.574219 C 85.816406 230.414062 86.527344 230.652344 86.925781 231.207031 C 87.320312 231.683594 87.398438 232.398438 87.082031 233.03125 C 85.101562 236.992188 83.039062 240.957031 80.980469 244.917969 C 83.359375 248.71875 85.738281 252.523438 88.113281 256.25 C 88.511719 256.882812 88.429688 257.515625 88.113281 258.152344 C 87.714844 258.707031 87.082031 258.945312 86.371094 258.863281 C 82.011719 258.152344 77.574219 257.4375 73.214844 256.726562 C 70.285156 260.132812 67.429688 263.539062 64.578125 266.949219 C 64.183594 267.503906 63.46875 267.738281 62.835938 267.503906 C 62.203125 267.34375 61.726562 266.867188 61.566406 266.15625 C 60.933594 261.714844 60.21875 257.355469 59.585938 252.917969 Z M 59.585938 252.917969 " fill-opacity="1" fill-rule="evenodd"/><path fill="#ffffff" d="M 251.671875 87.457031 C 215.695312 51.480469 157.453125 51.480469 121.476562 87.457031 C 85.496094 123.433594 85.496094 181.757812 121.476562 217.734375 C 157.453125 253.710938 215.695312 253.710938 251.671875 217.734375 C 287.648438 181.757812 287.648438 123.433594 251.671875 87.457031 Z M 251.671875 87.457031 " fill-opacity="1" fill-rule="evenodd"/><path fill="#0033b6" d="M 254.445312 84.683594 C 216.964844 47.203125 156.183594 47.203125 118.703125 84.683594 C 81.140625 122.167969 81.140625 183.027344 118.703125 220.507812 C 156.183594 257.992188 216.964844 257.992188 254.445312 220.507812 C 292.007812 183.027344 292.007812 122.167969 254.445312 84.683594 Z M 250.960938 144.59375 C 250.644531 144.039062 249.929688 143.878906 249.375 144.277344 C 248.820312 144.59375 248.742188 145.304688 249.058594 145.859375 C 249.058594 145.941406 258.488281 159.648438 262.53125 175.023438 C 262.6875 175.65625 263.320312 176.050781 263.957031 175.894531 C 264.589844 175.65625 264.984375 175.023438 264.828125 174.46875 C 260.625 158.699219 251.039062 144.59375 250.960938 144.59375 Z M 253.652344 110.121094 C 253.097656 110.359375 252.859375 110.992188 253.097656 111.625 C 253.335938 112.183594 254.046875 112.417969 254.601562 112.183594 L 263.003906 108.457031 C 263.082031 108.457031 263.082031 108.378906 263.160156 108.378906 C 282.65625 142.214844 277.980469 186.195312 249.058594 215.117188 C 232.335938 231.839844 210.625 240.398438 188.671875 240.953125 L 188.59375 232.472656 C 188.59375 231.839844 188.039062 231.285156 187.40625 231.285156 C 186.769531 231.285156 186.296875 231.839844 186.296875 232.472656 L 186.375 240.953125 C 163.789062 240.953125 141.285156 232.316406 124.089844 215.117188 C 95.164062 186.195312 90.492188 142.214844 109.984375 108.378906 L 116.71875 114.242188 C 117.195312 114.640625 117.910156 114.640625 118.304688 114.164062 C 118.78125 113.6875 118.699219 112.972656 118.226562 112.5 L 111.410156 106.554688 C 111.332031 106.476562 111.253906 106.398438 111.253906 106.398438 C 114.738281 100.613281 119.019531 95.144531 124.089844 90.074219 C 158.5625 55.601562 214.585938 55.601562 249.058594 90.074219 C 254.128906 95.144531 258.410156 100.613281 261.976562 106.398438 Z M 124.566406 145.304688 C 124.882812 144.75 124.722656 144.035156 124.167969 143.71875 C 123.691406 143.324219 122.898438 143.484375 122.582031 144.035156 C 122.582031 144.117188 108.953125 165.195312 106.8125 175.574219 C 106.734375 176.210938 107.128906 176.765625 107.765625 176.921875 C 108.398438 177.003906 109.03125 176.605469 109.113281 175.972656 C 111.09375 166.066406 124.484375 145.386719 124.566406 145.304688 Z M 159.671875 212.980469 C 160.304688 212.980469 160.859375 212.582031 160.9375 211.949219 C 161.019531 211.316406 160.542969 210.679688 159.910156 210.679688 C 159.828125 210.679688 134.789062 209.253906 124.328125 203.785156 C 123.773438 203.46875 123.0625 203.707031 122.746094 204.261719 C 122.507812 204.816406 122.664062 205.53125 123.21875 205.847656 C 134.074219 211.472656 159.589844 212.980469 159.671875 212.980469 Z M 153.09375 149.109375 C 153.09375 148.476562 152.539062 148 151.902344 148.078125 C 151.269531 148.078125 150.792969 148.714844 150.792969 149.347656 C 150.792969 149.347656 152.21875 164.007812 167.910156 182.789062 C 168.308594 183.265625 169.019531 183.34375 169.496094 182.945312 C 169.972656 182.550781 170.050781 181.757812 169.652344 181.28125 C 154.519531 163.136719 153.09375 149.1875 153.09375 149.109375 Z M 169.496094 74.542969 C 170.050781 74.226562 170.289062 73.511719 169.972656 72.957031 C 169.65625 72.402344 168.941406 72.164062 168.386719 72.480469 C 168.308594 72.558594 146.992188 85.078125 140.96875 98.15625 C 140.730469 98.710938 140.96875 99.421875 141.523438 99.660156 C 142.078125 99.976562 142.792969 99.660156 143.109375 99.105469 C 148.734375 86.746094 169.417969 74.542969 169.496094 74.542969 Z M 202.542969 119.945312 C 203.175781 119.710938 203.492188 119.074219 203.332031 118.441406 C 203.097656 117.886719 202.460938 117.492188 201.828125 117.726562 C 201.828125 117.726562 186.613281 122.71875 164.027344 119.3125 C 163.394531 119.234375 162.839844 119.628906 162.761719 120.261719 C 162.601562 120.898438 163.078125 121.453125 163.710938 121.609375 C 186.769531 125.097656 202.542969 119.945312 202.542969 119.945312 Z M 222.429688 95.777344 C 222.667969 96.332031 223.382812 96.648438 223.9375 96.410156 C 224.570312 96.175781 224.808594 95.460938 224.570312 94.90625 C 224.570312 94.828125 218.863281 81.199219 203.015625 71.847656 C 202.460938 71.53125 201.746094 71.6875 201.429688 72.242188 C 201.113281 72.796875 201.273438 73.511719 201.828125 73.828125 C 217.042969 82.78125 222.429688 95.699219 222.429688 95.777344 Z M 219.261719 150.613281 C 219.65625 150.140625 219.578125 149.425781 219.101562 149.03125 C 218.628906 148.632812 217.835938 148.714844 217.4375 149.1875 C 212.050781 156.003906 208.484375 162.105469 205.949219 167.652344 C 203.414062 173.28125 201.988281 178.429688 200.71875 183.34375 C 200.5625 183.898438 200.957031 184.53125 201.511719 184.691406 C 202.144531 184.847656 202.78125 184.53125 202.9375 183.898438 C 204.207031 179.0625 205.632812 174.070312 208.089844 168.605469 C 210.464844 163.214844 213.953125 157.269531 219.261719 150.613281 Z M 251.355469 204.898438 C 251.832031 204.421875 251.832031 203.707031 251.355469 203.234375 C 250.878906 202.835938 250.164062 202.835938 249.691406 203.3125 C 249.691406 203.3125 237.644531 215.039062 213.714844 213.21875 C 213.078125 213.21875 212.523438 213.695312 212.445312 214.328125 C 212.445312 214.960938 212.921875 215.515625 213.554688 215.515625 C 238.519531 217.417969 251.355469 204.898438 251.355469 204.898438 Z M 251.355469 204.898438 " fill-opacity="1" fill-rule="evenodd"/><path fill="#0033b6" d="M 120.917969 212.1875 C 110.617188 200.855469 103.722656 187.621094 100.238281 173.597656 L 107.605469 175.179688 C 108.238281 175.339844 109.03125 176.050781 109.585938 177.082031 L 124.011719 202.917969 C 124.566406 203.945312 124.722656 204.976562 124.484375 205.53125 Z M 120.917969 212.1875 " fill-opacity="1" fill-rule="evenodd"/><path fill="#0033b6" d="M 250.324219 202.28125 L 263.003906 175.8125 C 263.558594 174.785156 264.195312 174.070312 264.828125 173.988281 L 272.910156 172.960938 C 269.582031 186.90625 262.847656 200.21875 252.703125 211.550781 L 249.851562 205.054688 C 249.613281 204.421875 249.769531 203.390625 250.324219 202.28125 Z M 250.324219 202.28125 " fill-opacity="1" fill-rule="evenodd"/><path fill="#0033b6" d="M 200.480469 74.066406 L 171.082031 74.542969 C 169.890625 74.542969 168.863281 74.226562 168.464844 73.75 L 162.441406 67.09375 C 177.101562 63.050781 192.554688 62.734375 207.292969 66.222656 L 202.9375 73.195312 C 202.621094 73.667969 201.667969 73.984375 200.480469 74.066406 Z M 200.480469 74.066406 " fill-opacity="1" fill-rule="evenodd"/><path fill="#0033b6" d="M 252.859375 109.722656 L 225.601562 94.824219 C 224.488281 94.191406 223.222656 94.351562 222.351562 95.300781 L 202.460938 116.9375 C 201.667969 117.808594 201.511719 119.15625 202.144531 120.265625 L 217.042969 148.632812 C 217.679688 149.742188 218.867188 150.375 220.054688 150.21875 L 249.136719 146.019531 C 250.328125 145.859375 251.277344 144.90625 251.355469 143.640625 L 254.445312 112.734375 C 254.523438 111.546875 253.890625 110.359375 252.859375 109.722656 Z M 252.859375 109.722656 " fill-opacity="1" fill-rule="evenodd"/><path fill="#0033b6" d="M 200.242188 182.628906 L 170.128906 181.28125 C 168.863281 181.203125 167.753906 181.914062 167.433594 183.105469 L 159.433594 210.523438 C 159.117188 211.632812 159.589844 212.820312 160.542969 213.613281 L 185.742188 231.839844 C 186.769531 232.632812 188.039062 232.632812 189.070312 231.996094 L 212.605469 215.832031 C 213.632812 215.199219 213.953125 213.929688 213.554688 212.742188 L 202.9375 184.53125 C 202.460938 183.421875 201.429688 182.628906 200.242188 182.628906 Z M 200.242188 182.628906 " fill-opacity="1" fill-rule="evenodd"/><path fill="#0033b6" d="M 163.632812 118.757812 L 143.742188 98.789062 C 142.949219 97.996094 141.761719 97.839844 140.8125 98.390625 L 117.988281 112.179688 C 117.039062 112.816406 116.5625 113.84375 116.796875 115.035156 L 122.582031 143.480469 C 122.820312 144.671875 123.695312 145.460938 124.722656 145.621094 L 151.109375 149.425781 C 152.300781 149.582031 153.25 149.027344 153.726562 147.917969 L 164.265625 121.769531 C 164.664062 120.742188 164.425781 119.550781 163.632812 118.757812 Z M 163.632812 118.757812 " fill-opacity="1" fill-rule="evenodd"/><path fill="#e6e6e6" d="M 235.269531 100.136719 C 234.078125 91.339844 231.703125 82.703125 228.058594 74.542969 C 235.585938 78.503906 242.71875 83.734375 249.058594 90.074219 C 254.128906 95.144531 258.40625 100.613281 261.972656 106.398438 L 253.652344 110.121094 C 253.574219 110.121094 253.496094 110.121094 253.496094 110.199219 C 253.257812 110.042969 253.097656 109.882812 252.863281 109.722656 Z M 235.269531 100.136719 " fill-opacity="1" fill-rule="evenodd"/><path fill="#e6e6e6" d="M 251.355469 143.640625 L 254.445312 112.734375 C 254.445312 112.578125 254.445312 112.417969 254.445312 112.257812 C 254.523438 112.257812 254.523438 112.257812 254.601562 112.179688 L 263.003906 108.457031 C 263.082031 108.457031 263.082031 108.378906 263.160156 108.378906 C 274.574219 128.109375 277.664062 151.328125 272.589844 173.039062 L 264.824219 173.988281 C 264.746094 173.988281 264.746094 173.988281 264.667969 173.988281 C 260.707031 159.171875 251.988281 146.015625 251.035156 144.671875 C 251.195312 144.355469 251.355469 144.039062 251.355469 143.640625 Z M 251.355469 143.640625 " fill-opacity="1" fill-rule="evenodd"/><path fill="#e6e6e6" d="M 228.769531 148.949219 L 249.136719 146.019531 C 249.136719 146.019531 249.136719 146.019531 249.214844 146.019531 C 250.324219 147.683594 258.804688 160.679688 262.527344 175.023438 C 262.605469 175.339844 262.84375 175.578125 263.082031 175.734375 L 263.003906 175.816406 L 250.324219 202.28125 C 250.164062 202.597656 250.085938 202.835938 250.007812 203.074219 C 249.929688 203.152344 249.769531 203.234375 249.691406 203.3125 C 249.691406 203.3125 237.644531 215.039062 213.714844 213.21875 C 213.714844 213.21875 213.714844 213.21875 213.632812 213.21875 C 213.632812 213.058594 213.554688 212.902344 213.554688 212.742188 L 202.9375 184.53125 C 202.859375 184.453125 202.859375 184.375 202.777344 184.292969 C 204.839844 182.550781 206.738281 180.808594 208.640625 178.90625 C 217.519531 170.03125 224.253906 159.808594 228.769531 148.949219 Z M 228.769531 148.949219 " fill-opacity="1" fill-rule="evenodd"/><path fill="#e6e6e6" d="M 189.070312 231.996094 L 212.605469 215.832031 C 212.761719 215.753906 213 215.59375 213.078125 215.433594 C 213.238281 215.515625 213.394531 215.515625 213.554688 215.515625 C 234.238281 217.097656 246.601562 208.777344 250.246094 205.847656 L 252.621094 211.316406 C 251.433594 212.582031 250.324219 213.851562 249.058594 215.117188 C 232.335938 231.839844 210.625 240.398438 188.671875 240.953125 L 188.59375 232.472656 C 188.59375 232.394531 188.59375 232.316406 188.59375 232.234375 C 188.753906 232.15625 188.910156 232.078125 189.070312 231.996094 Z M 189.070312 231.996094 " fill-opacity="1" fill-rule="evenodd"/><path fill="#e6e6e6" d="M 160.542969 213.613281 L 185.742188 231.839844 C 185.980469 231.996094 186.136719 232.078125 186.296875 232.15625 C 186.296875 232.234375 186.296875 232.394531 186.296875 232.472656 L 186.375 240.953125 C 163.792969 240.953125 141.285156 232.3125 124.089844 215.117188 C 123.0625 214.007812 122.03125 212.976562 121.078125 211.871094 L 124.089844 206.242188 C 135.34375 211.550781 159.589844 212.976562 159.671875 212.976562 C 159.75 212.976562 159.828125 212.976562 159.90625 212.976562 C 160.066406 213.214844 160.304688 213.375 160.542969 213.613281 Z M 160.542969 213.613281 " fill-opacity="1" fill-rule="evenodd"/><path fill="#e6e6e6" d="M 159.433594 210.601562 C 156.261719 210.445312 138.035156 209.097656 127.496094 205.132812 C 138.667969 206.957031 150.082031 206.71875 161.253906 204.421875 L 159.433594 210.523438 Z M 159.433594 210.601562 " fill-opacity="1" fill-rule="evenodd"/><path fill="#00bf63" d="M 299.296875 24.460938 L 248.34375 71.371094 C 242.480469 67.566406 236.457031 64.316406 230.277344 61.703125 Z M 299.296875 24.460938 " fill-opacity="1" fill-rule="evenodd"/><g clip-path="url(#0ed7c2b5f8)"><path fill="#00bf63" d="M 349.0625 22.875 L 259.121094 80.402344 C 260.148438 81.433594 261.179688 82.464844 262.210938 83.492188 C 265.378906 86.824219 271.402344 95.0625 274.019531 98.628906 Z M 349.0625 22.875 " fill-opacity="1" fill-rule="evenodd"/></g><g clip-path="url(#da9bc3d897)"><path fill="#00bf63" d="M 349.773438 65.03125 L 278.851562 107.585938 C 283.289062 115.90625 285.035156 122.246094 286.855469 131.28125 Z M 349.773438 65.03125 " fill-opacity="1" fill-rule="evenodd"/></g><path fill="#00bf63" d="M 288.28125 141.582031 L 347.320312 118.597656 L 287.808594 162.261719 C 288.679688 155.527344 288.835938 148.554688 288.28125 141.582031 Z M 288.28125 141.582031 " fill-opacity="1" fill-rule="evenodd"/><path fill="#00bf63" d="M 99.839844 95.460938 C 85.65625 113.054688 77.097656 135.398438 77.097656 159.808594 C 77.097656 216.308594 122.902344 262.109375 179.402344 262.109375 C 203.730469 262.109375 226.15625 253.550781 243.667969 239.289062 C 203.414062 265.914062 148.65625 261.476562 113.15625 225.976562 C 77.734375 190.554688 73.292969 135.796875 99.839844 95.460938 Z M 99.839844 95.460938 " fill-opacity="1" fill-rule="evenodd"/><g fill="#ffffff" fill-opacity="1"><g transform="translate(97.476563, 342.132599)"><g><path d="M 30.828125 -22.109375 C 33.546875 -22.109375 35.707031 -21.304688 37.3125 -19.703125 C 38.925781 -18.097656 39.734375 -15.6875 39.734375 -12.46875 L 39.734375 0 L 33.40625 0 L 33.40625 -11.5 C 33.40625 -13.226562 33.046875 -14.515625 32.328125 -15.359375 C 31.617188 -16.210938 30.601562 -16.640625 29.28125 -16.640625 C 27.789062 -16.640625 26.613281 -16.160156 25.75 -15.203125 C 24.894531 -14.242188 24.46875 -12.820312 24.46875 -10.9375 L 24.46875 0 L 18.140625 0 L 18.140625 -11.5 C 18.140625 -14.925781 16.765625 -16.640625 14.015625 -16.640625 C 12.554688 -16.640625 11.394531 -16.160156 10.53125 -15.203125 C 9.664062 -14.242188 9.234375 -12.820312 9.234375 -10.9375 L 9.234375 0 L 2.921875 0 L 2.921875 -21.78125 L 8.953125 -21.78125 L 8.953125 -19.28125 C 9.765625 -20.195312 10.753906 -20.894531 11.921875 -21.375 C 13.097656 -21.863281 14.390625 -22.109375 15.796875 -22.109375 C 17.335938 -22.109375 18.726562 -21.804688 19.96875 -21.203125 C 21.207031 -20.597656 22.207031 -19.710938 22.96875 -18.546875 C 23.851562 -19.679688 24.976562 -20.554688 26.34375 -21.171875 C 27.707031 -21.796875 29.203125 -22.109375 30.828125 -22.109375 Z M 30.828125 -22.109375 "/></g></g></g><g fill="#ffffff" fill-opacity="1"><g transform="translate(140.191747, 342.132599)"><g><path d="M 24.265625 -10.8125 C 24.265625 -10.726562 24.222656 -10.160156 24.140625 -9.109375 L 7.65625 -9.109375 C 7.945312 -7.765625 8.644531 -6.695312 9.75 -5.90625 C 10.863281 -5.125 12.242188 -4.734375 13.890625 -4.734375 C 15.023438 -4.734375 16.03125 -4.898438 16.90625 -5.234375 C 17.78125 -5.578125 18.597656 -6.113281 19.359375 -6.84375 L 22.71875 -3.203125 C 20.664062 -0.847656 17.671875 0.328125 13.734375 0.328125 C 11.273438 0.328125 9.097656 -0.148438 7.203125 -1.109375 C 5.316406 -2.066406 3.859375 -3.394531 2.828125 -5.09375 C 1.804688 -6.800781 1.296875 -8.734375 1.296875 -10.890625 C 1.296875 -13.023438 1.800781 -14.945312 2.8125 -16.65625 C 3.820312 -18.375 5.210938 -19.710938 6.984375 -20.671875 C 8.753906 -21.628906 10.734375 -22.109375 12.921875 -22.109375 C 15.054688 -22.109375 16.984375 -21.648438 18.703125 -20.734375 C 20.429688 -19.816406 21.789062 -18.5 22.78125 -16.78125 C 23.769531 -15.070312 24.265625 -13.082031 24.265625 -10.8125 Z M 12.953125 -17.328125 C 11.523438 -17.328125 10.320312 -16.921875 9.34375 -16.109375 C 8.375 -15.304688 7.785156 -14.203125 7.578125 -12.796875 L 18.3125 -12.796875 C 18.09375 -14.171875 17.492188 -15.269531 16.515625 -16.09375 C 15.546875 -16.914062 14.359375 -17.328125 12.953125 -17.328125 Z M 12.953125 -17.328125 "/></g></g></g><g fill="#ffffff" fill-opacity="1"><g transform="translate(165.739867, 342.132599)"><g><path d="M 8.953125 -18.90625 C 9.703125 -19.96875 10.71875 -20.765625 12 -21.296875 C 13.289062 -21.835938 14.769531 -22.109375 16.4375 -22.109375 L 16.4375 -16.28125 C 15.738281 -16.332031 15.269531 -16.359375 15.03125 -16.359375 C 13.21875 -16.359375 11.796875 -15.851562 10.765625 -14.84375 C 9.742188 -13.832031 9.234375 -12.3125 9.234375 -10.28125 L 9.234375 0 L 2.921875 0 L 2.921875 -21.78125 L 8.953125 -21.78125 Z M 8.953125 -18.90625 "/></g></g></g><g fill="#ffffff" fill-opacity="1"><g transform="translate(182.825884, 342.132599)"><g><path d="M 13.453125 0.328125 C 11.128906 0.328125 9.039062 -0.148438 7.1875 -1.109375 C 5.34375 -2.066406 3.898438 -3.394531 2.859375 -5.09375 C 1.816406 -6.800781 1.296875 -8.734375 1.296875 -10.890625 C 1.296875 -13.054688 1.816406 -14.988281 2.859375 -16.6875 C 3.898438 -18.382812 5.34375 -19.710938 7.1875 -20.671875 C 9.039062 -21.628906 11.128906 -22.109375 13.453125 -22.109375 C 15.742188 -22.109375 17.742188 -21.628906 19.453125 -20.671875 C 21.171875 -19.710938 22.421875 -18.34375 23.203125 -16.5625 L 18.3125 -13.9375 C 17.175781 -15.925781 15.539062 -16.921875 13.40625 -16.921875 C 11.757812 -16.921875 10.394531 -16.378906 9.3125 -15.296875 C 8.226562 -14.222656 7.6875 -12.753906 7.6875 -10.890625 C 7.6875 -9.023438 8.226562 -7.550781 9.3125 -6.46875 C 10.394531 -5.394531 11.757812 -4.859375 13.40625 -4.859375 C 15.5625 -4.859375 17.195312 -5.859375 18.3125 -7.859375 L 23.203125 -5.1875 C 22.421875 -3.457031 21.171875 -2.101562 19.453125 -1.125 C 17.742188 -0.15625 15.742188 0.328125 13.453125 0.328125 Z M 13.453125 0.328125 "/></g></g></g><g fill="#ffffff" fill-opacity="1"><g transform="translate(206.75447, 342.132599)"><g><path d="M 11.703125 -22.109375 C 15.078125 -22.109375 17.664062 -21.304688 19.46875 -19.703125 C 21.28125 -18.097656 22.1875 -15.675781 22.1875 -12.4375 L 22.1875 0 L 16.28125 0 L 16.28125 -2.71875 C 15.09375 -0.6875 12.878906 0.328125 9.640625 0.328125 C 7.960938 0.328125 6.507812 0.0429688 5.28125 -0.515625 C 4.050781 -1.085938 3.113281 -1.875 2.46875 -2.875 C 1.820312 -3.875 1.5 -5.007812 1.5 -6.28125 C 1.5 -8.300781 2.257812 -9.890625 3.78125 -11.046875 C 5.3125 -12.210938 7.671875 -12.796875 10.859375 -12.796875 L 15.875 -12.796875 C 15.875 -14.171875 15.453125 -15.226562 14.609375 -15.96875 C 13.773438 -16.71875 12.523438 -17.09375 10.859375 -17.09375 C 9.691406 -17.09375 8.546875 -16.910156 7.421875 -16.546875 C 6.304688 -16.179688 5.359375 -15.6875 4.578125 -15.0625 L 2.3125 -19.484375 C 3.5 -20.316406 4.921875 -20.960938 6.578125 -21.421875 C 8.242188 -21.878906 9.953125 -22.109375 11.703125 -22.109375 Z M 11.21875 -3.921875 C 12.300781 -3.921875 13.257812 -4.171875 14.09375 -4.671875 C 14.925781 -5.171875 15.519531 -5.910156 15.875 -6.890625 L 15.875 -9.109375 L 11.546875 -9.109375 C 8.953125 -9.109375 7.65625 -8.257812 7.65625 -6.5625 C 7.65625 -5.75 7.972656 -5.101562 8.609375 -4.625 C 9.242188 -4.15625 10.113281 -3.921875 11.21875 -3.921875 Z M 11.21875 -3.921875 "/></g></g></g><g fill="#ffffff" fill-opacity="1"><g transform="translate(231.978711, 342.132599)"><g><path d="M 25.109375 -30.046875 L 25.109375 0 L 19.078125 0 L 19.078125 -2.515625 C 17.503906 -0.617188 15.234375 0.328125 12.265625 0.328125 C 10.210938 0.328125 8.359375 -0.128906 6.703125 -1.046875 C 5.046875 -1.972656 3.742188 -3.285156 2.796875 -4.984375 C 1.847656 -6.679688 1.375 -8.648438 1.375 -10.890625 C 1.375 -13.128906 1.847656 -15.097656 2.796875 -16.796875 C 3.742188 -18.503906 5.046875 -19.816406 6.703125 -20.734375 C 8.359375 -21.648438 10.210938 -22.109375 12.265625 -22.109375 C 15.046875 -22.109375 17.222656 -21.234375 18.796875 -19.484375 L 18.796875 -30.046875 Z M 13.359375 -4.859375 C 14.953125 -4.859375 16.273438 -5.40625 17.328125 -6.5 C 18.378906 -7.59375 18.90625 -9.054688 18.90625 -10.890625 C 18.90625 -12.734375 18.378906 -14.195312 17.328125 -15.28125 C 16.273438 -16.375 14.953125 -16.921875 13.359375 -16.921875 C 11.742188 -16.921875 10.410156 -16.375 9.359375 -15.28125 C 8.304688 -14.195312 7.78125 -12.734375 7.78125 -10.890625 C 7.78125 -9.054688 8.304688 -7.59375 9.359375 -6.5 C 10.410156 -5.40625 11.742188 -4.859375 13.359375 -4.859375 Z M 13.359375 -4.859375 "/></g></g></g><g fill="#ffffff" fill-opacity="1"><g transform="translate(259.996615, 342.132599)"><g><path d="M 13.28125 0.328125 C 10.988281 0.328125 8.929688 -0.148438 7.109375 -1.109375 C 5.285156 -2.066406 3.859375 -3.394531 2.828125 -5.09375 C 1.804688 -6.800781 1.296875 -8.734375 1.296875 -10.890625 C 1.296875 -13.054688 1.804688 -14.988281 2.828125 -16.6875 C 3.859375 -18.382812 5.285156 -19.710938 7.109375 -20.671875 C 8.929688 -21.628906 10.988281 -22.109375 13.28125 -22.109375 C 15.570312 -22.109375 17.625 -21.628906 19.4375 -20.671875 C 21.25 -19.710938 22.664062 -18.382812 23.6875 -16.6875 C 24.71875 -14.988281 25.234375 -13.054688 25.234375 -10.890625 C 25.234375 -8.734375 24.71875 -6.800781 23.6875 -5.09375 C 22.664062 -3.394531 21.25 -2.066406 19.4375 -1.109375 C 17.625 -0.148438 15.570312 0.328125 13.28125 0.328125 Z M 13.28125 -4.859375 C 14.90625 -4.859375 16.234375 -5.40625 17.265625 -6.5 C 18.304688 -7.59375 18.828125 -9.054688 18.828125 -10.890625 C 18.828125 -12.734375 18.304688 -14.195312 17.265625 -15.28125 C 16.234375 -16.375 14.90625 -16.921875 13.28125 -16.921875 C 11.664062 -16.921875 10.328125 -16.375 9.265625 -15.28125 C 8.210938 -14.195312 7.6875 -12.734375 7.6875 -10.890625 C 7.6875 -9.054688 8.210938 -7.59375 9.265625 -6.5 C 10.328125 -5.40625 11.664062 -4.859375 13.28125 -4.859375 Z M 13.28125 -4.859375 "/></g></g></g></svg>