<svg xmlns="http://www.w3.org/2000/svg" xmlns:xlink="http://www.w3.org/1999/xlink" width="2000" zoomAndPan="magnify" viewBox="0 0 1500 1499.999933" height="2000" preserveAspectRatio="xMidYMid meet" version="1.0"><defs><g/><clipPath id="e3febac704"><path d="M 304 106.136719 L 1035 106.136719 L 1035 837 L 304 837 Z M 304 106.136719 " clip-rule="nonzero"/></clipPath><clipPath id="3e69181e40"><path d="M 459 230 L 1195.707031 230 L 1195.707031 961.136719 L 459 961.136719 Z M 459 230 " clip-rule="nonzero"/></clipPath><clipPath id="07e80224df"><rect x="0" width="582" y="0" height="120"/></clipPath><clipPath id="88ac833fd1"><rect x="0" width="1062" y="0" height="241"/></clipPath></defs><g clip-path="url(#e3febac704)"><path fill="#100f0d" d="M 811.144531 814.078125 L 402.71875 814.078125 C 360.671875 814.078125 326.449219 779.871094 326.449219 737.820312 L 326.449219 204.765625 C 326.449219 162.714844 360.671875 128.5 402.71875 128.5 L 935.746094 128.5 C 977.796875 128.5 1012.007812 162.714844 1012.007812 204.765625 L 1012.007812 529.5 C 1012.007812 535.65625 1017.007812 540.660156 1023.167969 540.660156 C 1029.335938 540.660156 1034.328125 535.65625 1034.328125 529.5 L 1034.328125 204.765625 C 1034.328125 150.402344 990.105469 106.175781 935.746094 106.175781 L 402.71875 106.175781 C 348.359375 106.175781 304.136719 150.402344 304.136719 204.765625 L 304.136719 737.820312 C 304.136719 792.179688 348.359375 836.40625 402.71875 836.40625 L 811.144531 836.40625 C 817.300781 836.40625 822.296875 831.40625 822.296875 825.246094 C 822.296875 819.085938 817.300781 814.078125 811.144531 814.078125 " fill-opacity="1" fill-rule="nonzero"/></g><g clip-path="url(#3e69181e40)"><path fill="#100f0d" d="M 1050.609375 747.394531 C 1047.59375 748.730469 1045.320312 751.339844 1044.410156 754.519531 C 1043.492188 757.679688 1044.03125 761.097656 1045.871094 763.832031 L 1139.917969 903.628906 L 1094.109375 934.449219 L 1000.0625 794.652344 C 998.222656 791.917969 995.261719 790.128906 991.984375 789.78125 C 991.589844 789.742188 991.191406 789.710938 990.804688 789.710938 C 987.929688 789.710938 985.148438 790.835938 983.0625 792.839844 L 897.277344 875.589844 L 848.207031 519.449219 L 1159.578125 699.117188 Z M 826.769531 454.484375 L 764.777344 454.484375 L 774.59375 399.875 L 840.191406 399.875 Z M 809.902344 523.160156 L 752.425781 523.160156 L 760.761719 476.8125 L 821.285156 476.8125 Z M 742.097656 454.484375 L 683.519531 454.484375 L 683.519531 399.875 L 751.921875 399.875 Z M 729.746094 523.160156 L 683.519531 523.160156 L 683.519531 476.8125 L 738.082031 476.8125 Z M 661.207031 377.542969 L 592.6875 377.542969 L 583.398438 325.921875 L 661.207031 325.921875 Z M 661.207031 454.484375 L 606.519531 454.484375 L 596.695312 399.875 L 661.207031 399.875 Z M 661.207031 523.160156 L 618.867188 523.160156 L 610.535156 476.8125 L 661.207031 476.8125 Z M 542.25 523.160156 L 528.851562 476.8125 L 587.855469 476.8125 L 596.191406 523.160156 Z M 522.398438 454.484375 L 506.625 399.875 L 574.023438 399.875 L 583.839844 454.484375 Z M 485.25 325.921875 L 560.726562 325.921875 L 570.007812 377.542969 L 500.160156 377.542969 Z M 683.519531 325.921875 L 765.21875 325.921875 L 755.929688 377.542969 L 683.519531 377.542969 Z M 787.890625 325.921875 L 858.367188 325.921875 L 845.683594 377.542969 L 778.609375 377.542969 Z M 776.683594 702.207031 C 766.765625 702.207031 758.703125 694.144531 758.703125 684.226562 C 758.703125 674.308594 766.765625 666.246094 776.683594 666.246094 C 786.601562 666.246094 794.671875 674.308594 794.671875 684.226562 C 794.671875 694.144531 786.601562 702.207031 776.683594 702.207031 Z M 551.476562 702.207031 C 541.566406 702.207031 533.488281 694.144531 533.488281 684.226562 C 533.488281 674.308594 541.566406 666.246094 551.476562 666.246094 C 561.394531 666.246094 569.464844 674.308594 569.464844 684.226562 C 569.464844 694.144531 561.394531 702.207031 551.476562 702.207031 Z M 1189.75 690.75 L 841.128906 489.597656 L 894.96875 270.480469 C 897.5625 259.949219 906.945312 252.59375 917.789062 252.59375 L 958.308594 252.59375 C 964.476562 252.59375 969.46875 247.59375 969.46875 241.433594 C 969.46875 235.273438 964.476562 230.273438 958.308594 230.273438 L 917.789062 230.273438 C 896.640625 230.273438 878.347656 244.617188 873.292969 265.152344 L 863.847656 303.59375 L 470.40625 303.59375 C 466.898438 303.59375 463.59375 305.246094 461.484375 308.050781 C 459.378906 310.855469 458.710938 314.480469 459.679688 317.859375 L 523.136719 537.421875 C 524.519531 542.199219 528.890625 545.484375 533.863281 545.484375 L 804.410156 545.484375 L 780.339844 643.449219 L 555.011719 643.449219 C 553.898438 643.449219 552.820312 643.621094 551.804688 643.921875 C 551.695312 643.921875 551.59375 643.914062 551.476562 643.914062 C 529.257812 643.914062 511.175781 661.996094 511.175781 684.226562 C 511.175781 706.449219 529.257812 724.539062 551.476562 724.539062 C 573.707031 724.539062 591.777344 706.449219 591.777344 684.226562 C 591.777344 677.578125 590.15625 671.308594 587.296875 665.78125 L 740.863281 665.78125 C 738.003906 671.308594 736.378906 677.578125 736.378906 684.226562 C 736.378906 706.449219 754.460938 724.539062 776.683594 724.539062 C 798.902344 724.539062 816.984375 706.449219 816.984375 684.226562 C 816.984375 671.199219 810.769531 659.613281 801.164062 652.234375 L 828.59375 540.621094 L 878.164062 900.390625 C 878.738281 904.546875 881.597656 908.035156 885.558594 909.410156 C 889.527344 910.761719 893.9375 909.820312 896.964844 906.902344 L 988.972656 818.144531 L 1081.816406 956.167969 C 1083.972656 959.367188 1087.492188 961.097656 1091.089844 961.097656 C 1093.234375 961.097656 1095.390625 960.484375 1097.308594 959.195312 L 1161.632812 915.925781 C 1164.089844 914.273438 1165.789062 911.714844 1166.355469 908.804688 C 1166.921875 905.90625 1166.316406 902.894531 1164.664062 900.4375 L 1071.820312 762.417969 L 1188.6875 710.625 C 1192.53125 708.917969 1195.09375 705.207031 1195.320312 701.011719 C 1195.535156 696.816406 1193.386719 692.855469 1189.75 690.75 " fill-opacity="1" fill-rule="nonzero"/></g><g transform="matrix(1, 0, 0, 1, 464, 1188)"><g clip-path="url(#07e80224df)"><g fill="#ffffff" fill-opacity="1"><g transform="translate(1.962604, 92.84786)"><g><path d="M 20.984375 -32.875 L 25.3125 -32.875 C 29.351562 -32.875 32.378906 -33.671875 34.390625 -35.265625 C 36.398438 -36.867188 37.40625 -39.195312 37.40625 -42.25 C 37.40625 -45.332031 36.5625 -47.609375 34.875 -49.078125 C 33.195312 -50.554688 30.5625 -51.296875 26.96875 -51.296875 L 20.984375 -51.296875 Z M 50.703125 -42.71875 C 50.703125 -36.039062 48.613281 -30.929688 44.4375 -27.390625 C 40.257812 -23.847656 34.320312 -22.078125 26.625 -22.078125 L 20.984375 -22.078125 L 20.984375 0 L 7.8125 0 L 7.8125 -62.078125 L 27.640625 -62.078125 C 35.171875 -62.078125 40.894531 -60.457031 44.8125 -57.21875 C 48.738281 -53.976562 50.703125 -49.144531 50.703125 -42.71875 Z M 50.703125 -42.71875 "/></g></g></g><g fill="#ffffff" fill-opacity="1"><g transform="translate(67.525305, 92.84786)"><g><path d="M 20.984375 -34.53125 L 25.21875 -34.53125 C 29.382812 -34.53125 32.457031 -35.222656 34.4375 -36.609375 C 36.414062 -37.992188 37.40625 -40.171875 37.40625 -43.140625 C 37.40625 -46.085938 36.394531 -48.179688 34.375 -49.421875 C 32.351562 -50.671875 29.21875 -51.296875 24.96875 -51.296875 L 20.984375 -51.296875 Z M 20.984375 -23.828125 L 20.984375 0 L 7.8125 0 L 7.8125 -62.078125 L 25.90625 -62.078125 C 34.34375 -62.078125 40.582031 -60.539062 44.625 -57.46875 C 48.675781 -54.40625 50.703125 -49.742188 50.703125 -43.484375 C 50.703125 -39.828125 49.695312 -36.578125 47.6875 -33.734375 C 45.675781 -30.890625 42.832031 -28.660156 39.15625 -27.046875 C 48.5 -13.085938 54.582031 -4.070312 57.40625 0 L 42.8125 0 L 27.984375 -23.828125 Z M 20.984375 -23.828125 "/></g></g></g><g fill="#ffffff" fill-opacity="1"><g transform="translate(135.890367, 92.84786)"><g><path d="M 64.171875 -31.125 C 64.171875 -20.851562 61.617188 -12.957031 56.515625 -7.4375 C 51.421875 -1.914062 44.117188 0.84375 34.609375 0.84375 C 25.097656 0.84375 17.789062 -1.914062 12.6875 -7.4375 C 7.59375 -12.957031 5.046875 -20.882812 5.046875 -31.21875 C 5.046875 -41.550781 7.601562 -49.441406 12.71875 -54.890625 C 17.832031 -60.335938 25.15625 -63.0625 34.6875 -63.0625 C 44.226562 -63.0625 51.523438 -60.3125 56.578125 -54.8125 C 61.640625 -49.320312 64.171875 -41.425781 64.171875 -31.125 Z M 18.859375 -31.125 C 18.859375 -24.1875 20.171875 -18.960938 22.796875 -15.453125 C 25.429688 -11.941406 29.367188 -10.1875 34.609375 -10.1875 C 45.109375 -10.1875 50.359375 -17.164062 50.359375 -31.125 C 50.359375 -45.113281 45.132812 -52.109375 34.6875 -52.109375 C 29.457031 -52.109375 25.507812 -50.34375 22.84375 -46.8125 C 20.1875 -43.289062 18.859375 -38.0625 18.859375 -31.125 Z M 18.859375 -31.125 "/></g></g></g><g fill="#ffffff" fill-opacity="1"><g transform="translate(216.05931, 92.84786)"><g/></g></g><g fill="#ffffff" fill-opacity="1"><g transform="translate(249.607169, 92.84786)"><g><path d="M 34.1875 -52.015625 C 29.226562 -52.015625 25.390625 -50.148438 22.671875 -46.421875 C 19.953125 -42.703125 18.59375 -37.519531 18.59375 -30.875 C 18.59375 -17.03125 23.789062 -10.109375 34.1875 -10.109375 C 38.539062 -10.109375 43.820312 -11.195312 50.03125 -13.375 L 50.03125 -2.328125 C 44.925781 -0.210938 39.234375 0.84375 32.953125 0.84375 C 23.921875 0.84375 17.007812 -1.890625 12.21875 -7.359375 C 7.4375 -12.835938 5.046875 -20.703125 5.046875 -30.953125 C 5.046875 -37.410156 6.222656 -43.066406 8.578125 -47.921875 C 10.929688 -52.773438 14.304688 -56.492188 18.703125 -59.078125 C 23.109375 -61.671875 28.269531 -62.96875 34.1875 -62.96875 C 40.21875 -62.96875 46.273438 -61.515625 52.359375 -58.609375 L 48.109375 -47.90625 C 45.785156 -49.007812 43.445312 -49.96875 41.09375 -50.78125 C 38.75 -51.601562 36.445312 -52.015625 34.1875 -52.015625 Z M 34.1875 -52.015625 "/></g></g></g><g fill="#ffffff" fill-opacity="1"><g transform="translate(315.976637, 92.84786)"><g><path d="M 7.8125 0 L 7.8125 -62.078125 L 20.984375 -62.078125 L 20.984375 -10.875 L 46.15625 -10.875 L 46.15625 0 Z M 7.8125 0 "/></g></g></g><g fill="#ffffff" fill-opacity="1"><g transform="translate(376.06199, 92.84786)"><g><path d="M 58.34375 -62.078125 L 58.34375 -21.90625 C 58.34375 -17.320312 57.316406 -13.300781 55.265625 -9.84375 C 53.210938 -6.394531 50.242188 -3.75 46.359375 -1.90625 C 42.484375 -0.0703125 37.898438 0.84375 32.609375 0.84375 C 24.628906 0.84375 18.429688 -1.195312 14.015625 -5.28125 C 9.597656 -9.375 7.390625 -14.972656 7.390625 -22.078125 L 7.390625 -62.078125 L 20.515625 -62.078125 L 20.515625 -24.078125 C 20.515625 -19.296875 21.472656 -15.785156 23.390625 -13.546875 C 25.316406 -11.304688 28.503906 -10.1875 32.953125 -10.1875 C 37.253906 -10.1875 40.375 -11.3125 42.3125 -13.5625 C 44.25 -15.8125 45.21875 -19.34375 45.21875 -24.15625 L 45.21875 -62.078125 Z M 58.34375 -62.078125 "/></g></g></g><g fill="#ffffff" fill-opacity="1"><g transform="translate(452.749196, 92.84786)"><g><path d="M 7.8125 -62.078125 L 27.140625 -62.078125 C 35.941406 -62.078125 42.332031 -60.820312 46.3125 -58.3125 C 50.289062 -55.8125 52.28125 -51.832031 52.28125 -46.375 C 52.28125 -42.664062 51.40625 -39.617188 49.65625 -37.234375 C 47.914062 -34.859375 45.601562 -33.429688 42.71875 -32.953125 L 42.71875 -32.53125 C 46.65625 -31.65625 49.492188 -30.015625 51.234375 -27.609375 C 52.972656 -25.203125 53.84375 -22 53.84375 -18 C 53.84375 -12.34375 51.796875 -7.925781 47.703125 -4.75 C 43.617188 -1.582031 38.066406 0 31.046875 0 L 7.8125 0 Z M 20.984375 -37.5 L 28.625 -37.5 C 32.1875 -37.5 34.765625 -38.050781 36.359375 -39.15625 C 37.960938 -40.257812 38.765625 -42.082031 38.765625 -44.625 C 38.765625 -47.007812 37.894531 -48.71875 36.15625 -49.75 C 34.414062 -50.78125 31.664062 -51.296875 27.90625 -51.296875 L 20.984375 -51.296875 Z M 20.984375 -27.046875 L 20.984375 -10.875 L 29.5625 -10.875 C 33.175781 -10.875 35.847656 -11.566406 37.578125 -12.953125 C 39.304688 -14.335938 40.171875 -16.460938 40.171875 -19.328125 C 40.171875 -24.472656 36.488281 -27.046875 29.125 -27.046875 Z M 20.984375 -27.046875 "/></g></g></g><g fill="#ffffff" fill-opacity="1"><g transform="translate(522.133314, 92.84786)"><g><path d="M 44.46875 -17.234375 C 44.46875 -11.628906 42.445312 -7.210938 38.40625 -3.984375 C 34.375 -0.765625 28.765625 0.84375 21.578125 0.84375 C 14.953125 0.84375 9.085938 -0.398438 3.984375 -2.890625 L 3.984375 -15.125 C 8.179688 -13.25 11.726562 -11.925781 14.625 -11.15625 C 17.53125 -10.394531 20.1875 -10.015625 22.59375 -10.015625 C 25.476562 -10.015625 27.691406 -10.566406 29.234375 -11.671875 C 30.773438 -12.773438 31.546875 -14.421875 31.546875 -16.609375 C 31.546875 -17.828125 31.207031 -18.910156 30.53125 -19.859375 C 29.851562 -20.804688 28.851562 -21.71875 27.53125 -22.59375 C 26.21875 -23.46875 23.535156 -24.867188 19.484375 -26.796875 C 15.691406 -28.578125 12.847656 -30.285156 10.953125 -31.921875 C 9.054688 -33.566406 7.539062 -35.476562 6.40625 -37.65625 C 5.28125 -39.84375 4.71875 -42.394531 4.71875 -45.3125 C 4.71875 -50.800781 6.578125 -55.113281 10.296875 -58.25 C 14.015625 -61.394531 19.160156 -62.96875 25.734375 -62.96875 C 28.960938 -62.96875 32.039062 -62.585938 34.96875 -61.828125 C 37.894531 -61.066406 40.957031 -59.992188 44.15625 -58.609375 L 39.921875 -48.375 C 36.609375 -49.726562 33.867188 -50.671875 31.703125 -51.203125 C 29.535156 -51.742188 27.40625 -52.015625 25.3125 -52.015625 C 22.820312 -52.015625 20.910156 -51.429688 19.578125 -50.265625 C 18.242188 -49.109375 17.578125 -47.597656 17.578125 -45.734375 C 17.578125 -44.578125 17.84375 -43.566406 18.375 -42.703125 C 18.914062 -41.835938 19.773438 -41 20.953125 -40.1875 C 22.128906 -39.382812 24.910156 -37.9375 29.296875 -35.84375 C 35.097656 -33.0625 39.078125 -30.273438 41.234375 -27.484375 C 43.390625 -24.703125 44.46875 -21.285156 44.46875 -17.234375 Z M 44.46875 -17.234375 "/></g></g></g></g></g><g transform="matrix(1, 0, 0, 1, 217, 958)"><g clip-path="url(#88ac833fd1)"><g fill="#0033b6" fill-opacity="1"><g transform="translate(1.197767, 190.325796)"><g><path d="M 141.546875 0 L 141.34375 -82.5625 L 100.859375 -14.546875 L 86.5 -14.546875 L 46.203125 -80.796875 L 46.203125 0 L 16.3125 0 L 16.3125 -137.609375 L 42.65625 -137.609375 L 94.171875 -52.09375 L 144.890625 -137.609375 L 171.03125 -137.609375 L 171.4375 0 Z M 141.546875 0 "/></g></g></g><g fill="#0033b6" fill-opacity="1"><g transform="translate(185.014914, 190.325796)"><g><path d="M 122.875 -25.5625 L 122.875 0 L 16.3125 0 L 16.3125 -137.609375 L 120.3125 -137.609375 L 120.3125 -112.0625 L 47.96875 -112.0625 L 47.96875 -82.171875 L 111.859375 -82.171875 L 111.859375 -57.40625 L 47.96875 -57.40625 L 47.96875 -25.5625 Z M 122.875 -25.5625 "/></g></g></g><g fill="#0033b6" fill-opacity="1"><g transform="translate(312.998842, 190.325796)"><g><path d="M 104 0 L 77.453125 -38.328125 L 48.171875 -38.328125 L 48.171875 0 L 16.3125 0 L 16.3125 -137.609375 L 75.890625 -137.609375 C 88.078125 -137.609375 98.660156 -135.578125 107.640625 -131.515625 C 116.617188 -127.453125 123.53125 -121.6875 128.375 -114.21875 C 133.226562 -106.75 135.65625 -97.90625 135.65625 -87.6875 C 135.65625 -77.457031 133.195312 -68.640625 128.28125 -61.234375 C 123.363281 -53.828125 116.382812 -48.160156 107.34375 -44.234375 L 138.203125 0 Z M 103.40625 -87.6875 C 103.40625 -95.414062 100.914062 -101.34375 95.9375 -105.46875 C 90.957031 -109.601562 83.679688 -111.671875 74.109375 -111.671875 L 48.171875 -111.671875 L 48.171875 -63.703125 L 74.109375 -63.703125 C 83.679688 -63.703125 90.957031 -65.796875 95.9375 -69.984375 C 100.914062 -74.179688 103.40625 -80.082031 103.40625 -87.6875 Z M 103.40625 -87.6875 "/></g></g></g><g fill="#0033b6" fill-opacity="1"><g transform="translate(453.564882, 190.325796)"><g><path d="M 82.171875 2.359375 C 68.148438 2.359375 55.46875 -0.6875 44.125 -6.78125 C 32.789062 -12.875 23.878906 -21.328125 17.390625 -32.140625 C 10.910156 -42.953125 7.671875 -55.175781 7.671875 -68.8125 C 7.671875 -82.4375 10.910156 -94.65625 17.390625 -105.46875 C 23.878906 -116.28125 32.789062 -124.734375 44.125 -130.828125 C 55.46875 -136.921875 68.21875 -139.96875 82.375 -139.96875 C 94.300781 -139.96875 105.078125 -137.867188 114.703125 -133.671875 C 124.335938 -129.484375 132.429688 -123.457031 138.984375 -115.59375 L 118.546875 -96.71875 C 109.242188 -107.46875 97.710938 -112.84375 83.953125 -112.84375 C 75.429688 -112.84375 67.828125 -110.972656 61.140625 -107.234375 C 54.453125 -103.503906 49.238281 -98.296875 45.5 -91.609375 C 41.769531 -84.929688 39.90625 -77.332031 39.90625 -68.8125 C 39.90625 -60.289062 41.769531 -52.6875 45.5 -46 C 49.238281 -39.320312 54.453125 -34.113281 61.140625 -30.375 C 67.828125 -26.632812 75.429688 -24.765625 83.953125 -24.765625 C 97.710938 -24.765625 109.242188 -30.207031 118.546875 -41.09375 L 138.984375 -22.21875 C 132.429688 -14.21875 124.304688 -8.117188 114.609375 -3.921875 C 104.910156 0.261719 94.097656 2.359375 82.171875 2.359375 Z M 82.171875 2.359375 "/></g></g></g><g fill="#0033b6" fill-opacity="1"><g transform="translate(593.737749, 190.325796)"><g><path d="M 106.953125 -29.484375 L 43.046875 -29.484375 L 30.859375 0 L -1.765625 0 L 59.5625 -137.609375 L 91.015625 -137.609375 L 152.5625 0 L 119.140625 0 Z M 96.921875 -53.671875 L 75.09375 -106.359375 L 53.28125 -53.671875 Z M 96.921875 -53.671875 "/></g></g></g><g fill="#0033b6" fill-opacity="1"><g transform="translate(740.398237, 190.325796)"><g><path d="M 16.3125 -137.609375 L 78.828125 -137.609375 C 93.773438 -137.609375 106.984375 -134.757812 118.453125 -129.0625 C 129.921875 -123.363281 138.832031 -115.335938 145.1875 -104.984375 C 151.539062 -94.628906 154.71875 -82.570312 154.71875 -68.8125 C 154.71875 -55.050781 151.539062 -42.992188 145.1875 -32.640625 C 138.832031 -22.285156 129.921875 -14.253906 118.453125 -8.546875 C 106.984375 -2.847656 93.773438 0 78.828125 0 L 16.3125 0 Z M 77.265625 -26.140625 C 91.023438 -26.140625 102 -29.972656 110.1875 -37.640625 C 118.382812 -45.316406 122.484375 -55.707031 122.484375 -68.8125 C 122.484375 -81.914062 118.382812 -92.300781 110.1875 -99.96875 C 102 -107.632812 91.023438 -111.46875 77.265625 -111.46875 L 48.171875 -111.46875 L 48.171875 -26.140625 Z M 77.265625 -26.140625 "/></g></g></g><g fill="#0033b6" fill-opacity="1"><g transform="translate(898.854564, 190.325796)"><g><path d="M 82.96875 2.359375 C 68.675781 2.359375 55.796875 -0.71875 44.328125 -6.875 C 32.859375 -13.039062 23.878906 -21.53125 17.390625 -32.34375 C 10.910156 -43.15625 7.671875 -55.3125 7.671875 -68.8125 C 7.671875 -82.3125 10.910156 -94.46875 17.390625 -105.28125 C 23.878906 -116.09375 32.859375 -124.578125 44.328125 -130.734375 C 55.796875 -136.890625 68.675781 -139.96875 82.96875 -139.96875 C 97.25 -139.96875 110.085938 -136.890625 121.484375 -130.734375 C 132.890625 -124.578125 141.867188 -116.09375 148.421875 -105.28125 C 154.984375 -94.46875 158.265625 -82.3125 158.265625 -68.8125 C 158.265625 -55.3125 154.984375 -43.15625 148.421875 -32.34375 C 141.867188 -21.53125 132.890625 -13.039062 121.484375 -6.875 C 110.085938 -0.71875 97.25 2.359375 82.96875 2.359375 Z M 82.96875 -24.765625 C 91.09375 -24.765625 98.429688 -26.632812 104.984375 -30.375 C 111.535156 -34.113281 116.675781 -39.320312 120.40625 -46 C 124.144531 -52.6875 126.015625 -60.289062 126.015625 -68.8125 C 126.015625 -77.332031 124.144531 -84.929688 120.40625 -91.609375 C 116.675781 -98.296875 111.535156 -103.503906 104.984375 -107.234375 C 98.429688 -110.972656 91.09375 -112.84375 82.96875 -112.84375 C 74.84375 -112.84375 67.5 -110.972656 60.9375 -107.234375 C 54.382812 -103.503906 49.238281 -98.296875 45.5 -91.609375 C 41.769531 -84.929688 39.90625 -77.332031 39.90625 -68.8125 C 39.90625 -60.289062 41.769531 -52.6875 45.5 -46 C 49.238281 -39.320312 54.382812 -34.113281 60.9375 -30.375 C 67.5 -26.632812 74.84375 -24.765625 82.96875 -24.765625 Z M 82.96875 -24.765625 "/></g></g></g></g></g></svg>