<svg xmlns="http://www.w3.org/2000/svg" xmlns:xlink="http://www.w3.org/1999/xlink" width="320" zoomAndPan="magnify" viewBox="0 0 240 599.999999" height="800" preserveAspectRatio="xMidYMid meet" version="1.0"><defs><clipPath id="0b45188f93"><path d="M 111 338.503906 L 119 338.503906 L 119 343 L 111 343 Z M 111 338.503906 " clip-rule="nonzero"/></clipPath><clipPath id="06180de0af"><path d="M 107 359 L 112 359 L 112 373.753906 L 107 373.753906 Z M 107 359 " clip-rule="nonzero"/></clipPath><clipPath id="76b9bb2cde"><path d="M 112 356 L 117 356 L 117 373.753906 L 112 373.753906 Z M 112 356 " clip-rule="nonzero"/></clipPath><clipPath id="5292874dda"><path d="M 111 340 L 136.332031 340 L 136.332031 358 L 111 358 Z M 111 340 " clip-rule="nonzero"/></clipPath><clipPath id="89411172b3"><path d="M 104.082031 357 L 111 357 L 111 362 L 104.082031 362 Z M 104.082031 357 " clip-rule="nonzero"/></clipPath></defs><path fill="#ffffff" d="M 124.636719 348.144531 L 126.710938 344.339844 C 126.183594 344.574219 125.65625 344.839844 125.144531 345.136719 C 123.3125 346.203125 121.808594 347.546875 120.824219 348.898438 L 123.65625 348.757812 C 124.070312 348.738281 124.4375 348.503906 124.636719 348.144531 Z M 124.636719 348.144531 " fill-opacity="1" fill-rule="nonzero"/><path fill="#ffffff" d="M 127.40625 340.601562 C 126.832031 340.285156 126.117188 340.5 125.804688 341.070312 L 125.679688 341.296875 C 126.289062 341.046875 126.894531 340.839844 127.496094 340.675781 C 127.460938 340.652344 127.441406 340.621094 127.40625 340.601562 Z M 127.40625 340.601562 " fill-opacity="1" fill-rule="nonzero"/><g clip-path="url(#0b45188f93)"><path fill="#ffffff" d="M 113.949219 342.070312 C 114.15625 341.824219 114.449219 341.671875 114.769531 341.644531 C 114.804688 341.640625 114.839844 341.640625 114.875 341.640625 C 115.371094 341.640625 115.785156 341.933594 115.972656 342.359375 L 116.476562 342.316406 C 116.59375 341.828125 117 341.445312 117.527344 341.398438 C 117.5625 341.394531 117.597656 341.394531 117.632812 341.394531 C 117.871094 341.394531 118.082031 341.476562 118.269531 341.59375 C 118.054688 340.269531 117.050781 339.152344 115.65625 338.871094 C 113.859375 338.507812 112.105469 339.667969 111.742188 341.46875 C 111.65625 341.898438 111.660156 342.328125 111.738281 342.734375 L 113.714844 342.558594 C 113.757812 342.382812 113.832031 342.214844 113.949219 342.070312 Z M 113.949219 342.070312 " fill-opacity="1" fill-rule="nonzero"/></g><path fill="#ffffff" d="M 117.632812 343.808594 C 117.003906 343.808594 116.488281 343.335938 116.429688 342.707031 C 116.429688 342.695312 116.4375 342.683594 116.433594 342.671875 L 116.066406 342.703125 C 116.070312 342.714844 116.078125 342.726562 116.078125 342.738281 C 116.136719 343.402344 115.644531 343.988281 114.984375 344.046875 C 114.945312 344.050781 114.910156 344.054688 114.875 344.054688 C 114.246094 344.054688 113.730469 343.578125 113.675781 342.953125 C 113.671875 342.941406 113.679688 342.929688 113.679688 342.914062 L 111.832031 343.078125 C 112.175781 344.210938 113.097656 345.128906 114.339844 345.382812 C 115.78125 345.671875 117.179688 344.976562 117.871094 343.765625 C 117.828125 343.773438 117.785156 343.796875 117.738281 343.804688 C 117.703125 343.804688 117.667969 343.808594 117.632812 343.808594 Z M 117.632812 343.808594 " fill-opacity="1" fill-rule="nonzero"/><g clip-path="url(#06180de0af)"><path fill="#ffffff" d="M 110.933594 359.597656 L 107.980469 361.3125 L 107.980469 371.855469 C 107.980469 372.867188 108.796875 373.683594 109.804688 373.683594 C 110.8125 373.683594 111.628906 372.867188 111.628906 371.855469 L 111.628906 359.910156 C 111.625 359.90625 111.621094 359.910156 111.617188 359.90625 C 111.359375 359.871094 111.136719 359.753906 110.933594 359.597656 Z M 110.933594 359.597656 " fill-opacity="1" fill-rule="nonzero"/></g><path fill="#ffffff" d="M 108.652344 356.785156 C 108.457031 356.652344 108.261719 356.523438 108.066406 356.390625 C 108.058594 356.386719 108.050781 356.378906 108.039062 356.375 L 108.03125 356.429688 C 108.011719 356.511719 108.027344 356.589844 108.03125 356.667969 C 108.019531 356.753906 107.980469 356.828125 107.980469 356.914062 L 107.980469 357.175781 Z M 108.652344 356.785156 " fill-opacity="1" fill-rule="nonzero"/><g clip-path="url(#76b9bb2cde)"><path fill="#ffffff" d="M 115.964844 371.855469 L 115.964844 357.472656 L 116.148438 356.570312 L 113.34375 358.199219 C 113.34375 358.339844 113.359375 358.472656 113.335938 358.617188 C 113.253906 359.195312 112.84375 359.652344 112.316406 359.832031 L 112.316406 371.855469 C 112.316406 372.867188 113.132812 373.683594 114.140625 373.683594 C 115.148438 373.683594 115.964844 372.867188 115.964844 371.855469 Z M 115.964844 371.855469 " fill-opacity="1" fill-rule="nonzero"/></g><g clip-path="url(#5292874dda)"><path fill="#ffffff" d="M 116.515625 355.84375 C 116.910156 355.617188 117.136719 355.210938 117.15625 354.789062 L 118.835938 353.816406 C 118.839844 353.820312 118.839844 353.828125 118.84375 353.835938 C 119.582031 355.105469 121.109375 355.796875 123.164062 355.796875 C 123.242188 355.796875 123.324219 355.792969 123.402344 355.792969 C 125.496094 355.738281 127.878906 354.996094 130.113281 353.699219 C 132.347656 352.398438 134.175781 350.699219 135.257812 348.90625 C 136.382812 347.042969 136.582031 345.292969 135.820312 343.976562 L 135.011719 342.589844 C 134.246094 341.273438 132.625 340.578125 130.453125 340.632812 C 128.359375 340.6875 125.976562 341.429688 123.742188 342.726562 C 121.507812 344.027344 119.683594 345.726562 118.597656 347.519531 C 117.472656 349.382812 117.273438 351.132812 118.039062 352.449219 C 118.050781 352.46875 118.066406 352.488281 118.078125 352.507812 L 116.398438 353.484375 C 116.019531 353.292969 115.554688 353.289062 115.164062 353.515625 L 111.871094 355.429688 C 112.597656 356.085938 113.15625 356.828125 113.3125 357.707031 Z M 124.921875 344.753906 C 127.214844 343.421875 129.589844 342.742188 131.511719 342.742188 C 132.835938 342.742188 133.941406 343.066406 134.660156 343.71875 C 134.871094 344.6875 134.585938 345.867188 133.820312 347.136719 C 132.800781 348.824219 131.066406 350.433594 128.9375 351.671875 C 125.058594 353.925781 120.957031 354.300781 119.191406 352.707031 C 118.679688 350.382812 121.039062 347.007812 124.921875 344.753906 Z M 124.921875 344.753906 " fill-opacity="1" fill-rule="nonzero"/></g><g clip-path="url(#89411172b3)"><path fill="#ffffff" d="M 110.320312 358.25 C 110.292969 358.195312 110.203125 358.035156 109.929688 357.773438 C 109.6875 357.542969 109.382812 357.304688 109.050781 357.066406 L 104.902344 359.476562 C 104.285156 359.835938 104.074219 360.625 104.433594 361.242188 L 104.488281 361.335938 C 104.847656 361.953125 105.636719 362.164062 106.253906 361.804688 L 110.597656 359.28125 C 110.382812 358.980469 110.28125 358.617188 110.320312 358.25 Z M 110.320312 358.25 " fill-opacity="1" fill-rule="nonzero"/></g><path fill="#ffffff" d="M 108.253906 356.109375 C 108.949219 356.574219 109.667969 357.054688 110.164062 357.527344 C 110.597656 357.941406 110.671875 358.179688 110.664062 358.234375 C 110.570312 358.882812 111.019531 359.480469 111.664062 359.570312 C 111.722656 359.578125 111.777344 359.582031 111.832031 359.582031 C 112.410156 359.582031 112.917969 359.15625 113 358.570312 C 113.277344 356.625 111.304688 355.304688 109.566406 354.144531 C 109.050781 353.800781 108.304688 353.300781 108.011719 353 C 108.652344 350.929688 109.328125 349.71875 109.894531 349.003906 L 110.21875 349.140625 C 109.894531 349.535156 109.519531 350.152344 109.125 351.007812 L 108.699219 353.128906 C 109.027344 353.375 109.4375 353.648438 109.75 353.859375 C 110.34375 354.253906 110.957031 354.671875 111.511719 355.125 L 114.941406 353.132812 C 115.207031 352.980469 115.503906 352.898438 115.808594 352.898438 C 115.996094 352.898438 116.183594 352.929688 116.363281 352.992188 L 116.941406 352.65625 L 117.203125 351.367188 C 117 350.148438 117.339844 348.746094 118.21875 347.289062 C 118.351562 347.070312 118.527344 346.859375 118.683594 346.644531 L 116.800781 346.738281 L 111.378906 345.640625 C 111.351562 345.636719 111.324219 345.644531 111.296875 345.640625 C 111.289062 345.640625 111.28125 345.632812 111.273438 345.632812 C 111.199219 345.628906 111.082031 345.625 110.9375 345.640625 C 110.929688 345.640625 110.925781 345.640625 110.917969 345.640625 C 110.261719 345.710938 108.976562 346.125 107.664062 348.066406 C 106.972656 349.09375 106.277344 350.542969 105.660156 352.605469 C 105.222656 354.082031 106.695312 355.066406 108.253906 356.109375 Z M 108.253906 356.109375 " fill-opacity="1" fill-rule="nonzero"/><path fill="#ffffff" d="M 117.554688 341.738281 C 117.078125 341.777344 116.726562 342.199219 116.769531 342.675781 C 116.8125 343.15625 117.234375 343.507812 117.710938 343.464844 C 118.1875 343.421875 118.539062 343 118.496094 342.523438 C 118.453125 342.046875 118.035156 341.695312 117.554688 341.738281 Z M 117.554688 341.738281 " fill-opacity="1" fill-rule="nonzero"/><path fill="#ffffff" d="M 114.800781 341.980469 C 114.320312 342.023438 113.96875 342.445312 114.011719 342.921875 C 114.054688 343.398438 114.476562 343.753906 114.953125 343.710938 C 115.429688 343.667969 115.78125 343.246094 115.738281 342.769531 C 115.699219 342.292969 115.277344 341.941406 114.800781 341.980469 Z M 114.800781 341.980469 " fill-opacity="1" fill-rule="nonzero"/><path fill="#ffffff" d="M 128.570312 350.445312 C 125.289062 352.554688 121.6875 352.855469 120.324219 351.183594 C 120.363281 351.261719 120.40625 351.335938 120.453125 351.410156 C 121.679688 353.316406 125.441406 353.082031 128.851562 350.882812 C 132.265625 348.6875 134.035156 345.363281 132.808594 343.457031 C 132.773438 343.402344 132.734375 343.355469 132.695312 343.304688 C 132.679688 343.285156 132.667969 343.265625 132.652344 343.246094 C 132.660156 343.261719 132.660156 343.28125 132.667969 343.300781 C 133.570312 345.238281 131.820312 348.351562 128.570312 350.445312 Z M 128.570312 350.445312 " fill-opacity="1" fill-rule="nonzero"/></svg>