<svg xmlns="http://www.w3.org/2000/svg" xmlns:xlink="http://www.w3.org/1999/xlink" width="2000" zoomAndPan="magnify" viewBox="0 0 1500 1499.999933" height="2000" preserveAspectRatio="xMidYMid meet" version="1.0"><defs><g/><clipPath id="d7b5077bc2"><path d="M 345.085938 673 L 419 673 L 419 751 L 345.085938 751 Z M 345.085938 673 " clip-rule="nonzero"/></clipPath><clipPath id="8c78206fe5"><path d="M 616 902 L 679 902 L 679 961.308594 L 616 961.308594 Z M 616 902 " clip-rule="nonzero"/></clipPath><clipPath id="988cfb85c2"><path d="M 941 241.308594 L 1181 241.308594 L 1181 443 L 941 443 Z M 941 241.308594 " clip-rule="nonzero"/></clipPath><clipPath id="472765361b"><path d="M 994 353 L 1182.085938 353 L 1182.085938 530 L 994 530 Z M 994 353 " clip-rule="nonzero"/></clipPath></defs><path fill="#ffca18" d="M 560.421875 907.519531 C 565.046875 913.824219 569.464844 920.136719 573.878906 926.445312 C 574.511719 927.496094 574.511719 928.757812 574.089844 929.808594 C 573.460938 930.863281 572.199219 931.28125 571.144531 931.28125 C 563.363281 930.441406 555.585938 929.390625 548.015625 928.550781 C 543.175781 934.855469 538.550781 941.167969 533.925781 947.265625 C 533.085938 948.320312 532.035156 948.738281 530.769531 948.320312 C 529.71875 948.109375 528.878906 947.265625 528.667969 946.007812 C 526.984375 938.4375 525.511719 930.867188 523.832031 923.296875 C 516.46875 920.773438 509.109375 918.246094 501.753906 915.726562 C 500.699219 915.304688 499.859375 914.253906 499.859375 913.203125 C 499.652344 911.941406 500.28125 910.890625 501.332031 910.257812 C 508.0625 906.472656 514.789062 902.476562 521.523438 898.691406 C 521.730469 890.910156 521.941406 883.132812 521.941406 875.351562 C 521.941406 874.089844 522.570312 873.25 523.832031 872.617188 C 524.886719 872.199219 526.144531 872.410156 526.988281 873.25 C 532.667969 878.507812 538.34375 883.761719 544.230469 889.019531 C 551.59375 886.707031 559.164062 884.394531 566.523438 882.078125 C 567.578125 881.867188 568.835938 882.078125 569.679688 882.917969 C 570.308594 883.972656 570.519531 885.019531 570.097656 886.074219 C 566.941406 893.21875 563.785156 900.367188 560.421875 907.519531 Z M 560.421875 907.519531 " fill-opacity="1" fill-rule="evenodd"/><g clip-path="url(#d7b5077bc2)"><path fill="#ffca18" d="M 390.726562 691.351562 C 385.257812 685.886719 380 680.207031 374.535156 674.738281 C 373.695312 673.898438 372.433594 673.6875 371.378906 674.109375 C 370.117188 674.320312 369.488281 675.371094 369.488281 676.632812 C 368.855469 684.410156 368.222656 691.980469 367.59375 699.761719 C 360.652344 703.335938 353.714844 706.703125 346.777344 710.273438 C 345.722656 710.695312 345.09375 711.746094 345.09375 713.007812 C 345.09375 714.265625 345.933594 715.109375 346.984375 715.527344 C 354.136719 718.476562 361.28125 721.417969 368.644531 724.363281 C 369.695312 732.144531 370.746094 739.921875 372.007812 747.492188 C 372.21875 748.757812 372.847656 749.59375 374.113281 750.015625 C 375.164062 750.226562 376.421875 750.015625 377.265625 748.960938 C 382.105469 743.074219 387.148438 737.1875 392.199219 731.300781 C 399.976562 732.5625 407.546875 733.820312 415.328125 735.085938 C 416.382812 735.292969 417.640625 734.875 418.273438 733.820312 C 418.90625 732.769531 418.902344 731.71875 418.273438 730.667969 C 414.277344 723.9375 410.074219 717.417969 406.078125 710.691406 C 409.652344 703.964844 413.230469 697.023438 416.804688 690.082031 C 417.433594 689.03125 417.222656 687.769531 416.59375 686.925781 C 415.753906 685.875 414.703125 685.453125 413.4375 685.875 C 405.863281 687.777344 398.292969 689.460938 390.726562 691.351562 Z M 390.726562 691.351562 " fill-opacity="1" fill-rule="evenodd"/></g><g clip-path="url(#8c78206fe5)"><path fill="#ffca18" d="M 657.148438 920.136719 L 648.949219 903.3125 C 648.53125 902.472656 647.6875 902.050781 646.636719 902.050781 C 645.796875 902.050781 644.953125 902.679688 644.535156 903.523438 L 637.382812 920.765625 L 618.878906 923.5 C 617.824219 923.707031 617.195312 924.335938 616.777344 925.179688 C 616.566406 926.019531 616.777344 927.074219 617.617188 927.703125 L 631.914062 939.898438 L 628.546875 958.402344 C 628.546875 959.242188 628.757812 960.296875 629.601562 960.714844 C 630.441406 961.347656 631.492188 961.347656 632.125 960.714844 L 648.3125 951.042969 L 664.925781 959.875 C 665.765625 960.296875 666.609375 960.085938 667.449219 959.457031 C 668.078125 959.039062 668.5 957.984375 668.289062 957.144531 L 663.875 938.847656 L 677.332031 925.8125 C 678.171875 925.179688 678.382812 924.128906 677.960938 923.289062 C 677.539062 922.449219 676.90625 921.816406 675.859375 921.605469 Z M 657.148438 920.136719 " fill-opacity="1" fill-rule="evenodd"/></g><path fill="#ffca18" d="M 395.984375 593.992188 L 411.125 605.136719 C 411.753906 605.765625 412.175781 606.609375 411.960938 607.660156 C 411.753906 608.5 411.125 609.132812 410.070312 609.34375 L 391.773438 613.335938 L 385.675781 631.210938 C 385.464844 632.050781 384.625 632.683594 383.785156 632.683594 C 382.730469 632.894531 381.890625 632.261719 381.472656 631.628906 L 372.007812 615.226562 L 353.292969 615.015625 C 352.238281 615.015625 351.402344 614.386719 350.980469 613.542969 C 350.769531 612.703125 350.769531 611.863281 351.402344 611.023438 L 364.019531 597.144531 L 358.550781 579.269531 C 358.132812 578.21875 358.339844 577.378906 359.179688 576.75 C 359.808594 576.121094 360.863281 575.910156 361.703125 576.328125 L 378.945312 583.898438 L 394.085938 573.175781 C 394.925781 572.542969 395.980469 572.542969 396.820312 572.964844 C 397.660156 573.382812 398.082031 574.226562 397.871094 575.277344 Z M 395.984375 593.992188 " fill-opacity="1" fill-rule="evenodd"/><path fill="#ffca18" d="M 412.382812 851.792969 C 401.238281 847.378906 390.304688 842.960938 379.371094 838.546875 C 377.6875 837.917969 376.636719 836.445312 376.421875 834.550781 C 376.421875 832.660156 377.261719 831.1875 378.945312 830.347656 C 389.457031 824.878906 400.183594 819.621094 410.699219 814.367188 C 411.539062 802.378906 412.382812 790.605469 413.011719 778.832031 C 413.222656 776.9375 414.273438 775.464844 415.957031 774.835938 C 417.640625 774.207031 419.53125 774.625 420.796875 775.886719 C 429.207031 784.296875 437.410156 792.710938 445.820312 801.121094 C 457.382812 798.390625 468.738281 795.445312 480.304688 792.5 C 481.988281 792.082031 483.878906 792.710938 484.929688 794.183594 C 485.984375 795.445312 486.191406 797.339844 485.347656 799.023438 C 480.089844 809.535156 474.625 820.050781 469.160156 830.5625 C 475.46875 840.65625 481.777344 850.75 488.085938 860.632812 C 489.136719 862.316406 488.925781 864 488.085938 865.683594 C 487.03125 867.15625 485.351562 867.785156 483.460938 867.574219 C 471.894531 865.683594 460.121094 863.789062 448.554688 861.898438 C 440.773438 870.941406 433.203125 879.980469 425.632812 889.023438 C 424.582031 890.496094 422.6875 891.125 421.007812 890.496094 C 419.328125 890.074219 418.0625 888.8125 417.644531 886.921875 C 415.957031 875.132812 414.066406 863.570312 412.382812 851.792969 Z M 412.382812 851.792969 " fill-opacity="1" fill-rule="evenodd"/><path fill="#ffffff" d="M 922.101562 412.734375 C 826.632812 317.265625 672.082031 317.265625 576.613281 412.734375 C 481.144531 508.199219 481.144531 662.964844 576.613281 758.433594 C 672.082031 853.898438 826.632812 853.898438 922.101562 758.433594 C 1017.570312 662.964844 1017.566406 508.195312 922.101562 412.734375 Z M 922.101562 412.734375 " fill-opacity="1" fill-rule="evenodd"/><path fill="#0033b6" d="M 929.460938 405.371094 C 830 305.910156 668.714844 305.910156 569.253906 405.371094 C 469.582031 504.835938 469.582031 666.328125 569.253906 765.792969 C 668.71875 865.253906 830.003906 865.253906 929.460938 765.792969 C 1029.132812 666.328125 1029.132812 504.835938 929.460938 405.371094 Z M 920.210938 564.34375 C 919.371094 562.871094 917.476562 562.453125 916.003906 563.503906 C 914.53125 564.34375 914.320312 566.238281 915.164062 567.710938 C 915.164062 567.917969 940.1875 604.296875 950.914062 645.089844 C 951.332031 646.773438 953.015625 647.824219 954.699219 647.402344 C 956.382812 646.773438 957.429688 645.089844 957.011719 643.617188 C 945.863281 601.773438 920.417969 564.34375 920.210938 564.34375 Z M 927.355469 472.871094 C 925.882812 473.5 925.253906 475.183594 925.882812 476.867188 C 926.511719 478.339844 928.40625 478.96875 929.878906 478.339844 L 952.167969 468.457031 C 952.378906 468.457031 952.378906 468.246094 952.589844 468.246094 C 1004.320312 558.035156 991.910156 674.738281 915.160156 751.492188 C 870.792969 795.859375 813.175781 818.570312 754.929688 820.042969 L 754.71875 797.542969 C 754.71875 795.859375 753.246094 794.386719 751.566406 794.386719 C 749.882812 794.386719 748.617188 795.859375 748.617188 797.542969 L 748.828125 820.042969 C 688.898438 820.042969 629.179688 797.121094 583.550781 751.492188 C 506.796875 674.738281 494.390625 558.035156 546.121094 468.246094 L 563.992188 483.808594 C 565.257812 484.859375 567.148438 484.859375 568.199219 483.597656 C 569.460938 482.335938 569.253906 480.441406 567.988281 479.183594 L 549.90625 463.414062 C 549.695312 463.203125 549.488281 462.992188 549.488281 462.992188 C 558.738281 447.640625 570.09375 433.132812 583.554688 419.671875 C 675.027344 328.199219 823.691406 328.199219 915.164062 419.671875 C 928.621094 433.132812 939.976562 447.640625 949.441406 462.992188 Z M 584.8125 566.234375 C 585.652344 564.761719 585.230469 562.867188 583.757812 562.027344 C 582.496094 560.976562 580.394531 561.398438 579.554688 562.867188 C 579.554688 563.078125 543.386719 619.011719 537.707031 646.5625 C 537.5 648.242188 538.546875 649.714844 540.230469 650.136719 C 541.914062 650.347656 543.597656 649.296875 543.804688 647.613281 C 549.066406 621.328125 584.601562 566.445312 584.8125 566.234375 Z M 677.96875 745.8125 C 679.652344 745.8125 681.125 744.761719 681.332031 743.082031 C 681.542969 741.402344 680.28125 739.714844 678.601562 739.714844 C 678.390625 739.714844 611.941406 735.929688 584.1875 721.421875 C 582.714844 720.582031 580.820312 721.210938 579.980469 722.683594 C 579.351562 724.15625 579.769531 726.046875 581.242188 726.886719 C 610.046875 741.820312 677.757812 745.8125 677.96875 745.8125 Z M 660.515625 576.328125 C 660.515625 574.648438 659.042969 573.382812 657.359375 573.597656 C 655.675781 573.597656 654.414062 575.28125 654.414062 576.960938 C 654.414062 576.960938 658.199219 615.863281 699.835938 665.699219 C 700.886719 666.960938 702.78125 667.171875 704.039062 666.121094 C 705.304688 665.066406 705.511719 662.964844 704.460938 661.703125 C 664.300781 613.546875 660.515625 576.539062 660.515625 576.328125 Z M 704.039062 378.457031 C 705.511719 377.617188 706.144531 375.722656 705.304688 374.25 C 704.464844 372.777344 702.570312 372.148438 701.097656 372.988281 C 700.886719 373.199219 644.320312 406.421875 628.339844 441.117188 C 627.710938 442.589844 628.339844 444.484375 629.8125 445.113281 C 631.285156 445.953125 633.179688 445.113281 634.019531 443.640625 C 648.949219 410.839844 703.832031 378.457031 704.039062 378.457031 Z M 791.726562 498.945312 C 793.410156 498.3125 794.25 496.632812 793.832031 494.949219 C 793.199219 493.476562 791.519531 492.425781 789.835938 493.054688 C 789.835938 493.054688 749.460938 506.304688 689.535156 497.261719 C 687.851562 497.050781 686.378906 498.101562 686.167969 499.785156 C 685.75 501.464844 687.007812 502.9375 688.691406 503.359375 C 749.882812 512.617188 791.726562 498.945312 791.726562 498.945312 Z M 844.507812 434.808594 C 845.136719 436.28125 847.027344 437.121094 848.5 436.492188 C 850.183594 435.863281 850.8125 433.96875 850.183594 432.496094 C 850.183594 432.289062 835.042969 396.121094 792.988281 371.304688 C 791.515625 370.464844 789.621094 370.886719 788.78125 372.359375 C 787.941406 373.832031 788.363281 375.722656 789.835938 376.5625 C 830.210938 400.324219 844.507812 434.601562 844.507812 434.808594 Z M 836.097656 580.324219 C 837.148438 579.0625 836.9375 577.167969 835.675781 576.121094 C 834.414062 575.066406 832.3125 575.28125 831.261719 576.539062 C 816.964844 594.621094 807.503906 610.816406 800.769531 625.535156 C 794.039062 640.464844 790.257812 654.132812 786.894531 667.171875 C 786.472656 668.644531 787.523438 670.328125 788.996094 670.746094 C 790.679688 671.167969 792.363281 670.328125 792.78125 668.644531 C 796.148438 655.816406 799.933594 642.570312 806.449219 628.0625 C 812.757812 613.757812 822.007812 597.988281 836.097656 580.324219 Z M 921.257812 724.367188 C 922.523438 723.101562 922.523438 721.210938 921.257812 719.949219 C 919.996094 718.898438 918.101562 718.898438 916.84375 720.160156 C 916.84375 720.160156 884.878906 751.28125 821.375 746.445312 C 819.695312 746.445312 818.222656 747.710938 818.011719 749.390625 C 818.011719 751.074219 819.273438 752.546875 820.957031 752.546875 C 887.195312 757.589844 921.257812 724.367188 921.257812 724.367188 Z M 921.257812 724.367188 " fill-opacity="1" fill-rule="evenodd"/><path fill="#0033b6" d="M 575.140625 743.710938 C 547.804688 713.640625 529.507812 678.523438 520.253906 641.304688 L 539.8125 645.511719 C 541.492188 645.929688 543.597656 647.824219 545.070312 650.558594 L 583.339844 719.113281 C 584.8125 721.84375 585.230469 724.578125 584.601562 726.050781 Z M 575.140625 743.710938 " fill-opacity="1" fill-rule="evenodd"/><path fill="#0033b6" d="M 918.527344 717.425781 L 952.171875 647.191406 C 953.644531 644.457031 955.328125 642.566406 957.011719 642.351562 L 978.460938 639.621094 C 969.625 676.628906 951.753906 711.957031 924.835938 742.023438 L 917.265625 724.78125 C 916.632812 723.101562 917.054688 720.371094 918.527344 717.425781 Z M 918.527344 717.425781 " fill-opacity="1" fill-rule="evenodd"/><path fill="#0033b6" d="M 786.261719 377.195312 L 708.246094 378.457031 C 705.089844 378.457031 702.359375 377.617188 701.304688 376.355469 L 685.324219 358.691406 C 724.226562 347.964844 765.230469 347.125 804.34375 356.378906 L 792.777344 374.882812 C 791.9375 376.144531 789.414062 376.984375 786.261719 377.195312 Z M 786.261719 377.195312 " fill-opacity="1" fill-rule="evenodd"/><path fill="#0033b6" d="M 925.253906 471.820312 L 852.917969 432.285156 C 849.972656 430.601562 846.609375 431.023438 844.296875 433.546875 L 791.519531 490.953125 C 789.414062 493.265625 788.996094 496.839844 790.679688 499.789062 L 830.210938 575.066406 C 831.894531 578.011719 835.050781 579.691406 838.203125 579.273438 L 915.375 568.125 C 918.53125 567.707031 921.050781 565.179688 921.261719 561.820312 L 929.460938 479.808594 C 929.671875 476.65625 927.988281 473.5 925.253906 471.820312 Z M 925.253906 471.820312 " fill-opacity="1" fill-rule="evenodd"/><path fill="#0033b6" d="M 785.628906 665.277344 L 705.722656 661.703125 C 702.359375 661.492188 699.414062 663.382812 698.574219 666.539062 L 677.335938 739.296875 C 676.496094 742.242188 677.753906 745.394531 680.28125 747.496094 L 747.148438 795.859375 C 749.882812 797.960938 753.246094 797.960938 755.984375 796.28125 L 818.433594 753.382812 C 821.167969 751.703125 822.007812 748.335938 820.957031 745.183594 L 792.777344 670.324219 C 791.519531 667.378906 788.78125 665.277344 785.628906 665.277344 Z M 785.628906 665.277344 " fill-opacity="1" fill-rule="evenodd"/><path fill="#0033b6" d="M 688.480469 495.792969 L 635.703125 442.800781 C 633.597656 440.699219 630.445312 440.277344 627.921875 441.746094 L 567.359375 478.335938 C 564.835938 480.019531 563.574219 482.75 564.203125 485.90625 L 579.554688 561.394531 C 580.183594 564.550781 582.5 566.652344 585.230469 567.074219 L 655.253906 577.164062 C 658.410156 577.585938 660.929688 576.113281 662.195312 573.171875 L 690.164062 503.777344 C 691.214844 501.050781 690.582031 497.894531 688.480469 495.792969 Z M 688.480469 495.792969 " fill-opacity="1" fill-rule="evenodd"/><path fill="#e6e6e6" d="M 878.574219 446.375 C 875.417969 423.035156 869.109375 400.113281 859.4375 378.457031 C 879.414062 388.96875 898.339844 402.851562 915.160156 419.667969 C 928.621094 433.128906 939.976562 447.636719 949.4375 462.988281 L 927.359375 472.871094 C 927.148438 472.871094 926.941406 472.871094 926.941406 473.082031 C 926.308594 472.660156 925.886719 472.242188 925.257812 471.820312 Z M 878.574219 446.375 " fill-opacity="1" fill-rule="evenodd"/><path fill="#e6e6e6" d="M 921.257812 561.820312 L 929.457031 479.808594 C 929.457031 479.390625 929.457031 478.96875 929.457031 478.546875 C 929.667969 478.546875 929.667969 478.546875 929.878906 478.335938 L 952.167969 468.453125 C 952.378906 468.453125 952.378906 468.242188 952.589844 468.242188 C 982.871094 520.601562 991.070312 582.214844 977.613281 639.832031 L 957.003906 642.351562 C 956.792969 642.351562 956.792969 642.351562 956.585938 642.351562 C 946.070312 603.03125 922.9375 568.121094 920.414062 564.550781 C 920.839844 563.710938 921.257812 562.871094 921.257812 561.820312 Z M 921.257812 561.820312 " fill-opacity="1" fill-rule="evenodd"/><path fill="#e6e6e6" d="M 861.328125 575.910156 L 915.371094 568.128906 C 915.371094 568.128906 915.371094 568.128906 915.582031 568.128906 C 918.527344 572.542969 941.023438 607.03125 950.90625 645.089844 C 951.117188 645.929688 951.746094 646.5625 952.378906 646.984375 L 952.167969 647.195312 L 918.523438 717.429688 C 918.105469 718.269531 917.894531 718.902344 917.683594 719.53125 C 917.472656 719.742188 917.054688 719.949219 916.84375 720.160156 C 916.84375 720.160156 884.878906 751.28125 821.375 746.445312 C 821.375 746.445312 821.375 746.445312 821.167969 746.445312 C 821.167969 746.027344 820.957031 745.605469 820.957031 745.183594 L 792.777344 670.324219 C 792.566406 670.113281 792.566406 669.90625 792.359375 669.695312 C 797.824219 665.070312 802.871094 660.441406 807.917969 655.398438 C 831.472656 631.84375 849.34375 604.71875 861.328125 575.910156 Z M 861.328125 575.910156 " fill-opacity="1" fill-rule="evenodd"/><path fill="#e6e6e6" d="M 755.980469 796.28125 L 818.429688 753.382812 C 818.851562 753.175781 819.484375 752.753906 819.695312 752.332031 C 820.113281 752.539062 820.53125 752.539062 820.957031 752.539062 C 875.839844 756.746094 908.644531 734.667969 918.316406 726.886719 L 924.625 741.398438 C 921.46875 744.765625 918.527344 748.125 915.160156 751.492188 C 870.792969 795.859375 813.175781 818.570312 754.929688 820.042969 L 754.71875 797.542969 C 754.71875 797.332031 754.71875 797.121094 754.71875 796.914062 C 755.140625 796.699219 755.558594 796.488281 755.980469 796.28125 Z M 755.980469 796.28125 " fill-opacity="1" fill-rule="evenodd"/><path fill="#e6e6e6" d="M 680.28125 747.496094 L 747.148438 795.859375 C 747.78125 796.28125 748.203125 796.488281 748.621094 796.699219 C 748.621094 796.910156 748.621094 797.328125 748.621094 797.539062 L 748.832031 820.039062 C 688.902344 820.039062 629.183594 797.121094 583.554688 751.488281 C 580.820312 748.542969 578.085938 745.808594 575.5625 742.867188 L 583.554688 727.9375 C 613.414062 742.023438 677.757812 745.808594 677.96875 745.808594 C 678.179688 745.808594 678.386719 745.808594 678.597656 745.808594 C 679.015625 746.445312 679.652344 746.863281 680.28125 747.496094 Z M 680.28125 747.496094 " fill-opacity="1" fill-rule="evenodd"/><path fill="#e6e6e6" d="M 677.335938 739.507812 C 668.925781 739.085938 620.558594 735.511719 592.59375 724.996094 C 622.242188 729.832031 652.523438 729.199219 682.171875 723.101562 L 677.335938 739.292969 Z M 677.335938 739.507812 " fill-opacity="1" fill-rule="evenodd"/><path fill="#ffca18" d="M 1048.480469 245.5625 L 913.269531 370.042969 C 897.707031 359.949219 881.726562 351.328125 865.324219 344.390625 Z M 1048.480469 245.5625 " fill-opacity="1" fill-rule="evenodd"/><g clip-path="url(#988cfb85c2)"><path fill="#ffca18" d="M 1180.535156 241.351562 L 941.867188 394.011719 C 944.597656 396.746094 947.335938 399.480469 950.066406 402.214844 C 958.476562 411.046875 974.460938 432.914062 981.398438 442.378906 Z M 1180.535156 241.351562 " fill-opacity="1" fill-rule="evenodd"/></g><g clip-path="url(#472765361b)"><path fill="#ffca18" d="M 1182.425781 353.222656 L 994.226562 466.144531 C 1006 488.222656 1010.628906 505.046875 1015.464844 529.019531 Z M 1182.425781 353.222656 " fill-opacity="1" fill-rule="evenodd"/></g><path fill="#ffca18" d="M 1019.25 556.351562 L 1175.910156 495.367188 L 1017.988281 611.230469 C 1020.300781 593.363281 1020.722656 574.855469 1019.25 556.351562 Z M 1019.25 556.351562 " fill-opacity="1" fill-rule="evenodd"/><path fill="#ffca18" d="M 519.207031 433.96875 C 481.5625 480.652344 458.855469 539.949219 458.855469 604.71875 C 458.855469 754.648438 580.398438 876.1875 730.328125 876.1875 C 794.882812 876.1875 854.394531 853.476562 900.863281 815.625 C 794.039062 886.28125 648.738281 874.503906 554.535156 780.300781 C 460.539062 686.304688 448.761719 541 519.207031 433.96875 Z M 519.207031 433.96875 " fill-opacity="1" fill-rule="evenodd"/><g fill="#ffffff" fill-opacity="1"><g transform="translate(557.424452, 1246.616825)"><g><path d="M 14.21875 -22.28125 L 17.15625 -22.28125 C 19.90625 -22.28125 21.957031 -22.820312 23.3125 -23.90625 C 24.675781 -25 25.359375 -26.582031 25.359375 -28.65625 C 25.359375 -30.738281 24.785156 -32.28125 23.640625 -33.28125 C 22.503906 -34.28125 20.71875 -34.78125 18.28125 -34.78125 L 14.21875 -34.78125 Z M 34.375 -28.96875 C 34.375 -24.4375 32.957031 -20.96875 30.125 -18.5625 C 27.300781 -16.164062 23.273438 -14.96875 18.046875 -14.96875 L 14.21875 -14.96875 L 14.21875 0 L 5.296875 0 L 5.296875 -42.09375 L 18.75 -42.09375 C 23.851562 -42.09375 27.734375 -40.992188 30.390625 -38.796875 C 33.046875 -36.597656 34.375 -33.320312 34.375 -28.96875 Z M 34.375 -28.96875 "/></g></g></g><g fill="#ffffff" fill-opacity="1"><g transform="translate(601.875543, 1246.616825)"><g><path d="M 14.21875 -23.40625 L 17.109375 -23.40625 C 19.921875 -23.40625 22 -23.875 23.34375 -24.8125 C 24.6875 -25.757812 25.359375 -27.238281 25.359375 -29.25 C 25.359375 -31.25 24.671875 -32.671875 23.296875 -33.515625 C 21.929688 -34.359375 19.8125 -34.78125 16.9375 -34.78125 L 14.21875 -34.78125 Z M 14.21875 -16.15625 L 14.21875 0 L 5.296875 0 L 5.296875 -42.09375 L 17.5625 -42.09375 C 23.28125 -42.09375 27.507812 -41.050781 30.25 -38.96875 C 33 -36.882812 34.375 -33.722656 34.375 -29.484375 C 34.375 -27.003906 33.691406 -24.800781 32.328125 -22.875 C 30.972656 -20.945312 29.046875 -19.4375 26.546875 -18.34375 C 32.878906 -8.875 37.003906 -2.757812 38.921875 0 L 29.03125 0 L 18.96875 -16.15625 Z M 14.21875 -16.15625 "/></g></g></g><g fill="#ffffff" fill-opacity="1"><g transform="translate(648.226617, 1246.616825)"><g><path d="M 43.5 -21.109375 C 43.5 -14.140625 41.769531 -8.78125 38.3125 -5.03125 C 34.863281 -1.289062 29.914062 0.578125 23.46875 0.578125 C 17.019531 0.578125 12.066406 -1.289062 8.609375 -5.03125 C 5.148438 -8.78125 3.421875 -14.15625 3.421875 -21.15625 C 3.421875 -28.164062 5.15625 -33.519531 8.625 -37.21875 C 12.09375 -40.914062 17.0625 -42.765625 23.53125 -42.765625 C 30 -42.765625 34.941406 -40.898438 38.359375 -37.171875 C 41.785156 -33.453125 43.5 -28.097656 43.5 -21.109375 Z M 12.78125 -21.109375 C 12.78125 -16.398438 13.671875 -12.851562 15.453125 -10.46875 C 17.242188 -8.09375 19.914062 -6.90625 23.46875 -6.90625 C 30.59375 -6.90625 34.15625 -11.640625 34.15625 -21.109375 C 34.15625 -30.585938 30.613281 -35.328125 23.53125 -35.328125 C 19.976562 -35.328125 17.296875 -34.128906 15.484375 -31.734375 C 13.679688 -29.347656 12.78125 -25.804688 12.78125 -21.109375 Z M 12.78125 -21.109375 "/></g></g></g><g fill="#ffffff" fill-opacity="1"><g transform="translate(702.580647, 1246.616825)"><g/></g></g><g fill="#ffffff" fill-opacity="1"><g transform="translate(725.32588, 1246.616825)"><g><path d="M 23.171875 -35.265625 C 19.816406 -35.265625 17.21875 -34.003906 15.375 -31.484375 C 13.53125 -28.960938 12.609375 -25.445312 12.609375 -20.9375 C 12.609375 -11.550781 16.128906 -6.859375 23.171875 -6.859375 C 26.128906 -6.859375 29.710938 -7.59375 33.921875 -9.0625 L 33.921875 -1.578125 C 30.460938 -0.140625 26.601562 0.578125 22.34375 0.578125 C 16.21875 0.578125 11.53125 -1.273438 8.28125 -4.984375 C 5.039062 -8.703125 3.421875 -14.035156 3.421875 -20.984375 C 3.421875 -25.367188 4.21875 -29.207031 5.8125 -32.5 C 7.40625 -35.789062 9.691406 -38.3125 12.671875 -40.0625 C 15.660156 -41.820312 19.160156 -42.703125 23.171875 -42.703125 C 27.265625 -42.703125 31.375 -41.710938 35.5 -39.734375 L 32.625 -32.484375 C 31.050781 -33.234375 29.46875 -33.882812 27.875 -34.4375 C 26.28125 -34.988281 24.710938 -35.265625 23.171875 -35.265625 Z M 23.171875 -35.265625 "/></g></g></g><g fill="#ffffff" fill-opacity="1"><g transform="translate(770.323954, 1246.616825)"><g><path d="M 5.296875 0 L 5.296875 -42.09375 L 14.21875 -42.09375 L 14.21875 -7.375 L 31.296875 -7.375 L 31.296875 0 Z M 5.296875 0 "/></g></g></g><g fill="#ffffff" fill-opacity="1"><g transform="translate(811.061438, 1246.616825)"><g><path d="M 39.5625 -42.09375 L 39.5625 -14.859375 C 39.5625 -11.742188 38.863281 -9.015625 37.46875 -6.671875 C 36.082031 -4.335938 34.070312 -2.546875 31.4375 -1.296875 C 28.8125 -0.046875 25.703125 0.578125 22.109375 0.578125 C 16.703125 0.578125 12.5 -0.804688 9.5 -3.578125 C 6.507812 -6.359375 5.015625 -10.15625 5.015625 -14.96875 L 5.015625 -42.09375 L 13.90625 -42.09375 L 13.90625 -16.328125 C 13.90625 -13.078125 14.554688 -10.691406 15.859375 -9.171875 C 17.171875 -7.660156 19.332031 -6.90625 22.34375 -6.90625 C 25.257812 -6.90625 27.375 -7.664062 28.6875 -9.1875 C 30.007812 -10.71875 30.671875 -13.117188 30.671875 -16.390625 L 30.671875 -42.09375 Z M 39.5625 -42.09375 "/></g></g></g><g fill="#ffffff" fill-opacity="1"><g transform="translate(863.054872, 1246.616825)"><g><path d="M 5.296875 -42.09375 L 18.40625 -42.09375 C 24.375 -42.09375 28.703125 -41.242188 31.390625 -39.546875 C 34.085938 -37.847656 35.4375 -35.144531 35.4375 -31.4375 C 35.4375 -28.925781 34.847656 -26.863281 33.671875 -25.25 C 32.492188 -23.632812 30.925781 -22.664062 28.96875 -22.34375 L 28.96875 -22.0625 C 31.632812 -21.457031 33.554688 -20.335938 34.734375 -18.703125 C 35.921875 -17.078125 36.515625 -14.910156 36.515625 -12.203125 C 36.515625 -8.367188 35.125 -5.375 32.34375 -3.21875 C 29.570312 -1.070312 25.804688 0 21.046875 0 L 5.296875 0 Z M 14.21875 -25.421875 L 19.40625 -25.421875 C 21.820312 -25.421875 23.570312 -25.796875 24.65625 -26.546875 C 25.738281 -27.296875 26.28125 -28.535156 26.28125 -30.265625 C 26.28125 -31.878906 25.691406 -33.035156 24.515625 -33.734375 C 23.335938 -34.429688 21.472656 -34.78125 18.921875 -34.78125 L 14.21875 -34.78125 Z M 14.21875 -18.34375 L 14.21875 -7.375 L 20.046875 -7.375 C 22.492188 -7.375 24.300781 -7.84375 25.46875 -8.78125 C 26.644531 -9.71875 27.234375 -11.15625 27.234375 -13.09375 C 27.234375 -16.59375 24.738281 -18.34375 19.75 -18.34375 Z M 14.21875 -18.34375 "/></g></g></g><g fill="#ffffff" fill-opacity="1"><g transform="translate(910.09686, 1246.616825)"><g><path d="M 30.140625 -11.6875 C 30.140625 -7.882812 28.769531 -4.890625 26.03125 -2.703125 C 23.300781 -0.515625 19.5 0.578125 14.625 0.578125 C 10.132812 0.578125 6.160156 -0.265625 2.703125 -1.953125 L 2.703125 -10.25 C 5.546875 -8.976562 7.953125 -8.082031 9.921875 -7.5625 C 11.890625 -7.050781 13.6875 -6.796875 15.3125 -6.796875 C 17.269531 -6.796875 18.769531 -7.171875 19.8125 -7.921875 C 20.863281 -8.671875 21.390625 -9.785156 21.390625 -11.265625 C 21.390625 -12.085938 21.160156 -12.816406 20.703125 -13.453125 C 20.242188 -14.097656 19.566406 -14.71875 18.671875 -15.3125 C 17.773438 -15.90625 15.957031 -16.859375 13.21875 -18.171875 C 10.644531 -19.378906 8.710938 -20.539062 7.421875 -21.65625 C 6.140625 -22.769531 5.113281 -24.0625 4.34375 -25.53125 C 3.582031 -27.007812 3.203125 -28.738281 3.203125 -30.71875 C 3.203125 -34.445312 4.460938 -37.375 6.984375 -39.5 C 9.503906 -41.632812 12.992188 -42.703125 17.453125 -42.703125 C 19.640625 -42.703125 21.722656 -42.441406 23.703125 -41.921875 C 25.691406 -41.398438 27.769531 -40.671875 29.9375 -39.734375 L 27.0625 -32.796875 C 24.820312 -33.710938 22.96875 -34.351562 21.5 -34.71875 C 20.03125 -35.082031 18.582031 -35.265625 17.15625 -35.265625 C 15.46875 -35.265625 14.171875 -34.867188 13.265625 -34.078125 C 12.367188 -33.296875 11.921875 -32.273438 11.921875 -31.015625 C 11.921875 -30.222656 12.101562 -29.535156 12.46875 -28.953125 C 12.832031 -28.367188 13.410156 -27.800781 14.203125 -27.25 C 15.003906 -26.707031 16.894531 -25.722656 19.875 -24.296875 C 23.800781 -22.421875 26.492188 -20.535156 27.953125 -18.640625 C 29.410156 -16.753906 30.140625 -14.4375 30.140625 -11.6875 Z M 30.140625 -11.6875 "/></g></g></g><g fill="#0033b6" fill-opacity="1"><g transform="translate(303.951701, 1148.619313)"><g><path d="M 118.71875 0 L 118.5625 -69.25 L 84.59375 -12.203125 L 72.546875 -12.203125 L 38.75 -67.765625 L 38.75 0 L 13.6875 0 L 13.6875 -115.421875 L 35.78125 -115.421875 L 78.984375 -43.703125 L 121.53125 -115.421875 L 143.453125 -115.421875 L 143.78125 0 Z M 118.71875 0 "/></g></g></g><g fill="#0033b6" fill-opacity="1"><g transform="translate(458.12804, 1148.619313)"><g><path d="M 103.0625 -21.4375 L 103.0625 0 L 13.6875 0 L 13.6875 -115.421875 L 100.90625 -115.421875 L 100.90625 -93.984375 L 40.234375 -93.984375 L 40.234375 -68.921875 L 93.828125 -68.921875 L 93.828125 -48.140625 L 40.234375 -48.140625 L 40.234375 -21.4375 Z M 103.0625 -21.4375 "/></g></g></g><g fill="#0033b6" fill-opacity="1"><g transform="translate(565.474355, 1148.619313)"><g><path d="M 87.234375 0 L 64.96875 -32.15625 L 40.390625 -32.15625 L 40.390625 0 L 13.6875 0 L 13.6875 -115.421875 L 63.640625 -115.421875 C 73.867188 -115.421875 82.75 -113.71875 90.28125 -110.3125 C 97.8125 -106.90625 103.609375 -102.066406 107.671875 -95.796875 C 111.742188 -89.535156 113.78125 -82.117188 113.78125 -73.546875 C 113.78125 -64.972656 111.71875 -57.578125 107.59375 -51.359375 C 103.46875 -45.148438 97.613281 -40.394531 90.03125 -37.09375 L 115.921875 0 Z M 86.734375 -73.546875 C 86.734375 -80.023438 84.644531 -84.992188 80.46875 -88.453125 C 76.289062 -91.921875 70.1875 -93.65625 62.15625 -93.65625 L 40.390625 -93.65625 L 40.390625 -53.421875 L 62.15625 -53.421875 C 70.1875 -53.421875 76.289062 -55.179688 80.46875 -58.703125 C 84.644531 -62.222656 86.734375 -67.171875 86.734375 -73.546875 Z M 86.734375 -73.546875 "/></g></g></g><g fill="#0033b6" fill-opacity="1"><g transform="translate(683.373897, 1148.619313)"><g><path d="M 68.921875 1.984375 C 57.160156 1.984375 46.523438 -0.570312 37.015625 -5.6875 C 27.503906 -10.800781 20.03125 -17.890625 14.59375 -26.953125 C 9.15625 -36.023438 6.4375 -46.28125 6.4375 -57.71875 C 6.4375 -69.144531 9.15625 -79.390625 14.59375 -88.453125 C 20.03125 -97.523438 27.503906 -104.617188 37.015625 -109.734375 C 46.523438 -114.847656 57.21875 -117.40625 69.09375 -117.40625 C 79.09375 -117.40625 88.128906 -115.644531 96.203125 -112.125 C 104.285156 -108.601562 111.078125 -103.546875 116.578125 -96.953125 L 99.421875 -81.125 C 91.617188 -90.132812 81.945312 -94.640625 70.40625 -94.640625 C 63.257812 -94.640625 56.882812 -93.070312 51.28125 -89.9375 C 45.675781 -86.8125 41.304688 -82.441406 38.171875 -76.828125 C 35.035156 -71.222656 33.46875 -64.851562 33.46875 -57.71875 C 33.46875 -50.570312 35.035156 -44.191406 38.171875 -38.578125 C 41.304688 -32.972656 45.675781 -28.601562 51.28125 -25.46875 C 56.882812 -22.34375 63.257812 -20.78125 70.40625 -20.78125 C 81.945312 -20.78125 91.617188 -25.34375 99.421875 -34.46875 L 116.578125 -18.625 C 111.078125 -11.925781 104.257812 -6.816406 96.125 -3.296875 C 87.988281 0.222656 78.921875 1.984375 68.921875 1.984375 Z M 68.921875 1.984375 "/></g></g></g><g fill="#0033b6" fill-opacity="1"><g transform="translate(800.943665, 1148.619313)"><g><path d="M 89.703125 -24.734375 L 36.109375 -24.734375 L 25.890625 0 L -1.484375 0 L 49.96875 -115.421875 L 76.34375 -115.421875 L 127.953125 0 L 99.921875 0 Z M 81.296875 -45.015625 L 62.984375 -89.203125 L 44.6875 -45.015625 Z M 81.296875 -45.015625 "/></g></g></g><g fill="#0033b6" fill-opacity="1"><g transform="translate(923.954916, 1148.619313)"><g><path d="M 13.6875 -115.421875 L 66.125 -115.421875 C 78.65625 -115.421875 89.726562 -113.03125 99.34375 -108.25 C 108.96875 -103.46875 116.441406 -96.734375 121.765625 -88.046875 C 127.097656 -79.367188 129.765625 -69.257812 129.765625 -57.71875 C 129.765625 -46.164062 127.097656 -36.046875 121.765625 -27.359375 C 116.441406 -18.679688 108.96875 -11.953125 99.34375 -7.171875 C 89.726562 -2.390625 78.65625 0 66.125 0 L 13.6875 0 Z M 64.796875 -21.9375 C 76.335938 -21.9375 85.546875 -25.148438 92.421875 -31.578125 C 99.296875 -38.003906 102.734375 -46.71875 102.734375 -57.71875 C 102.734375 -68.707031 99.296875 -77.414062 92.421875 -83.84375 C 85.546875 -90.28125 76.335938 -93.5 64.796875 -93.5 L 40.390625 -93.5 L 40.390625 -21.9375 Z M 64.796875 -21.9375 "/></g></g></g><g fill="#0033b6" fill-opacity="1"><g transform="translate(1056.859907, 1148.619313)"><g><path d="M 69.578125 1.984375 C 57.597656 1.984375 46.796875 -0.597656 37.171875 -5.765625 C 27.554688 -10.929688 20.03125 -18.050781 14.59375 -27.125 C 9.15625 -36.195312 6.4375 -46.394531 6.4375 -57.71875 C 6.4375 -69.039062 9.15625 -79.234375 14.59375 -88.296875 C 20.03125 -97.367188 27.554688 -104.488281 37.171875 -109.65625 C 46.796875 -114.820312 57.597656 -117.40625 69.578125 -117.40625 C 81.566406 -117.40625 92.34375 -114.820312 101.90625 -109.65625 C 111.46875 -104.488281 118.992188 -97.367188 124.484375 -88.296875 C 129.984375 -79.234375 132.734375 -69.039062 132.734375 -57.71875 C 132.734375 -46.394531 129.984375 -36.195312 124.484375 -27.125 C 118.992188 -18.050781 111.46875 -10.929688 101.90625 -5.765625 C 92.34375 -0.597656 81.566406 1.984375 69.578125 1.984375 Z M 69.578125 -20.78125 C 76.398438 -20.78125 82.554688 -22.34375 88.046875 -25.46875 C 93.546875 -28.601562 97.859375 -32.972656 100.984375 -38.578125 C 104.117188 -44.191406 105.6875 -50.570312 105.6875 -57.71875 C 105.6875 -64.851562 104.117188 -71.222656 100.984375 -76.828125 C 97.859375 -82.441406 93.546875 -86.8125 88.046875 -89.9375 C 82.554688 -93.070312 76.398438 -94.640625 69.578125 -94.640625 C 62.765625 -94.640625 56.609375 -93.070312 51.109375 -89.9375 C 45.617188 -86.8125 41.304688 -82.441406 38.171875 -76.828125 C 35.035156 -71.222656 33.46875 -64.851562 33.46875 -57.71875 C 33.46875 -50.570312 35.035156 -44.191406 38.171875 -38.578125 C 41.304688 -32.972656 45.617188 -28.601562 51.109375 -25.46875 C 56.609375 -22.34375 62.765625 -20.78125 69.578125 -20.78125 Z M 69.578125 -20.78125 "/></g></g></g></svg>