<?xml version="1.0" encoding="UTF-8"?>
<svg xmlns="http://www.w3.org/2000/svg" xmlns:xlink="http://www.w3.org/1999/xlink" width="1200px" height="857px" viewBox="0 0 1199 857" version="1.1">
<defs>
<clipPath id="clip1">
  <path d="M 39.21875 453 L 84 453 L 84 499 L 39.21875 499 Z M 39.21875 453 "/>
</clipPath>
<clipPath id="clip2">
  <path d="M 202 590 L 240 590 L 240 626.011719 L 202 626.011719 Z M 202 590 "/>
</clipPath>
<clipPath id="clip3">
  <path d="M 398 192.371094 L 542.796875 192.371094 L 542.796875 314 L 398 314 Z M 398 192.371094 "/>
</clipPath>
<clipPath id="clip4">
  <path d="M 430 259 L 542.796875 259 L 542.796875 366 L 430 366 Z M 430 259 "/>
</clipPath>
</defs>
<g id="surface1">
<path style=" stroke:none;fill-rule:evenodd;fill:rgb(0%,74.901962%,38.82353%);fill-opacity:1;" d="M 168.902344 593.855469 C 171.6875 597.648438 174.34375 601.453125 177.003906 605.257812 C 177.386719 605.890625 177.386719 606.648438 177.128906 607.28125 C 176.753906 607.925781 175.996094 608.175781 175.355469 608.175781 C 170.671875 607.667969 165.988281 607.03125 161.429688 606.523438 C 158.511719 610.328125 155.726562 614.128906 152.945312 617.808594 C 152.433594 618.441406 151.800781 618.691406 151.042969 618.441406 C 150.410156 618.316406 149.902344 617.808594 149.777344 617.050781 C 148.761719 612.488281 147.875 607.925781 146.859375 603.363281 C 142.433594 601.835938 138 600.320312 133.566406 598.800781 C 132.933594 598.542969 132.425781 597.910156 132.425781 597.277344 C 132.300781 596.515625 132.683594 595.882812 133.316406 595.507812 C 137.367188 593.222656 141.417969 590.8125 145.476562 588.535156 C 145.601562 583.847656 145.726562 579.152344 145.726562 574.464844 C 145.726562 573.707031 146.101562 573.199219 146.867188 572.824219 C 147.503906 572.566406 148.261719 572.699219 148.769531 573.199219 C 152.1875 576.367188 155.601562 579.539062 159.152344 582.707031 C 163.585938 581.3125 168.144531 579.921875 172.570312 578.519531 C 173.210938 578.394531 173.972656 578.519531 174.46875 579.027344 C 174.855469 579.664062 174.980469 580.296875 174.730469 580.929688 C 172.828125 585.234375 170.929688 589.542969 168.902344 593.855469 Z M 168.902344 593.855469 "/>
<g clip-path="url(#clip1)" clip-rule="nonzero">
<path style=" stroke:none;fill-rule:evenodd;fill:rgb(0%,74.901962%,38.82353%);fill-opacity:1;" d="M 66.703125 463.582031 C 63.410156 460.289062 60.246094 456.871094 56.953125 453.578125 C 56.445312 453.066406 55.6875 452.933594 55.050781 453.191406 C 54.292969 453.316406 53.910156 453.949219 53.910156 454.710938 C 53.535156 459.40625 53.152344 463.96875 52.769531 468.652344 C 48.59375 470.804688 44.417969 472.832031 40.234375 474.984375 C 39.601562 475.242188 39.21875 475.875 39.21875 476.636719 C 39.21875 477.394531 39.726562 477.902344 40.359375 478.152344 C 44.667969 479.929688 48.96875 481.707031 53.402344 483.472656 C 54.035156 488.167969 54.667969 492.855469 55.425781 497.417969 C 55.5625 498.175781 55.933594 498.683594 56.695312 498.933594 C 57.328125 499.058594 58.085938 498.933594 58.59375 498.300781 C 61.511719 494.757812 64.554688 491.203125 67.585938 487.660156 C 72.277344 488.417969 76.835938 489.175781 81.519531 489.9375 C 82.15625 490.0625 82.914062 489.8125 83.296875 489.175781 C 83.671875 488.542969 83.671875 487.910156 83.296875 487.277344 C 80.886719 483.222656 78.355469 479.296875 75.945312 475.242188 C 78.105469 471.179688 80.253906 467.003906 82.40625 462.816406 C 82.789062 462.183594 82.664062 461.421875 82.28125 460.914062 C 81.78125 460.28125 81.148438 460.03125 80.378906 460.28125 C 75.820312 461.433594 71.261719 462.441406 66.703125 463.582031 Z M 66.703125 463.582031 "/>
</g>
<g clip-path="url(#clip2)" clip-rule="nonzero">
<path style=" stroke:none;fill-rule:evenodd;fill:rgb(0%,74.901962%,38.82353%);fill-opacity:1;" d="M 227.148438 601.453125 L 222.214844 591.320312 C 221.957031 590.8125 221.457031 590.5625 220.824219 590.5625 C 220.316406 590.5625 219.808594 590.9375 219.558594 591.445312 L 215.25 601.835938 L 204.105469 603.480469 C 203.472656 603.613281 203.089844 603.988281 202.839844 604.496094 C 202.714844 605.007812 202.839844 605.640625 203.347656 606.015625 L 211.957031 613.371094 L 209.933594 624.519531 C 209.933594 625.019531 210.058594 625.664062 210.566406 625.914062 C 211.066406 626.289062 211.699219 626.289062 212.082031 625.914062 L 221.832031 620.085938 L 231.832031 625.40625 C 232.34375 625.664062 232.851562 625.53125 233.359375 625.15625 C 233.734375 624.90625 233.992188 624.261719 233.859375 623.761719 L 231.199219 612.738281 L 239.308594 604.882812 C 239.808594 604.496094 239.941406 603.863281 239.683594 603.355469 C 239.433594 602.855469 239.050781 602.472656 238.417969 602.347656 Z M 227.148438 601.453125 "/>
</g>
<path style=" stroke:none;fill-rule:evenodd;fill:rgb(0%,74.901962%,38.82353%);fill-opacity:1;" d="M 69.871094 404.914062 L 78.988281 411.628906 C 79.363281 412.003906 79.621094 412.511719 79.496094 413.144531 C 79.363281 413.652344 78.988281 414.039062 78.355469 414.164062 L 67.335938 416.574219 L 63.660156 427.339844 C 63.535156 427.847656 63.027344 428.222656 62.519531 428.222656 C 61.886719 428.355469 61.386719 427.972656 61.128906 427.589844 L 55.425781 417.707031 L 44.160156 417.582031 C 43.527344 417.582031 43.019531 417.199219 42.769531 416.691406 C 42.644531 416.191406 42.644531 415.679688 43.019531 415.171875 L 50.617188 406.808594 L 47.328125 396.042969 C 47.078125 395.40625 47.203125 394.898438 47.703125 394.523438 C 48.085938 394.140625 48.71875 394.015625 49.226562 394.265625 L 59.609375 398.828125 L 68.726562 392.363281 C 69.238281 391.988281 69.871094 391.988281 70.371094 392.238281 C 70.878906 392.488281 71.136719 392.996094 71.003906 393.628906 Z M 69.871094 404.914062 "/>
<path style=" stroke:none;fill-rule:evenodd;fill:rgb(0%,74.901962%,38.82353%);fill-opacity:1;" d="M 79.746094 560.273438 C 73.039062 557.613281 66.453125 554.953125 59.859375 552.292969 C 58.851562 551.90625 58.21875 551.023438 58.085938 549.882812 C 58.085938 548.738281 58.59375 547.855469 59.609375 547.347656 C 65.9375 544.050781 72.394531 540.882812 78.730469 537.714844 C 79.238281 530.492188 79.746094 523.394531 80.121094 516.296875 C 80.253906 515.164062 80.886719 514.269531 81.894531 513.894531 C 82.914062 513.511719 84.054688 513.773438 84.8125 514.53125 C 89.878906 519.59375 94.8125 524.664062 99.882812 529.734375 C 106.847656 528.089844 113.683594 526.3125 120.648438 524.539062 C 121.667969 524.289062 122.808594 524.664062 123.433594 525.554688 C 124.066406 526.3125 124.199219 527.457031 123.691406 528.464844 C 120.523438 534.804688 117.234375 541.140625 113.941406 547.480469 C 117.742188 553.558594 121.542969 559.648438 125.332031 565.601562 C 125.964844 566.609375 125.839844 567.628906 125.332031 568.636719 C 124.699219 569.53125 123.691406 569.90625 122.550781 569.78125 C 115.582031 568.636719 108.5 567.503906 101.53125 566.359375 C 96.847656 571.804688 92.289062 577.261719 87.730469 582.707031 C 87.089844 583.589844 85.957031 583.972656 84.9375 583.589844 C 83.929688 583.339844 83.164062 582.582031 82.914062 581.4375 C 81.894531 574.339844 80.761719 567.371094 79.746094 560.273438 Z M 79.746094 560.273438 "/>
<path style=" stroke:none;fill-rule:evenodd;fill:rgb(100%,100%,100%);fill-opacity:1;" d="M 386.714844 295.675781 C 329.226562 238.148438 236.140625 238.148438 178.65625 295.675781 C 121.15625 353.207031 121.15625 446.480469 178.65625 504.003906 C 236.140625 561.539062 329.226562 561.539062 386.714844 504.003906 C 444.210938 446.480469 444.210938 353.207031 386.714844 295.675781 Z M 386.714844 295.675781 "/>
<path style=" stroke:none;fill-rule:evenodd;fill:rgb(0%,20%,71.372551%);fill-opacity:1;" d="M 391.148438 291.238281 C 331.25 231.300781 234.117188 231.300781 174.222656 291.238281 C 114.191406 351.183594 114.191406 448.503906 174.222656 508.441406 C 234.117188 568.386719 331.25 568.386719 391.148438 508.441406 C 451.175781 448.503906 451.175781 351.183594 391.148438 291.238281 Z M 385.582031 387.042969 C 385.070312 386.160156 383.929688 385.898438 383.046875 386.535156 C 382.15625 387.042969 382.03125 388.183594 382.539062 389.070312 C 382.539062 389.195312 397.605469 411.117188 404.066406 435.703125 C 404.324219 436.722656 405.332031 437.355469 406.347656 437.097656 C 407.367188 436.722656 407.988281 435.703125 407.742188 434.820312 C 401.023438 409.601562 385.707031 387.042969 385.582031 387.042969 Z M 389.878906 331.917969 C 388.996094 332.300781 388.613281 333.308594 388.996094 334.328125 C 389.371094 335.210938 390.511719 335.597656 391.398438 335.210938 L 404.824219 329.257812 C 404.949219 329.257812 404.949219 329.132812 405.082031 329.132812 C 436.234375 383.238281 428.757812 453.578125 382.539062 499.828125 C 355.820312 526.5625 321.117188 540.25 286.039062 541.140625 L 285.914062 527.582031 C 285.914062 526.5625 285.03125 525.679688 284.011719 525.679688 C 282.996094 525.679688 282.238281 526.5625 282.238281 527.582031 L 282.363281 541.140625 C 246.277344 541.140625 210.308594 527.324219 182.828125 499.828125 C 136.609375 453.578125 129.132812 383.238281 160.285156 329.132812 L 171.054688 338.507812 C 171.8125 339.140625 172.953125 339.140625 173.585938 338.382812 C 174.34375 337.621094 174.222656 336.480469 173.453125 335.722656 L 162.570312 326.222656 C 162.445312 326.089844 162.3125 325.964844 162.3125 325.964844 C 167.886719 316.714844 174.730469 307.964844 182.828125 299.859375 C 237.917969 244.734375 327.449219 244.734375 382.539062 299.859375 C 390.648438 307.964844 397.480469 316.714844 403.179688 325.964844 Z M 183.589844 388.183594 C 184.097656 387.292969 183.835938 386.148438 182.953125 385.648438 C 182.195312 385.015625 180.929688 385.265625 180.421875 386.148438 C 180.421875 386.285156 158.644531 419.992188 155.21875 436.589844 C 155.09375 437.605469 155.726562 438.488281 156.746094 438.75 C 157.753906 438.875 158.769531 438.238281 158.894531 437.222656 C 162.0625 421.386719 183.464844 388.308594 183.589844 388.183594 Z M 239.691406 496.410156 C 240.699219 496.410156 241.59375 495.765625 241.71875 494.757812 C 241.84375 493.75 241.085938 492.730469 240.066406 492.730469 C 239.941406 492.730469 199.929688 490.445312 183.214844 481.707031 C 182.320312 481.195312 181.1875 481.582031 180.679688 482.464844 C 180.296875 483.347656 180.554688 484.492188 181.4375 485 C 198.789062 493.996094 239.566406 496.410156 239.691406 496.410156 Z M 229.183594 394.265625 C 229.183594 393.257812 228.292969 392.488281 227.285156 392.621094 C 226.265625 392.621094 225.507812 393.628906 225.507812 394.648438 C 225.507812 394.648438 227.785156 418.089844 252.859375 448.121094 C 253.492188 448.890625 254.636719 449.015625 255.394531 448.378906 C 256.152344 447.746094 256.277344 446.480469 255.644531 445.71875 C 231.457031 416.699219 229.183594 394.390625 229.183594 394.265625 Z M 255.394531 275.015625 C 256.277344 274.515625 256.660156 273.375 256.152344 272.492188 C 255.644531 271.597656 254.511719 271.222656 253.617188 271.722656 C 253.492188 271.855469 219.425781 291.871094 209.808594 312.789062 C 209.421875 313.671875 209.808594 314.8125 210.691406 315.1875 C 211.574219 315.699219 212.714844 315.1875 213.222656 314.304688 C 222.214844 294.539062 255.269531 275.015625 255.394531 275.015625 Z M 308.199219 347.628906 C 309.214844 347.253906 309.722656 346.238281 309.464844 345.21875 C 309.089844 344.335938 308.074219 343.703125 307.066406 344.085938 C 307.066406 344.085938 282.746094 352.066406 246.652344 346.621094 C 245.644531 346.488281 244.75 347.121094 244.625 348.136719 C 244.375 349.148438 245.136719 350.039062 246.152344 350.289062 C 282.996094 355.871094 308.199219 347.628906 308.199219 347.628906 Z M 339.984375 308.984375 C 340.367188 309.867188 341.5 310.375 342.394531 309.992188 C 343.402344 309.617188 343.785156 308.476562 343.402344 307.589844 C 343.402344 307.457031 334.285156 285.667969 308.957031 270.714844 C 308.074219 270.203125 306.929688 270.453125 306.421875 271.347656 C 305.921875 272.230469 306.171875 273.375 307.066406 273.882812 C 331.375 288.203125 339.984375 308.859375 339.984375 308.984375 Z M 334.917969 396.675781 C 335.558594 395.917969 335.425781 394.773438 334.667969 394.140625 C 333.910156 393.503906 332.640625 393.628906 332.007812 394.390625 C 323.398438 405.289062 317.699219 415.046875 313.648438 423.921875 C 309.589844 432.917969 307.316406 441.160156 305.289062 449.015625 C 305.039062 449.898438 305.664062 450.914062 306.558594 451.164062 C 307.566406 451.414062 308.582031 450.914062 308.832031 449.898438 C 310.867188 442.167969 313.140625 434.1875 317.066406 425.4375 C 320.867188 416.824219 326.433594 407.316406 334.917969 396.675781 Z M 386.203125 483.480469 C 386.972656 482.714844 386.972656 481.582031 386.203125 480.820312 C 385.445312 480.1875 384.304688 480.1875 383.546875 480.945312 C 383.546875 480.945312 364.304688 499.703125 326.058594 496.785156 C 325.042969 496.785156 324.160156 497.550781 324.035156 498.558594 C 324.035156 499.578125 324.792969 500.460938 325.800781 500.460938 C 365.695312 503.496094 386.203125 483.480469 386.203125 483.480469 Z M 386.203125 483.480469 "/>
<path style=" stroke:none;fill-rule:evenodd;fill:rgb(0%,20%,71.372551%);fill-opacity:1;" d="M 177.761719 495.140625 C 161.304688 477.019531 150.285156 455.851562 144.710938 433.429688 L 156.484375 435.953125 C 157.503906 436.214844 158.769531 437.355469 159.652344 439 L 182.703125 480.3125 C 183.589844 481.957031 183.835938 483.605469 183.464844 484.492188 Z M 177.761719 495.140625 "/>
<path style=" stroke:none;fill-rule:evenodd;fill:rgb(0%,20%,71.372551%);fill-opacity:1;" d="M 384.5625 479.296875 L 404.824219 436.972656 C 405.714844 435.320312 406.722656 434.1875 407.742188 434.050781 L 420.65625 432.410156 C 415.339844 454.710938 404.574219 476 388.363281 494.121094 L 383.804688 483.730469 C 383.421875 482.714844 383.679688 481.070312 384.5625 479.296875 Z M 384.5625 479.296875 "/>
<path style=" stroke:none;fill-rule:evenodd;fill:rgb(0%,20%,71.372551%);fill-opacity:1;" d="M 304.90625 274.257812 L 257.929688 275.015625 C 256.027344 275.015625 254.378906 274.515625 253.742188 273.757812 L 244.117188 263.109375 C 267.542969 256.644531 292.246094 256.136719 315.800781 261.714844 L 308.832031 272.863281 C 308.324219 273.625 306.804688 274.132812 304.90625 274.257812 Z M 304.90625 274.257812 "/>
<path style=" stroke:none;fill-rule:evenodd;fill:rgb(0%,20%,71.372551%);fill-opacity:1;" d="M 388.613281 331.285156 L 345.050781 307.457031 C 343.277344 306.449219 341.25 306.699219 339.859375 308.214844 L 308.074219 342.816406 C 306.804688 344.210938 306.558594 346.363281 307.566406 348.136719 L 331.375 393.503906 C 332.390625 395.28125 334.292969 396.292969 336.191406 396.042969 L 382.664062 389.320312 C 384.5625 389.070312 386.089844 387.550781 386.214844 385.523438 L 391.148438 336.097656 C 391.273438 334.203125 390.265625 332.300781 388.613281 331.285156 Z M 388.613281 331.285156 "/>
<path style=" stroke:none;fill-rule:evenodd;fill:rgb(0%,20%,71.372551%);fill-opacity:1;" d="M 304.53125 447.871094 L 256.402344 445.710938 C 254.378906 445.585938 252.609375 446.730469 252.101562 448.628906 L 239.308594 492.480469 C 238.800781 494.246094 239.558594 496.148438 241.085938 497.417969 L 281.355469 526.5625 C 282.996094 527.832031 285.03125 527.832031 286.671875 526.8125 L 324.28125 500.96875 C 325.933594 499.953125 326.433594 497.925781 325.800781 496.023438 L 308.832031 450.90625 C 308.074219 449.140625 306.421875 447.871094 304.53125 447.871094 Z M 304.53125 447.871094 "/>
<path style=" stroke:none;fill-rule:evenodd;fill:rgb(0%,20%,71.372551%);fill-opacity:1;" d="M 246.019531 345.726562 L 214.230469 313.796875 C 212.972656 312.527344 211.074219 312.277344 209.546875 313.160156 L 173.078125 335.210938 C 171.5625 336.230469 170.796875 337.871094 171.179688 339.773438 L 180.421875 385.265625 C 180.804688 387.167969 182.195312 388.433594 183.835938 388.683594 L 226.007812 394.773438 C 227.90625 395.023438 229.433594 394.140625 230.191406 392.363281 L 247.035156 350.546875 C 247.667969 348.898438 247.285156 346.996094 246.019531 345.726562 Z M 246.019531 345.726562 "/>
<path style=" stroke:none;fill-rule:evenodd;fill:rgb(90.196079%,90.196079%,90.196079%);fill-opacity:1;" d="M 360.503906 315.949219 C 358.601562 301.886719 354.800781 288.078125 348.976562 275.015625 C 361.011719 281.355469 372.402344 289.71875 382.539062 299.859375 C 390.636719 307.964844 397.480469 316.714844 403.179688 325.964844 L 389.878906 331.917969 C 389.753906 331.917969 389.628906 331.917969 389.628906 332.042969 C 389.246094 331.792969 388.996094 331.542969 388.613281 331.285156 Z M 360.503906 315.949219 "/>
<path style=" stroke:none;fill-rule:evenodd;fill:rgb(90.196079%,90.196079%,90.196079%);fill-opacity:1;" d="M 386.203125 385.523438 L 391.148438 336.097656 C 391.148438 335.847656 391.148438 335.597656 391.148438 335.335938 C 391.273438 335.335938 391.273438 335.335938 391.398438 335.210938 L 404.824219 329.257812 C 404.949219 329.257812 404.949219 329.132812 405.082031 329.132812 C 423.316406 360.679688 428.25 397.808594 420.148438 432.535156 L 407.742188 434.050781 C 407.605469 434.050781 407.605469 434.050781 407.480469 434.050781 C 401.15625 410.359375 387.222656 389.320312 385.707031 387.167969 C 385.953125 386.660156 386.203125 386.160156 386.203125 385.523438 Z M 386.203125 385.523438 "/>
<path style=" stroke:none;fill-rule:evenodd;fill:rgb(90.196079%,90.196079%,90.196079%);fill-opacity:1;" d="M 350.117188 394.015625 L 382.664062 389.328125 C 382.664062 389.328125 382.664062 389.328125 382.789062 389.328125 C 384.5625 391.988281 398.113281 412.769531 404.066406 435.703125 C 404.191406 436.214844 404.574219 436.597656 404.949219 436.847656 L 404.824219 436.972656 L 384.5625 479.296875 C 384.304688 479.804688 384.179688 480.1875 384.054688 480.5625 C 383.929688 480.6875 383.679688 480.820312 383.546875 480.945312 C 383.546875 480.945312 364.304688 499.703125 326.058594 496.785156 C 326.058594 496.785156 326.058594 496.785156 325.933594 496.785156 C 325.933594 496.535156 325.800781 496.285156 325.800781 496.023438 L 308.832031 450.914062 C 308.707031 450.78125 308.707031 450.65625 308.582031 450.53125 C 311.875 447.746094 314.90625 444.953125 317.949219 441.917969 C 332.132812 427.722656 342.902344 411.378906 350.117188 394.015625 Z M 350.117188 394.015625 "/>
<path style=" stroke:none;fill-rule:evenodd;fill:rgb(90.196079%,90.196079%,90.196079%);fill-opacity:1;" d="M 286.671875 526.8125 L 324.28125 500.96875 C 324.53125 500.835938 324.917969 500.585938 325.042969 500.328125 C 325.292969 500.460938 325.550781 500.460938 325.800781 500.460938 C 358.851562 502.996094 378.613281 489.6875 384.4375 485 L 388.238281 493.75 C 386.339844 495.773438 384.5625 497.800781 382.539062 499.828125 C 355.820312 526.5625 321.117188 540.25 286.039062 541.140625 L 285.914062 527.582031 C 285.914062 527.449219 285.914062 527.324219 285.914062 527.199219 C 286.164062 527.074219 286.421875 526.9375 286.671875 526.8125 Z M 286.671875 526.8125 "/>
<path style=" stroke:none;fill-rule:evenodd;fill:rgb(90.196079%,90.196079%,90.196079%);fill-opacity:1;" d="M 241.085938 497.417969 L 281.355469 526.5625 C 281.730469 526.8125 281.988281 526.9375 282.238281 527.074219 C 282.238281 527.199219 282.238281 527.449219 282.238281 527.574219 L 282.371094 541.132812 C 246.277344 541.132812 210.316406 527.324219 182.828125 499.828125 C 181.1875 498.050781 179.539062 496.398438 178.019531 494.632812 L 182.828125 485.632812 C 200.816406 494.121094 239.566406 496.398438 239.691406 496.398438 C 239.816406 496.398438 239.941406 496.398438 240.066406 496.398438 C 240.328125 496.785156 240.699219 497.035156 241.085938 497.417969 Z M 241.085938 497.417969 "/>
<path style=" stroke:none;fill-rule:evenodd;fill:rgb(90.196079%,90.196079%,90.196079%);fill-opacity:1;" d="M 239.308594 492.605469 C 234.242188 492.347656 205.113281 490.195312 188.273438 483.855469 C 206.132812 486.777344 224.367188 486.390625 242.226562 482.714844 L 239.308594 492.472656 Z M 239.308594 492.605469 "/>
<path style=" stroke:none;fill-rule:evenodd;fill:rgb(0%,74.901962%,38.82353%);fill-opacity:1;" d="M 462.828125 194.933594 L 381.394531 269.953125 C 372.027344 263.867188 362.402344 258.671875 352.527344 254.492188 Z M 462.828125 194.933594 "/>
<g clip-path="url(#clip3)" clip-rule="nonzero">
<path style=" stroke:none;fill-rule:evenodd;fill:rgb(0%,74.901962%,38.82353%);fill-opacity:1;" d="M 542.351562 192.398438 L 398.621094 284.398438 C 400.265625 286.042969 401.914062 287.691406 403.554688 289.335938 C 408.625 294.664062 418.25 307.839844 422.425781 313.546875 Z M 542.351562 192.398438 "/>
</g>
<g clip-path="url(#clip4)" clip-rule="nonzero">
<path style=" stroke:none;fill-rule:evenodd;fill:rgb(0%,74.901962%,38.82353%);fill-opacity:1;" d="M 543.492188 259.8125 L 430.148438 327.863281 C 437.242188 341.167969 440.035156 351.308594 442.941406 365.75 Z M 543.492188 259.8125 "/>
</g>
<path style=" stroke:none;fill-rule:evenodd;fill:rgb(0%,74.901962%,38.82353%);fill-opacity:1;" d="M 445.21875 382.230469 L 539.566406 345.476562 L 444.460938 415.296875 C 445.859375 404.53125 446.109375 393.378906 445.21875 382.230469 Z M 445.21875 382.230469 "/>
<path style=" stroke:none;fill-rule:evenodd;fill:rgb(0%,74.901962%,38.82353%);fill-opacity:1;" d="M 144.078125 308.476562 C 121.40625 336.605469 107.730469 372.339844 107.730469 411.378906 C 107.730469 501.730469 180.929688 574.976562 271.21875 574.976562 C 310.097656 574.976562 345.945312 561.28125 373.929688 538.472656 C 309.589844 581.054688 222.089844 573.957031 165.351562 517.191406 C 108.75 460.539062 101.65625 372.972656 144.078125 308.476562 Z M 144.078125 308.476562 "/>
<path style=" stroke:none;fill-rule:nonzero;fill:rgb(100%,100%,100%);fill-opacity:1;" d="M 767.371094 436.085938 C 769.585938 436.085938 771.492188 436.460938 773.117188 437.195312 C 774.730469 437.910156 775.980469 438.945312 776.863281 440.300781 C 777.738281 441.65625 778.183594 443.253906 778.183594 445.085938 C 778.183594 446.925781 777.738281 448.511719 776.863281 449.871094 C 775.980469 451.226562 774.730469 452.28125 773.117188 453.011719 C 771.492188 453.726562 769.585938 454.085938 767.371094 454.085938 L 762.375 454.085938 L 762.375 460.941406 L 756.628906 460.941406 L 756.628906 436.085938 Z M 767.050781 449.40625 C 768.78125 449.40625 770.09375 449.039062 770.976562 448.300781 C 771.875 447.539062 772.332031 446.46875 772.332031 445.085938 C 772.332031 443.710938 771.875 442.648438 770.976562 441.90625 C 770.09375 441.148438 768.78125 440.765625 767.050781 440.765625 L 762.375 440.765625 L 762.375 449.40625 Z M 767.050781 449.40625 "/>
<path style=" stroke:none;fill-rule:nonzero;fill:rgb(100%,100%,100%);fill-opacity:1;" d="M 802.890625 460.941406 L 798.109375 454.011719 L 792.828125 454.011719 L 792.828125 460.941406 L 787.082031 460.941406 L 787.082031 436.085938 L 797.824219 436.085938 C 800.035156 436.085938 801.945312 436.460938 803.570312 437.195312 C 805.183594 437.910156 806.433594 438.945312 807.316406 440.300781 C 808.191406 441.65625 808.636719 443.253906 808.636719 445.085938 C 808.636719 446.941406 808.179688 448.539062 807.28125 449.871094 C 806.398438 451.210938 805.140625 452.226562 803.496094 452.941406 L 809.066406 460.941406 Z M 802.785156 445.085938 C 802.785156 443.710938 802.328125 442.648438 801.429688 441.90625 C 800.542969 441.148438 799.234375 440.765625 797.503906 440.765625 L 792.828125 440.765625 L 792.828125 449.441406 L 797.503906 449.441406 C 799.234375 449.441406 800.542969 449.066406 801.429688 448.300781 C 802.328125 447.539062 802.785156 446.46875 802.785156 445.085938 Z M 802.785156 445.085938 "/>
<path style=" stroke:none;fill-rule:nonzero;fill:rgb(100%,100%,100%);fill-opacity:1;" d="M 829.667969 461.367188 C 827.070312 461.367188 824.742188 460.816406 822.671875 459.691406 C 820.601562 458.574219 818.980469 457.039062 817.820312 455.082031 C 816.652344 453.136719 816.070312 450.941406 816.070312 448.511719 C 816.070312 446.066406 816.652344 443.863281 817.820312 441.90625 C 818.980469 439.960938 820.601562 438.433594 822.671875 437.335938 C 824.742188 436.222656 827.070312 435.660156 829.667969 435.660156 C 832.238281 435.660156 834.539062 436.222656 836.589844 437.335938 C 838.660156 438.433594 840.285156 439.960938 841.480469 441.90625 C 842.664062 443.863281 843.261719 446.066406 843.261719 448.511719 C 843.261719 450.941406 842.664062 453.136719 841.480469 455.082031 C 840.285156 457.039062 838.660156 458.574219 836.589844 459.691406 C 834.539062 460.816406 832.238281 461.367188 829.667969 461.367188 Z M 829.667969 456.476562 C 831.140625 456.476562 832.460938 456.144531 833.628906 455.476562 C 834.816406 454.789062 835.742188 453.835938 836.410156 452.621094 C 837.097656 451.40625 837.445312 450.039062 837.445312 448.511719 C 837.445312 446.96875 837.097656 445.601562 836.410156 444.40625 C 835.742188 443.191406 834.816406 442.253906 833.628906 441.585938 C 832.460938 440.898438 831.140625 440.550781 829.667969 440.550781 C 828.1875 440.550781 826.855469 440.898438 825.671875 441.585938 C 824.5 442.253906 823.574219 443.191406 822.886719 444.40625 C 822.21875 445.601562 821.886719 446.96875 821.886719 448.511719 C 821.886719 450.039062 822.21875 451.40625 822.886719 452.621094 C 823.574219 453.835938 824.5 454.789062 825.671875 455.476562 C 826.855469 456.144531 828.1875 456.476562 829.667969 456.476562 Z M 829.667969 456.476562 "/>
<path style=" stroke:none;fill-rule:nonzero;fill:rgb(100%,100%,100%);fill-opacity:1;" d="M 878.46875 461.367188 C 875.917969 461.367188 873.625 460.824219 871.582031 459.726562 C 869.53125 458.609375 867.925781 457.074219 866.765625 455.121094 C 865.597656 453.171875 865.015625 450.96875 865.015625 448.511719 C 865.015625 446.039062 865.597656 443.828125 866.765625 441.871094 C 867.925781 439.925781 869.53125 438.398438 871.582031 437.300781 C 873.625 436.210938 875.9375 435.660156 878.503906 435.660156 C 880.644531 435.660156 882.582031 436.042969 884.320312 436.800781 C 886.078125 437.542969 887.542969 438.621094 888.710938 440.050781 L 885.035156 443.441406 C 883.339844 441.515625 881.261719 440.550781 878.789062 440.550781 C 877.238281 440.550781 875.863281 440.898438 874.652344 441.585938 C 873.457031 442.253906 872.519531 443.191406 871.832031 444.40625 C 871.164062 445.601562 870.832031 446.96875 870.832031 448.511719 C 870.832031 450.039062 871.164062 451.40625 871.832031 452.621094 C 872.519531 453.835938 873.457031 454.789062 874.652344 455.476562 C 875.863281 456.144531 877.238281 456.476562 878.789062 456.476562 C 881.261719 456.476562 883.339844 455.496094 885.035156 453.511719 L 888.710938 456.941406 C 887.542969 458.371094 886.078125 459.46875 884.320312 460.226562 C 882.554688 460.984375 880.609375 461.367188 878.46875 461.367188 Z M 878.46875 461.367188 "/>
<path style=" stroke:none;fill-rule:nonzero;fill:rgb(100%,100%,100%);fill-opacity:1;" d="M 897.074219 436.085938 L 902.820312 436.085938 L 902.820312 456.261719 L 915.273438 456.261719 L 915.273438 460.941406 L 897.074219 460.941406 Z M 897.074219 436.085938 "/>
<path style=" stroke:none;fill-rule:nonzero;fill:rgb(100%,100%,100%);fill-opacity:1;" d="M 934.011719 461.367188 C 930.460938 461.367188 927.703125 460.394531 925.730469 458.441406 C 923.75 456.46875 922.769531 453.65625 922.769531 450.011719 L 922.769531 436.085938 L 928.515625 436.085938 L 928.515625 449.800781 C 928.515625 454.253906 930.351562 456.476562 934.046875 456.476562 C 935.847656 456.476562 937.222656 455.941406 938.148438 454.871094 C 939.09375 453.78125 939.578125 452.085938 939.578125 449.800781 L 939.578125 436.085938 L 945.25 436.085938 L 945.25 450.011719 C 945.25 453.65625 944.261719 456.46875 942.289062 458.441406 C 940.308594 460.394531 937.550781 461.367188 934.011719 461.367188 Z M 934.011719 461.367188 "/>
<path style=" stroke:none;fill-rule:nonzero;fill:rgb(100%,100%,100%);fill-opacity:1;" d="M 973.660156 448.015625 C 975.085938 448.46875 976.191406 449.21875 976.976562 450.261719 C 977.78125 451.316406 978.191406 452.609375 978.191406 454.15625 C 978.191406 456.324219 977.34375 458.003906 975.65625 459.191406 C 973.960938 460.359375 971.5 460.941406 968.269531 460.941406 L 955.421875 460.941406 L 955.421875 436.085938 L 967.554688 436.085938 C 970.570312 436.085938 972.890625 436.675781 974.515625 437.835938 C 976.15625 438.980469 976.976562 440.550781 976.976562 442.550781 C 976.976562 443.746094 976.671875 444.816406 976.085938 445.765625 C 975.515625 446.71875 974.703125 447.46875 973.660156 448.015625 Z M 961.132812 440.40625 L 961.132812 446.265625 L 966.84375 446.265625 C 968.269531 446.265625 969.339844 446.015625 970.054688 445.515625 C 970.785156 445.015625 971.160156 444.28125 971.160156 443.300781 C 971.160156 442.355469 970.785156 441.640625 970.054688 441.15625 C 969.339844 440.65625 968.269531 440.40625 966.84375 440.40625 Z M 967.839844 456.621094 C 969.359375 456.621094 970.5 456.371094 971.265625 455.871094 C 972.027344 455.371094 972.410156 454.601562 972.410156 453.546875 C 972.410156 451.476562 970.882812 450.441406 967.839844 450.441406 L 961.132812 450.441406 L 961.132812 456.621094 Z M 967.839844 456.621094 "/>
<path style=" stroke:none;fill-rule:nonzero;fill:rgb(100%,100%,100%);fill-opacity:1;" d="M 995.183594 461.367188 C 993.230469 461.367188 991.339844 461.101562 989.507812 460.582031 C 987.671875 460.039062 986.199219 459.332031 985.085938 458.476562 L 987.046875 454.15625 C 988.089844 454.941406 989.347656 455.574219 990.828125 456.046875 C 992.300781 456.53125 993.765625 456.761719 995.21875 456.761719 C 996.859375 456.761719 998.074219 456.53125 998.859375 456.046875 C 999.644531 455.546875 1000.035156 454.898438 1000.035156 454.085938 C 1000.035156 453.496094 999.796875 453.003906 999.324219 452.621094 C 998.867188 452.21875 998.269531 451.898438 997.539062 451.65625 C 996.824219 451.425781 995.859375 451.15625 994.648438 450.871094 C 992.738281 450.441406 991.1875 450.003906 989.972656 449.550781 C 988.757812 449.101562 987.726562 448.371094 986.867188 447.371094 C 986.011719 446.371094 985.582031 445.039062 985.582031 443.371094 C 985.582031 441.941406 985.957031 440.648438 986.726562 439.480469 C 987.511719 438.292969 988.6875 437.363281 990.257812 436.695312 C 991.847656 436.007812 993.773438 435.660156 996.039062 435.660156 C 997.628906 435.660156 999.179688 435.855469 1000.679688 436.230469 C 1002.195312 436.585938 1003.53125 437.121094 1004.675781 437.835938 L 1002.890625 442.230469 C 1000.605469 440.925781 998.304688 440.265625 996.003906 440.265625 C 994.40625 440.265625 993.21875 440.53125 992.433594 441.050781 C 991.667969 441.578125 991.292969 442.265625 991.292969 443.121094 C 991.292969 443.960938 991.730469 444.585938 992.613281 445.015625 C 993.515625 445.425781 994.871094 445.828125 996.683594 446.226562 C 998.582031 446.683594 1000.125 447.140625 1001.320312 447.585938 C 1002.535156 448.039062 1003.570312 448.753906 1004.425781 449.726562 C 1005.300781 450.683594 1005.746094 451.996094 1005.746094 453.65625 C 1005.746094 455.082031 1005.335938 456.386719 1004.53125 457.546875 C 1003.746094 458.71875 1002.550781 459.644531 1000.964844 460.332031 C 999.394531 461.019531 997.464844 461.367188 995.183594 461.367188 Z M 995.183594 461.367188 "/>
<path style=" stroke:none;fill-rule:nonzero;fill:rgb(100%,100%,100%);fill-opacity:1;" d="M 686.363281 385.207031 L 686.253906 339.105469 L 663.417969 377.242188 L 657.671875 377.242188 L 634.832031 339.675781 L 634.832031 385.207031 L 622.523438 385.207031 L 622.523438 315.644531 L 633.121094 315.644531 L 660.738281 361.746094 L 687.859375 315.644531 L 698.496094 315.644531 L 698.566406 385.207031 Z M 686.363281 385.207031 "/>
<path style=" stroke:none;fill-rule:nonzero;fill:rgb(100%,100%,100%);fill-opacity:1;" d="M 767.464844 374.386719 L 767.464844 385.207031 L 715.328125 385.207031 L 715.328125 315.644531 L 766.070312 315.644531 L 766.070312 326.464844 L 728.210938 326.464844 L 728.210938 344.570312 L 761.789062 344.570312 L 761.789062 355.210938 L 728.210938 355.210938 L 728.210938 374.386719 Z M 767.464844 374.386719 "/>
<path style=" stroke:none;fill-rule:nonzero;fill:rgb(100%,100%,100%);fill-opacity:1;" d="M 825.308594 385.207031 L 811.105469 364.816406 C 810.507812 364.886719 809.617188 364.921875 808.429688 364.921875 L 792.726562 364.921875 L 792.726562 385.207031 L 779.84375 385.207031 L 779.84375 315.644531 L 808.429688 315.644531 C 814.441406 315.644531 819.6875 316.644531 824.164062 318.644531 C 828.636719 320.628906 832.0625 323.464844 834.441406 327.179688 C 836.816406 330.894531 838.011719 335.304688 838.011719 340.390625 C 838.011719 345.632812 836.734375 350.140625 834.191406 353.925781 C 831.640625 357.691406 827.992188 360.496094 823.238281 362.351562 L 839.222656 385.207031 Z M 825.023438 340.390625 C 825.023438 335.945312 823.558594 332.527344 820.632812 330.144531 C 817.722656 327.769531 813.460938 326.574219 807.820312 326.574219 L 792.726562 326.574219 L 792.726562 354.28125 L 807.820312 354.28125 C 813.460938 354.28125 817.722656 353.085938 820.632812 350.675781 C 823.558594 348.246094 825.023438 344.820312 825.023438 340.390625 Z M 825.023438 340.390625 "/>
<path style=" stroke:none;fill-rule:nonzero;fill:rgb(100%,100%,100%);fill-opacity:1;" d="M 882.570312 386.207031 C 875.546875 386.207031 869.207031 384.671875 863.550781 381.597656 C 857.882812 378.511719 853.449219 374.242188 850.238281 368.816406 C 847.027344 363.386719 845.421875 357.265625 845.421875 350.425781 C 845.421875 343.597656 847.035156 337.464844 850.273438 332.035156 C 853.53125 326.609375 857.992188 322.359375 863.65625 319.289062 C 869.3125 316.199219 875.65625 314.644531 882.675781 314.644531 C 888.359375 314.644531 893.558594 315.644531 898.269531 317.644531 C 902.980469 319.628906 906.949219 322.5 910.1875 326.285156 L 901.839844 334.144531 C 896.816406 328.699219 890.632812 325.964844 883.28125 325.964844 C 878.5 325.964844 874.21875 327.019531 870.4375 329.109375 C 866.671875 331.207031 863.738281 334.105469 861.621094 337.820312 C 859.5 341.515625 858.445312 345.710938 858.445312 350.425781 C 858.445312 355.140625 859.5 359.351562 861.621094 363.066406 C 863.738281 366.761719 866.671875 369.65625 870.4375 371.742188 C 874.21875 373.839844 878.5 374.886719 883.28125 374.886719 C 890.632812 374.886719 896.816406 372.136719 901.839844 366.636719 L 910.1875 374.566406 C 906.949219 378.351562 902.964844 381.242188 898.234375 383.242188 C 893.496094 385.214844 888.277344 386.207031 882.570312 386.207031 Z M 882.570312 386.207031 "/>
<path style=" stroke:none;fill-rule:nonzero;fill:rgb(100%,100%,100%);fill-opacity:1;" d="M 965.664062 369.101562 L 930.90625 369.101562 L 924.054688 385.207031 L 910.742188 385.207031 L 942.039062 315.644531 L 954.742188 315.644531 L 986.109375 385.207031 L 972.621094 385.207031 Z M 961.378906 358.960938 L 948.285156 328.574219 L 935.257812 358.960938 Z M 961.378906 358.960938 "/>
<path style=" stroke:none;fill-rule:nonzero;fill:rgb(100%,100%,100%);fill-opacity:1;" d="M 992.953125 315.644531 L 1023.320312 315.644531 C 1030.742188 315.644531 1037.324219 317.09375 1043.089844 319.964844 C 1048.84375 322.851562 1053.304688 326.929688 1056.46875 332.214844 C 1059.65625 337.480469 1061.25 343.550781 1061.25 350.425781 C 1061.25 357.308594 1059.65625 363.386719 1056.46875 368.671875 C 1053.304688 373.941406 1048.84375 378.011719 1043.089844 380.886719 C 1037.324219 383.769531 1030.742188 385.207031 1023.320312 385.207031 L 992.953125 385.207031 Z M 1022.746094 374.277344 C 1027.832031 374.277344 1032.3125 373.304688 1036.164062 371.351562 C 1040.039062 369.40625 1043.027344 366.621094 1045.121094 362.996094 C 1047.210938 359.378906 1048.261719 355.191406 1048.261719 350.425781 C 1048.261719 345.667969 1047.210938 341.480469 1045.121094 337.855469 C 1043.027344 334.242188 1040.039062 331.457031 1036.164062 329.5 C 1032.3125 327.554688 1027.832031 326.574219 1022.746094 326.574219 L 1005.832031 326.574219 L 1005.832031 374.277344 Z M 1022.746094 374.277344 "/>
<path style=" stroke:none;fill-rule:nonzero;fill:rgb(100%,100%,100%);fill-opacity:1;" d="M 1105.425781 386.207031 C 1098.332031 386.207031 1091.9375 384.671875 1086.226562 381.597656 C 1080.535156 378.511719 1076.066406 374.234375 1072.808594 368.78125 C 1069.570312 363.308594 1067.957031 357.191406 1067.957031 350.425781 C 1067.957031 343.667969 1069.570312 337.5625 1072.808594 332.109375 C 1076.066406 326.636719 1080.535156 322.359375 1086.226562 319.289062 C 1091.9375 316.199219 1098.332031 314.644531 1105.425781 314.644531 C 1112.492188 314.644531 1118.859375 316.199219 1124.554688 319.289062 C 1130.261719 322.359375 1134.730469 326.609375 1137.96875 332.035156 C 1141.226562 337.464844 1142.859375 343.597656 1142.859375 350.425781 C 1142.859375 357.265625 1141.226562 363.386719 1137.96875 368.816406 C 1134.730469 374.242188 1130.261719 378.511719 1124.554688 381.597656 C 1118.859375 384.671875 1112.492188 386.207031 1105.425781 386.207031 Z M 1105.425781 374.886719 C 1110.039062 374.886719 1114.203125 373.839844 1117.914062 371.742188 C 1121.625 369.65625 1124.535156 366.734375 1126.660156 362.996094 C 1128.773438 359.261719 1129.835938 355.066406 1129.835938 350.425781 C 1129.835938 345.785156 1128.773438 341.597656 1126.660156 337.855469 C 1124.535156 334.125 1121.625 331.207031 1117.914062 329.109375 C 1114.203125 327.019531 1110.039062 325.964844 1105.425781 325.964844 C 1100.785156 325.964844 1096.613281 327.019531 1092.902344 329.109375 C 1089.191406 331.207031 1086.273438 334.125 1084.15625 337.855469 C 1082.035156 341.597656 1080.980469 345.785156 1080.980469 350.425781 C 1080.980469 355.066406 1082.035156 359.261719 1084.15625 362.996094 C 1086.273438 366.734375 1089.191406 369.65625 1092.902344 371.742188 C 1096.613281 373.839844 1100.785156 374.886719 1105.425781 374.886719 Z M 1105.425781 374.886719 "/>
</g>
</svg>
