<svg xmlns="http://www.w3.org/2000/svg" xmlns:xlink="http://www.w3.org/1999/xlink" width="2000" zoomAndPan="magnify" viewBox="0 0 1500 1499.999933" height="2000" preserveAspectRatio="xMidYMid meet" version="1.0"><defs><g/><clipPath id="4637b82cfe"><path d="M 191.03125 577 L 290 577 L 290 680 L 191.03125 680 Z M 191.03125 577 " clip-rule="nonzero"/></clipPath><clipPath id="9659ca16cd"><path d="M 553 882 L 636 882 L 636 961.5 L 553 961.5 Z M 553 882 " clip-rule="nonzero"/></clipPath><clipPath id="62ffb5f7de"><rect x="0" width="582" y="0" height="120"/></clipPath><clipPath id="876667455a"><rect x="0" width="1062" y="0" height="241"/></clipPath></defs><path fill="#ffca18" d="M 478.527344 889.453125 C 484.699219 897.875 490.597656 906.300781 496.492188 914.71875 C 497.335938 916.125 497.335938 917.808594 496.773438 919.214844 C 495.933594 920.621094 494.246094 921.179688 492.839844 921.179688 C 482.453125 920.058594 472.066406 918.652344 461.960938 917.53125 C 455.5 925.953125 449.324219 934.378906 443.152344 942.519531 C 442.03125 943.925781 440.625 944.484375 438.9375 943.925781 C 437.53125 943.644531 436.410156 942.519531 436.132812 940.835938 C 433.886719 930.730469 431.917969 920.625 429.671875 910.515625 C 419.84375 907.148438 410.019531 903.777344 400.195312 900.410156 C 398.789062 899.847656 397.667969 898.441406 397.667969 897.042969 C 397.390625 895.355469 398.230469 893.953125 399.636719 893.109375 C 408.621094 888.054688 417.601562 882.722656 426.589844 877.667969 C 426.871094 867.28125 427.148438 856.894531 427.148438 846.507812 C 427.148438 844.820312 427.992188 843.699219 429.675781 842.859375 C 431.082031 842.296875 432.765625 842.578125 433.890625 843.699219 C 441.46875 850.71875 449.050781 857.734375 456.910156 864.753906 C 466.738281 861.667969 476.84375 858.582031 486.671875 855.488281 C 488.078125 855.207031 489.757812 855.488281 490.882812 856.609375 C 491.726562 858.015625 492.003906 859.417969 491.445312 860.820312 C 487.226562 870.363281 483.015625 879.90625 478.527344 889.453125 Z M 478.527344 889.453125 " fill-opacity="1" fill-rule="evenodd"/><g clip-path="url(#4637b82cfe)"><path fill="#ffca18" d="M 251.960938 600.851562 C 244.660156 593.550781 237.640625 585.96875 230.347656 578.667969 C 229.226562 577.546875 227.539062 577.261719 226.132812 577.828125 C 224.449219 578.109375 223.605469 579.515625 223.605469 581.195312 C 222.765625 591.582031 221.921875 601.691406 221.082031 612.078125 C 211.8125 616.851562 202.550781 621.34375 193.285156 626.113281 C 191.878906 626.671875 191.039062 628.078125 191.039062 629.761719 C 191.039062 631.441406 192.160156 632.566406 193.566406 633.128906 C 203.113281 637.0625 212.65625 640.988281 222.480469 644.921875 C 223.886719 655.308594 225.289062 665.695312 226.976562 675.804688 C 227.253906 677.488281 228.09375 678.609375 229.78125 679.171875 C 231.1875 679.449219 232.867188 679.171875 233.996094 677.765625 C 240.453125 669.902344 247.1875 662.042969 253.929688 654.183594 C 264.316406 655.867188 274.421875 657.550781 284.808594 659.238281 C 286.214844 659.515625 287.898438 658.957031 288.742188 657.550781 C 289.589844 656.144531 289.582031 654.742188 288.742188 653.335938 C 283.410156 644.351562 277.792969 635.648438 272.460938 626.667969 C 277.234375 617.6875 282.007812 608.421875 286.78125 599.15625 C 287.621094 597.75 287.339844 596.066406 286.5 594.941406 C 285.378906 593.535156 283.972656 592.976562 282.289062 593.535156 C 272.175781 596.078125 262.070312 598.324219 251.960938 600.851562 Z M 251.960938 600.851562 " fill-opacity="1" fill-rule="evenodd"/></g><g clip-path="url(#9659ca16cd)"><path fill="#ffca18" d="M 607.667969 906.300781 L 596.71875 883.839844 C 596.160156 882.71875 595.03125 882.152344 593.632812 882.152344 C 592.511719 882.152344 591.386719 882.992188 590.824219 884.117188 L 581.277344 907.140625 L 556.570312 910.789062 C 555.164062 911.066406 554.324219 911.910156 553.765625 913.035156 C 553.484375 914.15625 553.765625 915.5625 554.882812 916.402344 L 573.972656 932.683594 L 569.480469 957.390625 C 569.480469 958.511719 569.761719 959.917969 570.886719 960.476562 C 572.007812 961.320312 573.414062 961.320312 574.253906 960.476562 L 595.867188 947.5625 L 618.050781 959.355469 C 619.171875 959.917969 620.296875 959.636719 621.417969 958.796875 C 622.257812 958.234375 622.824219 956.828125 622.539062 955.710938 L 616.644531 931.28125 L 634.609375 913.875 C 635.730469 913.035156 636.015625 911.628906 635.453125 910.507812 C 634.886719 909.386719 634.046875 908.542969 632.644531 908.261719 Z M 607.667969 906.300781 " fill-opacity="1" fill-rule="evenodd"/></g><path fill="#ffca18" d="M 258.980469 470.863281 L 279.195312 485.742188 C 280.035156 486.585938 280.601562 487.710938 280.316406 489.113281 C 280.035156 490.234375 279.195312 491.078125 277.789062 491.359375 L 253.363281 496.691406 L 245.222656 520.554688 C 244.941406 521.675781 243.816406 522.519531 242.695312 522.519531 C 241.289062 522.800781 240.167969 521.960938 239.609375 521.113281 L 226.976562 499.214844 L 201.988281 498.933594 C 200.582031 498.933594 199.460938 498.09375 198.898438 496.96875 C 198.621094 495.847656 198.621094 494.722656 199.460938 493.601562 L 216.308594 475.070312 L 209.007812 451.210938 C 208.445312 449.804688 208.726562 448.683594 209.847656 447.84375 C 210.6875 447 212.09375 446.722656 213.214844 447.28125 L 236.238281 457.390625 L 256.449219 443.070312 C 257.570312 442.230469 258.976562 442.230469 260.097656 442.789062 C 261.21875 443.347656 261.785156 444.476562 261.503906 445.875 Z M 258.980469 470.863281 " fill-opacity="1" fill-rule="evenodd"/><path fill="#ffca18" d="M 280.878906 815.054688 C 265.996094 809.160156 251.402344 803.261719 236.800781 797.367188 C 234.554688 796.527344 233.152344 794.5625 232.867188 792.035156 C 232.867188 789.507812 233.988281 787.542969 236.238281 786.421875 C 250.273438 779.121094 264.589844 772.101562 278.632812 765.085938 C 279.753906 749.082031 280.878906 733.363281 281.71875 717.640625 C 282 715.113281 283.40625 713.148438 285.652344 712.308594 C 287.898438 711.46875 290.425781 712.027344 292.109375 713.714844 C 303.339844 724.941406 314.289062 736.175781 325.519531 747.402344 C 340.960938 743.753906 356.121094 739.820312 371.5625 735.894531 C 373.808594 735.332031 376.335938 736.175781 377.734375 738.140625 C 379.140625 739.828125 379.421875 742.351562 378.296875 744.601562 C 371.277344 758.636719 363.976562 772.675781 356.679688 786.710938 C 365.101562 800.183594 373.527344 813.664062 381.949219 826.859375 C 383.355469 829.105469 383.070312 831.351562 381.949219 833.597656 C 380.542969 835.5625 378.300781 836.402344 375.773438 836.125 C 360.332031 833.597656 344.613281 831.070312 329.171875 828.542969 C 318.785156 840.617188 308.675781 852.6875 298.570312 864.757812 C 297.164062 866.726562 294.636719 867.566406 292.394531 866.726562 C 290.148438 866.164062 288.460938 864.480469 287.902344 861.953125 C 285.652344 846.21875 283.125 830.777344 280.878906 815.054688 Z M 280.878906 815.054688 " fill-opacity="1" fill-rule="evenodd"/><path fill="#ffffff" d="M 961.40625 228.863281 C 833.945312 101.40625 627.601562 101.40625 500.140625 228.863281 C 372.683594 356.324219 372.683594 562.949219 500.140625 690.40625 C 627.601562 817.867188 833.945312 817.867188 961.40625 690.40625 C 1088.863281 562.949219 1088.859375 356.320312 961.40625 228.863281 Z M 961.40625 228.863281 " fill-opacity="1" fill-rule="evenodd"/><path fill="#0033b6" d="M 971.230469 219.035156 C 838.4375 86.242188 623.109375 86.242188 490.320312 219.035156 C 357.246094 351.828125 357.246094 567.441406 490.320312 700.234375 C 623.113281 833.027344 838.441406 833.027344 971.230469 700.234375 C 1104.300781 567.441406 1104.300781 351.828125 971.230469 219.035156 Z M 958.878906 431.28125 C 957.757812 429.316406 955.230469 428.753906 953.265625 430.160156 C 951.296875 431.28125 951.015625 433.808594 952.144531 435.773438 C 952.144531 436.054688 985.550781 484.625 999.871094 539.085938 C 1000.433594 541.332031 1002.679688 542.734375 1004.925781 542.171875 C 1007.171875 541.332031 1008.574219 539.085938 1008.011719 537.121094 C 993.128906 481.25 959.160156 431.28125 958.878906 431.28125 Z M 968.421875 309.15625 C 966.453125 309.996094 965.613281 312.242188 966.453125 314.488281 C 967.292969 316.457031 969.820312 317.296875 971.789062 316.457031 L 1001.546875 303.261719 C 1001.828125 303.261719 1001.828125 302.980469 1002.109375 302.980469 C 1071.171875 422.859375 1054.605469 578.667969 952.136719 681.140625 C 892.902344 740.378906 815.976562 770.699219 738.214844 772.664062 L 737.933594 742.625 C 737.933594 740.378906 735.964844 738.410156 733.71875 738.410156 C 731.472656 738.410156 729.789062 740.378906 729.789062 742.625 L 730.066406 772.664062 C 650.054688 772.664062 570.324219 742.0625 509.402344 681.140625 C 406.929688 578.667969 390.367188 422.855469 459.433594 302.980469 L 483.292969 323.753906 C 484.980469 325.160156 487.507812 325.160156 488.910156 323.476562 C 490.59375 321.789062 490.3125 319.261719 488.628906 317.582031 L 464.484375 296.527344 C 464.207031 296.246094 463.925781 295.964844 463.925781 295.964844 C 476.277344 275.472656 491.441406 256.097656 509.40625 238.128906 C 631.53125 116.003906 830.015625 116.003906 952.144531 238.128906 C 970.109375 256.097656 985.269531 275.472656 997.90625 295.964844 Z M 511.089844 433.804688 C 512.210938 431.835938 511.648438 429.308594 509.683594 428.1875 C 507.996094 426.78125 505.191406 427.347656 504.070312 429.308594 C 504.070312 429.589844 455.78125 504.269531 448.199219 541.046875 C 447.917969 543.292969 449.320312 545.261719 451.566406 545.820312 C 453.8125 546.101562 456.0625 544.699219 456.339844 542.453125 C 463.367188 507.359375 510.808594 434.085938 511.089844 433.804688 Z M 635.460938 673.5625 C 637.707031 673.5625 639.675781 672.15625 639.953125 669.914062 C 640.234375 667.671875 638.546875 665.421875 636.304688 665.421875 C 636.027344 665.421875 547.308594 660.367188 510.253906 640.992188 C 508.285156 639.871094 505.761719 640.714844 504.640625 642.679688 C 503.796875 644.644531 504.359375 647.171875 506.324219 648.292969 C 544.777344 668.226562 635.179688 673.5625 635.460938 673.5625 Z M 612.160156 447.28125 C 612.160156 445.035156 610.195312 443.347656 607.945312 443.632812 C 605.699219 443.632812 604.015625 445.882812 604.015625 448.128906 C 604.015625 448.128906 609.066406 500.0625 664.65625 566.601562 C 666.0625 568.285156 668.589844 568.566406 670.269531 567.160156 C 671.957031 565.753906 672.238281 562.949219 670.832031 561.265625 C 617.214844 496.972656 612.160156 447.5625 612.160156 447.28125 Z M 670.269531 183.101562 C 672.238281 181.980469 673.078125 179.453125 671.957031 177.488281 C 670.835938 175.519531 668.308594 174.679688 666.34375 175.800781 C 666.0625 176.082031 590.539062 220.4375 569.203125 266.761719 C 568.363281 268.726562 569.203125 271.253906 571.171875 272.09375 C 573.136719 273.214844 575.664062 272.09375 576.785156 270.128906 C 596.71875 226.335938 669.992188 183.101562 670.269531 183.101562 Z M 787.34375 343.964844 C 789.589844 343.125 790.710938 340.878906 790.148438 338.632812 C 789.308594 336.664062 787.0625 335.265625 784.816406 336.105469 C 784.816406 336.105469 730.914062 353.792969 650.902344 341.71875 C 648.65625 341.4375 646.6875 342.839844 646.410156 345.085938 C 645.847656 347.332031 647.53125 349.296875 649.777344 349.859375 C 731.472656 362.21875 787.34375 343.964844 787.34375 343.964844 Z M 857.808594 258.339844 C 858.648438 260.304688 861.175781 261.425781 863.140625 260.585938 C 865.386719 259.746094 866.226562 257.21875 865.386719 255.253906 C 865.386719 254.972656 845.171875 206.683594 789.023438 173.554688 C 787.058594 172.433594 784.53125 172.996094 783.410156 174.960938 C 782.289062 176.925781 782.851562 179.453125 784.816406 180.574219 C 838.71875 212.296875 857.808594 258.058594 857.808594 258.339844 Z M 846.578125 452.617188 C 847.984375 450.929688 847.699219 448.402344 846.019531 447 C 844.332031 445.597656 841.527344 445.882812 840.125 447.5625 C 821.035156 471.703125 808.402344 493.324219 799.417969 512.976562 C 790.429688 532.910156 785.382812 551.160156 780.886719 568.566406 C 780.328125 570.535156 781.730469 572.78125 783.695312 573.339844 C 785.941406 573.902344 788.1875 572.78125 788.75 570.535156 C 793.242188 553.40625 798.296875 535.71875 806.996094 516.351562 C 815.417969 497.253906 827.769531 476.199219 846.578125 452.617188 Z M 960.277344 644.925781 C 961.964844 643.238281 961.964844 640.714844 960.277344 639.03125 C 958.59375 637.625 956.066406 637.625 954.386719 639.3125 C 954.386719 639.3125 911.710938 680.859375 826.925781 674.40625 C 824.679688 674.40625 822.710938 676.09375 822.433594 678.339844 C 822.433594 680.585938 824.117188 682.550781 826.363281 682.550781 C 914.800781 689.28125 960.277344 644.925781 960.277344 644.925781 Z M 960.277344 644.925781 " fill-opacity="1" fill-rule="evenodd"/><path fill="#0033b6" d="M 498.175781 670.753906 C 461.679688 630.605469 437.253906 583.722656 424.898438 534.03125 L 451.007812 539.648438 C 453.253906 540.207031 456.0625 542.734375 458.027344 546.386719 L 509.121094 637.910156 C 511.089844 641.558594 511.648438 645.210938 510.808594 647.175781 Z M 498.175781 670.753906 " fill-opacity="1" fill-rule="evenodd"/><path fill="#0033b6" d="M 956.632812 635.660156 L 1001.554688 541.890625 C 1003.519531 538.242188 1005.765625 535.714844 1008.011719 535.429688 L 1036.648438 531.78125 C 1024.855469 581.191406 1000.992188 628.359375 965.058594 668.503906 L 954.949219 645.480469 C 954.105469 643.238281 954.664062 639.59375 956.632812 635.660156 Z M 956.632812 635.660156 " fill-opacity="1" fill-rule="evenodd"/><path fill="#0033b6" d="M 780.042969 181.414062 L 675.882812 183.101562 C 671.671875 183.101562 668.023438 181.980469 666.617188 180.292969 L 645.285156 156.714844 C 697.21875 142.394531 751.96875 141.273438 804.183594 153.625 L 788.742188 178.332031 C 787.621094 180.015625 784.253906 181.136719 780.042969 181.414062 Z M 780.042969 181.414062 " fill-opacity="1" fill-rule="evenodd"/><path fill="#0033b6" d="M 965.613281 307.75 L 869.035156 254.96875 C 865.101562 252.722656 860.613281 253.28125 857.527344 256.652344 L 787.0625 333.296875 C 784.253906 336.382812 783.695312 341.15625 785.941406 345.089844 L 838.722656 445.597656 C 840.96875 449.527344 845.183594 451.769531 849.390625 451.210938 L 952.421875 436.328125 C 956.636719 435.769531 960.003906 432.398438 960.285156 427.910156 L 971.230469 318.417969 C 971.511719 314.207031 969.265625 309.996094 965.613281 307.75 Z M 965.613281 307.75 " fill-opacity="1" fill-rule="evenodd"/><path fill="#0033b6" d="M 779.203125 566.035156 L 672.515625 561.261719 C 668.023438 560.980469 664.097656 563.507812 662.96875 567.722656 L 634.617188 664.859375 C 633.496094 668.792969 635.175781 673 638.546875 675.808594 L 727.824219 740.378906 C 731.472656 743.183594 735.964844 743.183594 739.617188 740.9375 L 822.996094 683.667969 C 826.644531 681.421875 827.769531 676.929688 826.363281 672.71875 L 788.742188 572.773438 C 787.0625 568.84375 783.410156 566.035156 779.203125 566.035156 Z M 779.203125 566.035156 " fill-opacity="1" fill-rule="evenodd"/><path fill="#0033b6" d="M 649.496094 339.757812 L 579.03125 269.007812 C 576.222656 266.199219 572.011719 265.640625 568.644531 267.601562 L 487.789062 316.449219 C 484.421875 318.695312 482.734375 322.34375 483.574219 326.558594 L 504.070312 427.34375 C 504.910156 431.554688 508 434.363281 511.648438 434.925781 L 605.136719 448.398438 C 609.347656 448.957031 612.714844 446.992188 614.402344 443.066406 L 651.742188 350.417969 C 653.148438 346.777344 652.304688 342.5625 649.496094 339.757812 Z M 649.496094 339.757812 " fill-opacity="1" fill-rule="evenodd"/><path fill="#e6e6e6" d="M 903.289062 273.78125 C 899.078125 242.617188 890.65625 212.015625 877.742188 183.101562 C 904.410156 197.136719 929.679688 215.667969 952.136719 238.125 C 970.105469 256.09375 985.265625 275.464844 997.902344 295.960938 L 968.425781 309.15625 C 968.144531 309.15625 967.863281 309.15625 967.863281 309.433594 C 967.023438 308.875 966.457031 308.316406 965.617188 307.75 Z M 903.289062 273.78125 " fill-opacity="1" fill-rule="evenodd"/><path fill="#e6e6e6" d="M 960.277344 427.910156 L 971.226562 318.417969 C 971.226562 317.855469 971.226562 317.296875 971.226562 316.730469 C 971.507812 316.730469 971.507812 316.730469 971.789062 316.449219 L 1001.546875 303.257812 C 1001.828125 303.257812 1001.828125 302.976562 1002.109375 302.976562 C 1042.535156 372.878906 1053.484375 455.136719 1035.515625 532.0625 L 1008.003906 535.429688 C 1007.722656 535.429688 1007.722656 535.429688 1007.441406 535.429688 C 993.40625 482.933594 962.519531 436.324219 959.152344 431.554688 C 959.71875 430.433594 960.277344 429.316406 960.277344 427.910156 Z M 960.277344 427.910156 " fill-opacity="1" fill-rule="evenodd"/><path fill="#e6e6e6" d="M 880.269531 446.722656 L 952.417969 436.335938 C 952.417969 436.335938 952.417969 436.335938 952.699219 436.335938 C 956.632812 442.230469 986.667969 488.269531 999.863281 539.085938 C 1000.140625 540.207031 1000.984375 541.054688 1001.828125 541.613281 L 1001.546875 541.894531 L 956.628906 635.664062 C 956.066406 636.785156 955.785156 637.628906 955.507812 638.472656 C 955.226562 638.75 954.664062 639.03125 954.386719 639.3125 C 954.386719 639.3125 911.710938 680.859375 826.925781 674.40625 C 826.925781 674.40625 826.925781 674.40625 826.644531 674.40625 C 826.644531 673.847656 826.367188 673.285156 826.367188 672.71875 L 788.742188 572.773438 C 788.464844 572.496094 788.464844 572.214844 788.183594 571.933594 C 795.484375 565.761719 802.21875 559.582031 808.957031 552.847656 C 840.40625 521.398438 864.265625 485.183594 880.269531 446.722656 Z M 880.269531 446.722656 " fill-opacity="1" fill-rule="evenodd"/><path fill="#e6e6e6" d="M 739.613281 740.9375 L 822.992188 683.667969 C 823.554688 683.386719 824.398438 682.828125 824.679688 682.261719 C 825.238281 682.542969 825.800781 682.542969 826.367188 682.542969 C 899.640625 688.15625 943.4375 658.679688 956.351562 648.292969 L 964.773438 667.667969 C 960.558594 672.160156 956.632812 676.648438 952.136719 681.140625 C 892.902344 740.378906 815.976562 770.699219 738.214844 772.664062 L 737.933594 742.625 C 737.933594 742.34375 737.933594 742.0625 737.933594 741.785156 C 738.492188 741.5 739.054688 741.21875 739.613281 740.9375 Z M 739.613281 740.9375 " fill-opacity="1" fill-rule="evenodd"/><path fill="#e6e6e6" d="M 638.546875 675.808594 L 727.824219 740.378906 C 728.667969 740.9375 729.230469 741.21875 729.792969 741.5 C 729.792969 741.777344 729.792969 742.339844 729.792969 742.621094 L 730.074219 772.660156 C 650.0625 772.660156 570.332031 742.058594 509.40625 681.136719 C 505.761719 677.203125 502.109375 673.554688 498.738281 669.628906 L 509.40625 649.695312 C 549.273438 668.503906 635.179688 673.554688 635.460938 673.554688 C 635.742188 673.554688 636.023438 673.554688 636.300781 673.554688 C 636.863281 674.402344 637.707031 674.960938 638.546875 675.808594 Z M 638.546875 675.808594 " fill-opacity="1" fill-rule="evenodd"/><path fill="#e6e6e6" d="M 634.617188 665.140625 C 623.386719 664.578125 558.8125 659.804688 521.476562 645.765625 C 561.058594 652.226562 601.488281 651.378906 641.074219 643.238281 L 634.617188 664.855469 Z M 634.617188 665.140625 " fill-opacity="1" fill-rule="evenodd"/><path fill="#ffca18" d="M 1130.132812 5.671875 L 949.613281 171.867188 C 928.835938 158.394531 907.503906 146.882812 885.601562 137.621094 Z M 1130.132812 5.671875 " fill-opacity="1" fill-rule="evenodd"/><path fill="#ffca18" d="M 1306.4375 0.0546875 L 987.792969 203.871094 C 991.441406 207.519531 995.09375 211.171875 998.742188 214.820312 C 1009.96875 226.613281 1031.308594 255.808594 1040.570312 268.441406 Z M 1306.4375 0.0546875 " fill-opacity="1" fill-rule="evenodd"/><path fill="#ffca18" d="M 1308.964844 149.414062 L 1057.699219 300.171875 C 1073.417969 329.648438 1079.597656 352.109375 1086.050781 384.117188 Z M 1308.964844 149.414062 " fill-opacity="1" fill-rule="evenodd"/><path fill="#ffca18" d="M 1091.105469 420.609375 L 1300.261719 339.191406 L 1089.425781 493.878906 C 1092.511719 470.023438 1093.074219 445.316406 1091.105469 420.609375 Z M 1091.105469 420.609375 " fill-opacity="1" fill-rule="evenodd"/><path fill="#ffca18" d="M 423.496094 257.21875 C 373.242188 319.542969 342.925781 398.714844 342.925781 485.183594 C 342.925781 685.355469 505.195312 847.625 705.363281 847.625 C 791.554688 847.625 871.007812 817.300781 933.050781 766.765625 C 790.429688 861.097656 596.4375 845.375 470.664062 719.601562 C 345.171875 594.109375 329.445312 400.113281 423.496094 257.21875 Z M 423.496094 257.21875 " fill-opacity="1" fill-rule="evenodd"/><g transform="matrix(1, 0, 0, 1, 464, 1188)"><g clip-path="url(#62ffb5f7de)"><g fill="#ffffff" fill-opacity="1"><g transform="translate(1.962604, 92.84786)"><g><path d="M 20.984375 -32.875 L 25.3125 -32.875 C 29.351562 -32.875 32.378906 -33.671875 34.390625 -35.265625 C 36.398438 -36.867188 37.40625 -39.195312 37.40625 -42.25 C 37.40625 -45.332031 36.5625 -47.609375 34.875 -49.078125 C 33.195312 -50.554688 30.5625 -51.296875 26.96875 -51.296875 L 20.984375 -51.296875 Z M 50.703125 -42.71875 C 50.703125 -36.039062 48.613281 -30.929688 44.4375 -27.390625 C 40.257812 -23.847656 34.320312 -22.078125 26.625 -22.078125 L 20.984375 -22.078125 L 20.984375 0 L 7.8125 0 L 7.8125 -62.078125 L 27.640625 -62.078125 C 35.171875 -62.078125 40.894531 -60.457031 44.8125 -57.21875 C 48.738281 -53.976562 50.703125 -49.144531 50.703125 -42.71875 Z M 50.703125 -42.71875 "/></g></g></g><g fill="#ffffff" fill-opacity="1"><g transform="translate(67.525305, 92.84786)"><g><path d="M 20.984375 -34.53125 L 25.21875 -34.53125 C 29.382812 -34.53125 32.457031 -35.222656 34.4375 -36.609375 C 36.414062 -37.992188 37.40625 -40.171875 37.40625 -43.140625 C 37.40625 -46.085938 36.394531 -48.179688 34.375 -49.421875 C 32.351562 -50.671875 29.21875 -51.296875 24.96875 -51.296875 L 20.984375 -51.296875 Z M 20.984375 -23.828125 L 20.984375 0 L 7.8125 0 L 7.8125 -62.078125 L 25.90625 -62.078125 C 34.34375 -62.078125 40.582031 -60.539062 44.625 -57.46875 C 48.675781 -54.40625 50.703125 -49.742188 50.703125 -43.484375 C 50.703125 -39.828125 49.695312 -36.578125 47.6875 -33.734375 C 45.675781 -30.890625 42.832031 -28.660156 39.15625 -27.046875 C 48.5 -13.085938 54.582031 -4.070312 57.40625 0 L 42.8125 0 L 27.984375 -23.828125 Z M 20.984375 -23.828125 "/></g></g></g><g fill="#ffffff" fill-opacity="1"><g transform="translate(135.890367, 92.84786)"><g><path d="M 64.171875 -31.125 C 64.171875 -20.851562 61.617188 -12.957031 56.515625 -7.4375 C 51.421875 -1.914062 44.117188 0.84375 34.609375 0.84375 C 25.097656 0.84375 17.789062 -1.914062 12.6875 -7.4375 C 7.59375 -12.957031 5.046875 -20.882812 5.046875 -31.21875 C 5.046875 -41.550781 7.601562 -49.441406 12.71875 -54.890625 C 17.832031 -60.335938 25.15625 -63.0625 34.6875 -63.0625 C 44.226562 -63.0625 51.523438 -60.3125 56.578125 -54.8125 C 61.640625 -49.320312 64.171875 -41.425781 64.171875 -31.125 Z M 18.859375 -31.125 C 18.859375 -24.1875 20.171875 -18.960938 22.796875 -15.453125 C 25.429688 -11.941406 29.367188 -10.1875 34.609375 -10.1875 C 45.109375 -10.1875 50.359375 -17.164062 50.359375 -31.125 C 50.359375 -45.113281 45.132812 -52.109375 34.6875 -52.109375 C 29.457031 -52.109375 25.507812 -50.34375 22.84375 -46.8125 C 20.1875 -43.289062 18.859375 -38.0625 18.859375 -31.125 Z M 18.859375 -31.125 "/></g></g></g><g fill="#ffffff" fill-opacity="1"><g transform="translate(216.05931, 92.84786)"><g/></g></g><g fill="#ffffff" fill-opacity="1"><g transform="translate(249.607169, 92.84786)"><g><path d="M 34.1875 -52.015625 C 29.226562 -52.015625 25.390625 -50.148438 22.671875 -46.421875 C 19.953125 -42.703125 18.59375 -37.519531 18.59375 -30.875 C 18.59375 -17.03125 23.789062 -10.109375 34.1875 -10.109375 C 38.539062 -10.109375 43.820312 -11.195312 50.03125 -13.375 L 50.03125 -2.328125 C 44.925781 -0.210938 39.234375 0.84375 32.953125 0.84375 C 23.921875 0.84375 17.007812 -1.890625 12.21875 -7.359375 C 7.4375 -12.835938 5.046875 -20.703125 5.046875 -30.953125 C 5.046875 -37.410156 6.222656 -43.066406 8.578125 -47.921875 C 10.929688 -52.773438 14.304688 -56.492188 18.703125 -59.078125 C 23.109375 -61.671875 28.269531 -62.96875 34.1875 -62.96875 C 40.21875 -62.96875 46.273438 -61.515625 52.359375 -58.609375 L 48.109375 -47.90625 C 45.785156 -49.007812 43.445312 -49.96875 41.09375 -50.78125 C 38.75 -51.601562 36.445312 -52.015625 34.1875 -52.015625 Z M 34.1875 -52.015625 "/></g></g></g><g fill="#ffffff" fill-opacity="1"><g transform="translate(315.976637, 92.84786)"><g><path d="M 7.8125 0 L 7.8125 -62.078125 L 20.984375 -62.078125 L 20.984375 -10.875 L 46.15625 -10.875 L 46.15625 0 Z M 7.8125 0 "/></g></g></g><g fill="#ffffff" fill-opacity="1"><g transform="translate(376.06199, 92.84786)"><g><path d="M 58.34375 -62.078125 L 58.34375 -21.90625 C 58.34375 -17.320312 57.316406 -13.300781 55.265625 -9.84375 C 53.210938 -6.394531 50.242188 -3.75 46.359375 -1.90625 C 42.484375 -0.0703125 37.898438 0.84375 32.609375 0.84375 C 24.628906 0.84375 18.429688 -1.195312 14.015625 -5.28125 C 9.597656 -9.375 7.390625 -14.972656 7.390625 -22.078125 L 7.390625 -62.078125 L 20.515625 -62.078125 L 20.515625 -24.078125 C 20.515625 -19.296875 21.472656 -15.785156 23.390625 -13.546875 C 25.316406 -11.304688 28.503906 -10.1875 32.953125 -10.1875 C 37.253906 -10.1875 40.375 -11.3125 42.3125 -13.5625 C 44.25 -15.8125 45.21875 -19.34375 45.21875 -24.15625 L 45.21875 -62.078125 Z M 58.34375 -62.078125 "/></g></g></g><g fill="#ffffff" fill-opacity="1"><g transform="translate(452.749196, 92.84786)"><g><path d="M 7.8125 -62.078125 L 27.140625 -62.078125 C 35.941406 -62.078125 42.332031 -60.820312 46.3125 -58.3125 C 50.289062 -55.8125 52.28125 -51.832031 52.28125 -46.375 C 52.28125 -42.664062 51.40625 -39.617188 49.65625 -37.234375 C 47.914062 -34.859375 45.601562 -33.429688 42.71875 -32.953125 L 42.71875 -32.53125 C 46.65625 -31.65625 49.492188 -30.015625 51.234375 -27.609375 C 52.972656 -25.203125 53.84375 -22 53.84375 -18 C 53.84375 -12.34375 51.796875 -7.925781 47.703125 -4.75 C 43.617188 -1.582031 38.066406 0 31.046875 0 L 7.8125 0 Z M 20.984375 -37.5 L 28.625 -37.5 C 32.1875 -37.5 34.765625 -38.050781 36.359375 -39.15625 C 37.960938 -40.257812 38.765625 -42.082031 38.765625 -44.625 C 38.765625 -47.007812 37.894531 -48.71875 36.15625 -49.75 C 34.414062 -50.78125 31.664062 -51.296875 27.90625 -51.296875 L 20.984375 -51.296875 Z M 20.984375 -27.046875 L 20.984375 -10.875 L 29.5625 -10.875 C 33.175781 -10.875 35.847656 -11.566406 37.578125 -12.953125 C 39.304688 -14.335938 40.171875 -16.460938 40.171875 -19.328125 C 40.171875 -24.472656 36.488281 -27.046875 29.125 -27.046875 Z M 20.984375 -27.046875 "/></g></g></g><g fill="#ffffff" fill-opacity="1"><g transform="translate(522.133314, 92.84786)"><g><path d="M 44.46875 -17.234375 C 44.46875 -11.628906 42.445312 -7.210938 38.40625 -3.984375 C 34.375 -0.765625 28.765625 0.84375 21.578125 0.84375 C 14.953125 0.84375 9.085938 -0.398438 3.984375 -2.890625 L 3.984375 -15.125 C 8.179688 -13.25 11.726562 -11.925781 14.625 -11.15625 C 17.53125 -10.394531 20.1875 -10.015625 22.59375 -10.015625 C 25.476562 -10.015625 27.691406 -10.566406 29.234375 -11.671875 C 30.773438 -12.773438 31.546875 -14.421875 31.546875 -16.609375 C 31.546875 -17.828125 31.207031 -18.910156 30.53125 -19.859375 C 29.851562 -20.804688 28.851562 -21.71875 27.53125 -22.59375 C 26.21875 -23.46875 23.535156 -24.867188 19.484375 -26.796875 C 15.691406 -28.578125 12.847656 -30.285156 10.953125 -31.921875 C 9.054688 -33.566406 7.539062 -35.476562 6.40625 -37.65625 C 5.28125 -39.84375 4.71875 -42.394531 4.71875 -45.3125 C 4.71875 -50.800781 6.578125 -55.113281 10.296875 -58.25 C 14.015625 -61.394531 19.160156 -62.96875 25.734375 -62.96875 C 28.960938 -62.96875 32.039062 -62.585938 34.96875 -61.828125 C 37.894531 -61.066406 40.957031 -59.992188 44.15625 -58.609375 L 39.921875 -48.375 C 36.609375 -49.726562 33.867188 -50.671875 31.703125 -51.203125 C 29.535156 -51.742188 27.40625 -52.015625 25.3125 -52.015625 C 22.820312 -52.015625 20.910156 -51.429688 19.578125 -50.265625 C 18.242188 -49.109375 17.578125 -47.597656 17.578125 -45.734375 C 17.578125 -44.578125 17.84375 -43.566406 18.375 -42.703125 C 18.914062 -41.835938 19.773438 -41 20.953125 -40.1875 C 22.128906 -39.382812 24.910156 -37.9375 29.296875 -35.84375 C 35.097656 -33.0625 39.078125 -30.273438 41.234375 -27.484375 C 43.390625 -24.703125 44.46875 -21.285156 44.46875 -17.234375 Z M 44.46875 -17.234375 "/></g></g></g></g></g><g transform="matrix(1, 0, 0, 1, 217, 958)"><g clip-path="url(#876667455a)"><g fill="#0033b6" fill-opacity="1"><g transform="translate(1.197767, 190.325796)"><g><path d="M 141.546875 0 L 141.34375 -82.5625 L 100.859375 -14.546875 L 86.5 -14.546875 L 46.203125 -80.796875 L 46.203125 0 L 16.3125 0 L 16.3125 -137.609375 L 42.65625 -137.609375 L 94.171875 -52.09375 L 144.890625 -137.609375 L 171.03125 -137.609375 L 171.4375 0 Z M 141.546875 0 "/></g></g></g><g fill="#0033b6" fill-opacity="1"><g transform="translate(185.014914, 190.325796)"><g><path d="M 122.875 -25.5625 L 122.875 0 L 16.3125 0 L 16.3125 -137.609375 L 120.3125 -137.609375 L 120.3125 -112.0625 L 47.96875 -112.0625 L 47.96875 -82.171875 L 111.859375 -82.171875 L 111.859375 -57.40625 L 47.96875 -57.40625 L 47.96875 -25.5625 Z M 122.875 -25.5625 "/></g></g></g><g fill="#0033b6" fill-opacity="1"><g transform="translate(312.998842, 190.325796)"><g><path d="M 104 0 L 77.453125 -38.328125 L 48.171875 -38.328125 L 48.171875 0 L 16.3125 0 L 16.3125 -137.609375 L 75.890625 -137.609375 C 88.078125 -137.609375 98.660156 -135.578125 107.640625 -131.515625 C 116.617188 -127.453125 123.53125 -121.6875 128.375 -114.21875 C 133.226562 -106.75 135.65625 -97.90625 135.65625 -87.6875 C 135.65625 -77.457031 133.195312 -68.640625 128.28125 -61.234375 C 123.363281 -53.828125 116.382812 -48.160156 107.34375 -44.234375 L 138.203125 0 Z M 103.40625 -87.6875 C 103.40625 -95.414062 100.914062 -101.34375 95.9375 -105.46875 C 90.957031 -109.601562 83.679688 -111.671875 74.109375 -111.671875 L 48.171875 -111.671875 L 48.171875 -63.703125 L 74.109375 -63.703125 C 83.679688 -63.703125 90.957031 -65.796875 95.9375 -69.984375 C 100.914062 -74.179688 103.40625 -80.082031 103.40625 -87.6875 Z M 103.40625 -87.6875 "/></g></g></g><g fill="#0033b6" fill-opacity="1"><g transform="translate(453.564882, 190.325796)"><g><path d="M 82.171875 2.359375 C 68.148438 2.359375 55.46875 -0.6875 44.125 -6.78125 C 32.789062 -12.875 23.878906 -21.328125 17.390625 -32.140625 C 10.910156 -42.953125 7.671875 -55.175781 7.671875 -68.8125 C 7.671875 -82.4375 10.910156 -94.65625 17.390625 -105.46875 C 23.878906 -116.28125 32.789062 -124.734375 44.125 -130.828125 C 55.46875 -136.921875 68.21875 -139.96875 82.375 -139.96875 C 94.300781 -139.96875 105.078125 -137.867188 114.703125 -133.671875 C 124.335938 -129.484375 132.429688 -123.457031 138.984375 -115.59375 L 118.546875 -96.71875 C 109.242188 -107.46875 97.710938 -112.84375 83.953125 -112.84375 C 75.429688 -112.84375 67.828125 -110.972656 61.140625 -107.234375 C 54.453125 -103.503906 49.238281 -98.296875 45.5 -91.609375 C 41.769531 -84.929688 39.90625 -77.332031 39.90625 -68.8125 C 39.90625 -60.289062 41.769531 -52.6875 45.5 -46 C 49.238281 -39.320312 54.453125 -34.113281 61.140625 -30.375 C 67.828125 -26.632812 75.429688 -24.765625 83.953125 -24.765625 C 97.710938 -24.765625 109.242188 -30.207031 118.546875 -41.09375 L 138.984375 -22.21875 C 132.429688 -14.21875 124.304688 -8.117188 114.609375 -3.921875 C 104.910156 0.261719 94.097656 2.359375 82.171875 2.359375 Z M 82.171875 2.359375 "/></g></g></g><g fill="#0033b6" fill-opacity="1"><g transform="translate(593.737749, 190.325796)"><g><path d="M 106.953125 -29.484375 L 43.046875 -29.484375 L 30.859375 0 L -1.765625 0 L 59.5625 -137.609375 L 91.015625 -137.609375 L 152.5625 0 L 119.140625 0 Z M 96.921875 -53.671875 L 75.09375 -106.359375 L 53.28125 -53.671875 Z M 96.921875 -53.671875 "/></g></g></g><g fill="#0033b6" fill-opacity="1"><g transform="translate(740.398237, 190.325796)"><g><path d="M 16.3125 -137.609375 L 78.828125 -137.609375 C 93.773438 -137.609375 106.984375 -134.757812 118.453125 -129.0625 C 129.921875 -123.363281 138.832031 -115.335938 145.1875 -104.984375 C 151.539062 -94.628906 154.71875 -82.570312 154.71875 -68.8125 C 154.71875 -55.050781 151.539062 -42.992188 145.1875 -32.640625 C 138.832031 -22.285156 129.921875 -14.253906 118.453125 -8.546875 C 106.984375 -2.847656 93.773438 0 78.828125 0 L 16.3125 0 Z M 77.265625 -26.140625 C 91.023438 -26.140625 102 -29.972656 110.1875 -37.640625 C 118.382812 -45.316406 122.484375 -55.707031 122.484375 -68.8125 C 122.484375 -81.914062 118.382812 -92.300781 110.1875 -99.96875 C 102 -107.632812 91.023438 -111.46875 77.265625 -111.46875 L 48.171875 -111.46875 L 48.171875 -26.140625 Z M 77.265625 -26.140625 "/></g></g></g><g fill="#0033b6" fill-opacity="1"><g transform="translate(898.854564, 190.325796)"><g><path d="M 82.96875 2.359375 C 68.675781 2.359375 55.796875 -0.71875 44.328125 -6.875 C 32.859375 -13.039062 23.878906 -21.53125 17.390625 -32.34375 C 10.910156 -43.15625 7.671875 -55.3125 7.671875 -68.8125 C 7.671875 -82.3125 10.910156 -94.46875 17.390625 -105.28125 C 23.878906 -116.09375 32.859375 -124.578125 44.328125 -130.734375 C 55.796875 -136.890625 68.675781 -139.96875 82.96875 -139.96875 C 97.25 -139.96875 110.085938 -136.890625 121.484375 -130.734375 C 132.890625 -124.578125 141.867188 -116.09375 148.421875 -105.28125 C 154.984375 -94.46875 158.265625 -82.3125 158.265625 -68.8125 C 158.265625 -55.3125 154.984375 -43.15625 148.421875 -32.34375 C 141.867188 -21.53125 132.890625 -13.039062 121.484375 -6.875 C 110.085938 -0.71875 97.25 2.359375 82.96875 2.359375 Z M 82.96875 -24.765625 C 91.09375 -24.765625 98.429688 -26.632812 104.984375 -30.375 C 111.535156 -34.113281 116.675781 -39.320312 120.40625 -46 C 124.144531 -52.6875 126.015625 -60.289062 126.015625 -68.8125 C 126.015625 -77.332031 124.144531 -84.929688 120.40625 -91.609375 C 116.675781 -98.296875 111.535156 -103.503906 104.984375 -107.234375 C 98.429688 -110.972656 91.09375 -112.84375 82.96875 -112.84375 C 74.84375 -112.84375 67.5 -110.972656 60.9375 -107.234375 C 54.382812 -103.503906 49.238281 -98.296875 45.5 -91.609375 C 41.769531 -84.929688 39.90625 -77.332031 39.90625 -68.8125 C 39.90625 -60.289062 41.769531 -52.6875 45.5 -46 C 49.238281 -39.320312 54.382812 -34.113281 60.9375 -30.375 C 67.5 -26.632812 74.84375 -24.765625 82.96875 -24.765625 Z M 82.96875 -24.765625 "/></g></g></g></g></g></svg>