<svg xmlns="http://www.w3.org/2000/svg" xmlns:xlink="http://www.w3.org/1999/xlink" width="700" zoomAndPan="magnify" viewBox="0 0 525 374.999991" height="500" preserveAspectRatio="xMidYMid meet" version="1.0"><defs><g/><clipPath id="55464485c4"><path d="M 17.171875 198 L 37 198 L 37 219 L 17.171875 219 Z M 17.171875 198 " clip-rule="nonzero"/></clipPath><clipPath id="077ed11234"><path d="M 88 258 L 106 258 L 106 273.925781 L 88 273.925781 Z M 88 258 " clip-rule="nonzero"/></clipPath><clipPath id="53770ac37b"><path d="M 174 84.175781 L 237.671875 84.175781 L 237.671875 138 L 174 138 Z M 174 84.175781 " clip-rule="nonzero"/></clipPath><clipPath id="666e476a23"><path d="M 188 113 L 237.671875 113 L 237.671875 161 L 188 161 Z M 188 113 " clip-rule="nonzero"/></clipPath><clipPath id="3e9980de9f"><rect x="0" width="235" y="0" height="55"/></clipPath></defs><path fill="#00bf63" d="M 73.957031 259.855469 C 75.175781 261.515625 76.339844 263.179688 77.503906 264.84375 C 77.671875 265.121094 77.671875 265.453125 77.558594 265.730469 C 77.394531 266.011719 77.0625 266.121094 76.78125 266.121094 C 74.730469 265.898438 72.679688 265.621094 70.683594 265.398438 C 69.40625 267.0625 68.1875 268.726562 66.96875 270.335938 C 66.746094 270.613281 66.46875 270.722656 66.136719 270.613281 C 65.859375 270.558594 65.636719 270.335938 65.582031 270.003906 C 65.136719 268.007812 64.75 266.011719 64.304688 264.015625 C 62.367188 263.347656 60.425781 262.683594 58.484375 262.019531 C 58.207031 261.90625 57.984375 261.628906 57.984375 261.351562 C 57.929688 261.019531 58.097656 260.742188 58.375 260.578125 C 60.148438 259.578125 61.921875 258.523438 63.699219 257.527344 C 63.753906 255.476562 63.808594 253.421875 63.808594 251.371094 C 63.808594 251.039062 63.972656 250.816406 64.308594 250.652344 C 64.585938 250.539062 64.917969 250.597656 65.140625 250.816406 C 66.636719 252.203125 68.132812 253.589844 69.6875 254.976562 C 71.628906 254.367188 73.625 253.757812 75.5625 253.144531 C 75.84375 253.089844 76.175781 253.144531 76.394531 253.367188 C 76.5625 253.644531 76.617188 253.921875 76.507812 254.199219 C 75.675781 256.082031 74.84375 257.96875 73.957031 259.855469 Z M 73.957031 259.855469 " fill-opacity="1" fill-rule="evenodd"/><g clip-path="url(#55464485c4)"><path fill="#00bf63" d="M 29.207031 202.851562 C 27.765625 201.410156 26.378906 199.914062 24.9375 198.472656 C 24.714844 198.25 24.382812 198.191406 24.105469 198.304688 C 23.773438 198.359375 23.605469 198.636719 23.605469 198.96875 C 23.441406 201.023438 23.273438 203.019531 23.105469 205.070312 C 21.277344 206.011719 19.449219 206.898438 17.617188 207.839844 C 17.339844 207.953125 17.171875 208.230469 17.171875 208.5625 C 17.171875 208.894531 17.394531 209.117188 17.671875 209.226562 C 19.558594 210.003906 21.441406 210.78125 23.382812 211.554688 C 23.660156 213.609375 23.9375 215.660156 24.269531 217.65625 C 24.328125 217.988281 24.492188 218.210938 24.824219 218.320312 C 25.101562 218.375 25.433594 218.320312 25.65625 218.042969 C 26.933594 216.492188 28.265625 214.9375 29.59375 213.386719 C 31.648438 213.71875 33.644531 214.050781 35.695312 214.382812 C 35.972656 214.4375 36.304688 214.328125 36.472656 214.050781 C 36.636719 213.773438 36.636719 213.496094 36.472656 213.21875 C 35.417969 211.445312 34.308594 209.726562 33.253906 207.953125 C 34.199219 206.175781 35.140625 204.347656 36.082031 202.515625 C 36.25 202.238281 36.195312 201.90625 36.027344 201.683594 C 35.808594 201.40625 35.53125 201.296875 35.195312 201.40625 C 33.199219 201.910156 31.203125 202.351562 29.207031 202.851562 Z M 29.207031 202.851562 " fill-opacity="1" fill-rule="evenodd"/></g><g clip-path="url(#077ed11234)"><path fill="#00bf63" d="M 99.460938 263.179688 L 97.300781 258.746094 C 97.1875 258.523438 96.96875 258.414062 96.691406 258.414062 C 96.46875 258.414062 96.246094 258.578125 96.136719 258.800781 L 94.25 263.347656 L 89.371094 264.066406 C 89.09375 264.125 88.925781 264.289062 88.816406 264.511719 C 88.761719 264.734375 88.816406 265.011719 89.039062 265.175781 L 92.808594 268.394531 L 91.921875 273.273438 C 91.921875 273.492188 91.976562 273.773438 92.199219 273.882812 C 92.417969 274.046875 92.695312 274.046875 92.863281 273.882812 L 97.132812 271.332031 L 101.511719 273.660156 C 101.734375 273.773438 101.957031 273.714844 102.179688 273.550781 C 102.34375 273.441406 102.457031 273.160156 102.398438 272.941406 L 101.234375 268.117188 L 104.785156 264.679688 C 105.003906 264.511719 105.0625 264.234375 104.949219 264.011719 C 104.839844 263.792969 104.671875 263.625 104.394531 263.570312 Z M 99.460938 263.179688 " fill-opacity="1" fill-rule="evenodd"/></g><path fill="#00bf63" d="M 30.59375 177.179688 L 34.585938 180.117188 C 34.75 180.28125 34.863281 180.503906 34.808594 180.78125 C 34.75 181.003906 34.585938 181.171875 34.308594 181.226562 L 29.484375 182.28125 L 27.875 186.992188 C 27.820312 187.214844 27.597656 187.378906 27.375 187.378906 C 27.097656 187.4375 26.878906 187.269531 26.765625 187.101562 L 24.269531 182.777344 L 19.335938 182.722656 C 19.058594 182.722656 18.835938 182.554688 18.726562 182.332031 C 18.671875 182.113281 18.671875 181.890625 18.835938 181.667969 L 22.164062 178.007812 L 20.722656 173.296875 C 20.613281 173.019531 20.667969 172.796875 20.886719 172.632812 C 21.054688 172.464844 21.332031 172.410156 21.554688 172.519531 L 26.101562 174.515625 L 30.09375 171.6875 C 30.316406 171.523438 30.59375 171.523438 30.8125 171.632812 C 31.035156 171.742188 31.148438 171.964844 31.089844 172.242188 Z M 30.59375 177.179688 " fill-opacity="1" fill-rule="evenodd"/><path fill="#00bf63" d="M 34.917969 245.160156 C 31.980469 243.996094 29.097656 242.832031 26.210938 241.667969 C 25.769531 241.5 25.492188 241.113281 25.433594 240.613281 C 25.433594 240.113281 25.65625 239.726562 26.101562 239.503906 C 28.871094 238.0625 31.699219 236.675781 34.472656 235.289062 C 34.695312 232.128906 34.917969 229.023438 35.082031 225.917969 C 35.140625 225.421875 35.417969 225.03125 35.859375 224.867188 C 36.304688 224.699219 36.804688 224.8125 37.136719 225.144531 C 39.355469 227.359375 41.515625 229.578125 43.734375 231.796875 C 46.785156 231.078125 49.777344 230.300781 52.828125 229.523438 C 53.273438 229.414062 53.773438 229.578125 54.046875 229.96875 C 54.324219 230.300781 54.382812 230.800781 54.160156 231.242188 C 52.773438 234.015625 51.332031 236.789062 49.890625 239.5625 C 51.554688 242.222656 53.21875 244.886719 54.878906 247.492188 C 55.15625 247.933594 55.101562 248.378906 54.878906 248.820312 C 54.601562 249.210938 54.160156 249.375 53.660156 249.320312 C 50.609375 248.820312 47.507812 248.324219 44.457031 247.824219 C 42.40625 250.207031 40.410156 252.59375 38.414062 254.976562 C 38.132812 255.363281 37.636719 255.53125 37.191406 255.363281 C 36.75 255.253906 36.414062 254.921875 36.304688 254.421875 C 35.859375 251.316406 35.363281 248.265625 34.917969 245.160156 Z M 34.917969 245.160156 " fill-opacity="1" fill-rule="evenodd"/><path fill="#ffffff" d="M 169.328125 129.378906 C 144.15625 104.207031 103.398438 104.207031 78.226562 129.378906 C 53.050781 154.554688 53.050781 195.367188 78.226562 220.539062 C 103.398438 245.714844 144.15625 245.714844 169.328125 220.539062 C 194.503906 195.367188 194.503906 154.554688 169.328125 129.378906 Z M 169.328125 129.378906 " fill-opacity="1" fill-rule="evenodd"/><path fill="#0033b6" d="M 171.269531 127.4375 C 145.042969 101.210938 102.511719 101.210938 76.285156 127.4375 C 50 153.667969 50 196.253906 76.285156 222.480469 C 102.511719 248.710938 145.042969 248.710938 171.269531 222.480469 C 197.554688 196.253906 197.554688 153.667969 171.269531 127.4375 Z M 168.832031 169.359375 C 168.609375 168.972656 168.109375 168.859375 167.722656 169.136719 C 167.332031 169.359375 167.277344 169.859375 167.5 170.246094 C 167.5 170.300781 174.097656 179.894531 176.925781 190.652344 C 177.039062 191.097656 177.480469 191.375 177.925781 191.261719 C 178.371094 191.097656 178.644531 190.652344 178.535156 190.265625 C 175.59375 179.230469 168.886719 169.359375 168.832031 169.359375 Z M 170.714844 145.238281 C 170.328125 145.40625 170.160156 145.847656 170.328125 146.292969 C 170.492188 146.679688 170.992188 146.847656 171.378906 146.679688 L 177.257812 144.074219 C 177.3125 144.074219 177.3125 144.019531 177.371094 144.019531 C 191.011719 167.695312 187.738281 198.472656 167.5 218.710938 C 155.800781 230.410156 140.605469 236.398438 125.246094 236.789062 L 125.191406 230.855469 C 125.191406 230.410156 124.804688 230.023438 124.359375 230.023438 C 123.914062 230.023438 123.582031 230.410156 123.582031 230.855469 L 123.636719 236.789062 C 107.835938 236.789062 92.085938 230.742188 80.054688 218.710938 C 59.816406 198.472656 56.542969 167.695312 70.183594 144.019531 L 74.898438 148.121094 C 75.230469 148.398438 75.730469 148.398438 76.007812 148.066406 C 76.339844 147.734375 76.285156 147.234375 75.949219 146.902344 L 71.183594 142.746094 C 71.128906 142.6875 71.070312 142.632812 71.070312 142.632812 C 73.511719 138.585938 76.507812 134.757812 80.054688 131.210938 C 104.175781 107.089844 143.378906 107.089844 167.5 131.210938 C 171.050781 134.757812 174.042969 138.585938 176.539062 142.632812 Z M 80.386719 169.859375 C 80.609375 169.46875 80.496094 168.96875 80.109375 168.75 C 79.777344 168.472656 79.222656 168.582031 79 168.96875 C 79 169.027344 69.464844 183.777344 67.964844 191.039062 C 67.910156 191.484375 68.1875 191.871094 68.632812 191.984375 C 69.074219 192.039062 69.519531 191.761719 69.574219 191.316406 C 70.960938 184.386719 80.332031 169.914062 80.386719 169.859375 Z M 104.953125 217.214844 C 105.394531 217.214844 105.785156 216.933594 105.839844 216.492188 C 105.894531 216.050781 105.5625 215.605469 105.117188 215.605469 C 105.0625 215.605469 87.542969 214.605469 80.222656 210.78125 C 79.832031 210.558594 79.335938 210.726562 79.113281 211.113281 C 78.945312 211.5 79.058594 212 79.445312 212.222656 C 87.042969 216.160156 104.898438 217.214844 104.953125 217.214844 Z M 100.351562 172.519531 C 100.351562 172.078125 99.960938 171.742188 99.519531 171.800781 C 99.074219 171.800781 98.742188 172.242188 98.742188 172.6875 C 98.742188 172.6875 99.738281 182.945312 110.71875 196.085938 C 110.996094 196.421875 111.496094 196.476562 111.828125 196.199219 C 112.160156 195.921875 112.214844 195.367188 111.9375 195.035156 C 101.347656 182.335938 100.351562 172.574219 100.351562 172.519531 Z M 111.828125 120.339844 C 112.214844 120.121094 112.382812 119.621094 112.160156 119.234375 C 111.9375 118.84375 111.441406 118.679688 111.050781 118.898438 C 110.996094 118.957031 96.078125 127.714844 91.867188 136.867188 C 91.699219 137.253906 91.867188 137.753906 92.253906 137.917969 C 92.640625 138.140625 93.140625 137.917969 93.363281 137.53125 C 97.300781 128.882812 111.773438 120.339844 111.828125 120.339844 Z M 134.949219 152.113281 C 135.394531 151.949219 135.617188 151.503906 135.503906 151.058594 C 135.339844 150.671875 134.894531 150.394531 134.453125 150.5625 C 134.453125 150.5625 123.804688 154.054688 108 151.671875 C 107.558594 151.613281 107.167969 151.890625 107.113281 152.335938 C 107.003906 152.777344 107.335938 153.167969 107.78125 153.277344 C 123.914062 155.71875 134.949219 152.113281 134.949219 152.113281 Z M 148.867188 135.203125 C 149.035156 135.589844 149.53125 135.8125 149.921875 135.644531 C 150.363281 135.480469 150.53125 134.980469 150.363281 134.59375 C 150.363281 134.535156 146.371094 125 135.28125 118.457031 C 134.894531 118.234375 134.394531 118.34375 134.171875 118.734375 C 133.953125 119.121094 134.0625 119.621094 134.453125 119.84375 C 145.097656 126.109375 148.867188 135.148438 148.867188 135.203125 Z M 146.648438 173.574219 C 146.929688 173.242188 146.871094 172.742188 146.539062 172.464844 C 146.207031 172.1875 145.652344 172.242188 145.375 172.574219 C 141.605469 177.34375 139.109375 181.613281 137.335938 185.496094 C 135.558594 189.433594 134.5625 193.039062 133.675781 196.476562 C 133.566406 196.863281 133.839844 197.308594 134.230469 197.417969 C 134.671875 197.527344 135.117188 197.308594 135.226562 196.863281 C 136.117188 193.480469 137.113281 189.988281 138.832031 186.160156 C 140.496094 182.390625 142.933594 178.230469 146.648438 173.574219 Z M 169.105469 211.558594 C 169.441406 211.222656 169.441406 210.726562 169.105469 210.394531 C 168.773438 210.117188 168.273438 210.117188 167.941406 210.449219 C 167.941406 210.449219 159.515625 218.65625 142.769531 217.378906 C 142.324219 217.378906 141.9375 217.714844 141.882812 218.15625 C 141.882812 218.601562 142.214844 218.988281 142.65625 218.988281 C 160.125 220.316406 169.105469 211.558594 169.105469 211.558594 Z M 169.105469 211.558594 " fill-opacity="1" fill-rule="evenodd"/><path fill="#0033b6" d="M 77.835938 216.660156 C 70.628906 208.730469 65.804688 199.46875 63.363281 189.65625 L 68.519531 190.761719 C 68.964844 190.875 69.519531 191.375 69.90625 192.09375 L 80 210.171875 C 80.386719 210.890625 80.496094 211.613281 80.332031 212 Z M 77.835938 216.660156 " fill-opacity="1" fill-rule="evenodd"/><path fill="#0033b6" d="M 168.386719 209.726562 L 177.257812 191.207031 C 177.648438 190.484375 178.089844 189.988281 178.535156 189.929688 L 184.191406 189.210938 C 181.863281 198.96875 177.148438 208.285156 170.050781 216.214844 L 168.054688 211.667969 C 167.886719 211.222656 168 210.503906 168.386719 209.726562 Z M 168.386719 209.726562 " fill-opacity="1" fill-rule="evenodd"/><path fill="#0033b6" d="M 133.507812 120.007812 L 112.9375 120.339844 C 112.105469 120.339844 111.382812 120.121094 111.105469 119.789062 L 106.890625 115.128906 C 117.148438 112.300781 127.964844 112.078125 138.277344 114.519531 L 135.226562 119.398438 C 135.003906 119.730469 134.339844 119.953125 133.507812 120.007812 Z M 133.507812 120.007812 " fill-opacity="1" fill-rule="evenodd"/><path fill="#0033b6" d="M 170.160156 144.960938 L 151.085938 134.535156 C 150.308594 134.09375 149.421875 134.203125 148.8125 134.867188 L 134.894531 150.007812 C 134.339844 150.617188 134.230469 151.558594 134.671875 152.335938 L 145.097656 172.1875 C 145.542969 172.964844 146.375 173.40625 147.207031 173.296875 L 167.554688 170.355469 C 168.386719 170.246094 169.054688 169.582031 169.109375 168.695312 L 171.269531 147.066406 C 171.324219 146.238281 170.882812 145.40625 170.160156 144.960938 Z M 170.160156 144.960938 " fill-opacity="1" fill-rule="evenodd"/><path fill="#0033b6" d="M 133.34375 195.976562 L 112.269531 195.03125 C 111.382812 194.976562 110.609375 195.476562 110.386719 196.308594 L 104.785156 215.496094 C 104.5625 216.269531 104.894531 217.101562 105.5625 217.65625 L 123.195312 230.410156 C 123.914062 230.964844 124.804688 230.964844 125.523438 230.519531 L 141.992188 219.210938 C 142.714844 218.765625 142.933594 217.878906 142.65625 217.046875 L 135.226562 197.304688 C 134.894531 196.53125 134.171875 195.976562 133.34375 195.976562 Z M 133.34375 195.976562 " fill-opacity="1" fill-rule="evenodd"/><path fill="#0033b6" d="M 107.722656 151.28125 L 93.804688 137.308594 C 93.253906 136.753906 92.421875 136.644531 91.753906 137.03125 L 75.785156 146.679688 C 75.121094 147.125 74.785156 147.84375 74.953125 148.675781 L 79 168.582031 C 79.167969 169.414062 79.777344 169.96875 80.496094 170.078125 L 98.960938 172.742188 C 99.792969 172.851562 100.460938 172.464844 100.792969 171.6875 L 108.167969 153.390625 C 108.445312 152.667969 108.277344 151.835938 107.722656 151.28125 Z M 107.722656 151.28125 " fill-opacity="1" fill-rule="evenodd"/><path fill="#e6e6e6" d="M 157.851562 138.25 C 157.019531 132.097656 155.355469 126.054688 152.804688 120.339844 C 158.074219 123.113281 163.0625 126.773438 167.5 131.210938 C 171.046875 134.757812 174.042969 138.585938 176.539062 142.632812 L 170.714844 145.238281 C 170.660156 145.238281 170.605469 145.238281 170.605469 145.292969 C 170.4375 145.183594 170.328125 145.074219 170.160156 144.960938 Z M 157.851562 138.25 " fill-opacity="1" fill-rule="evenodd"/><path fill="#e6e6e6" d="M 169.105469 168.695312 L 171.269531 147.066406 C 171.269531 146.957031 171.269531 146.847656 171.269531 146.734375 C 171.324219 146.734375 171.324219 146.734375 171.378906 146.679688 L 177.257812 144.074219 C 177.3125 144.074219 177.3125 144.019531 177.371094 144.019531 C 185.355469 157.824219 187.515625 174.070312 183.96875 189.265625 L 178.535156 189.929688 C 178.476562 189.929688 178.476562 189.929688 178.421875 189.929688 C 175.652344 179.5625 169.550781 170.355469 168.886719 169.414062 C 168.996094 169.191406 169.105469 168.972656 169.105469 168.695312 Z M 169.105469 168.695312 " fill-opacity="1" fill-rule="evenodd"/><path fill="#e6e6e6" d="M 153.304688 172.410156 L 167.554688 170.359375 C 167.554688 170.359375 167.554688 170.359375 167.609375 170.359375 C 168.386719 171.523438 174.320312 180.617188 176.925781 190.652344 C 176.980469 190.875 177.148438 191.042969 177.3125 191.152344 L 177.257812 191.207031 L 168.386719 209.726562 C 168.273438 209.949219 168.21875 210.117188 168.164062 210.28125 C 168.109375 210.335938 168 210.394531 167.941406 210.449219 C 167.941406 210.449219 159.515625 218.65625 142.769531 217.378906 C 142.769531 217.378906 142.769531 217.378906 142.714844 217.378906 C 142.714844 217.269531 142.65625 217.160156 142.65625 217.046875 L 135.226562 197.308594 C 135.171875 197.25 135.171875 197.195312 135.117188 197.140625 C 136.558594 195.921875 137.886719 194.699219 139.21875 193.371094 C 145.429688 187.160156 150.144531 180.007812 153.304688 172.410156 Z M 153.304688 172.410156 " fill-opacity="1" fill-rule="evenodd"/><path fill="#e6e6e6" d="M 125.523438 230.519531 L 141.992188 219.210938 C 142.101562 219.152344 142.269531 219.042969 142.324219 218.929688 C 142.433594 218.988281 142.546875 218.988281 142.65625 218.988281 C 157.128906 220.097656 165.78125 214.273438 168.332031 212.222656 L 169.996094 216.050781 C 169.164062 216.9375 168.386719 217.824219 167.5 218.710938 C 155.800781 230.410156 140.605469 236.398438 125.246094 236.789062 L 125.191406 230.855469 C 125.191406 230.796875 125.191406 230.742188 125.191406 230.6875 C 125.300781 230.632812 125.414062 230.574219 125.523438 230.519531 Z M 125.523438 230.519531 " fill-opacity="1" fill-rule="evenodd"/><path fill="#e6e6e6" d="M 105.5625 217.65625 L 123.195312 230.410156 C 123.359375 230.519531 123.472656 230.574219 123.582031 230.632812 C 123.582031 230.6875 123.582031 230.796875 123.582031 230.851562 L 123.640625 236.785156 C 107.835938 236.785156 92.089844 230.742188 80.054688 218.710938 C 79.335938 217.933594 78.613281 217.210938 77.949219 216.4375 L 80.054688 212.5 C 87.929688 216.214844 104.898438 217.210938 104.953125 217.210938 C 105.007812 217.210938 105.0625 217.210938 105.117188 217.210938 C 105.230469 217.378906 105.394531 217.488281 105.5625 217.65625 Z M 105.5625 217.65625 " fill-opacity="1" fill-rule="evenodd"/><path fill="#e6e6e6" d="M 104.785156 215.550781 C 102.566406 215.4375 89.8125 214.496094 82.4375 211.722656 C 90.257812 213 98.242188 212.832031 106.0625 211.222656 L 104.785156 215.492188 Z M 104.785156 215.550781 " fill-opacity="1" fill-rule="evenodd"/><path fill="#00bf63" d="M 202.65625 85.296875 L 167 118.125 C 162.898438 115.460938 158.683594 113.1875 154.359375 111.359375 Z M 202.65625 85.296875 " fill-opacity="1" fill-rule="evenodd"/><g clip-path="url(#53770ac37b)"><path fill="#00bf63" d="M 237.476562 84.1875 L 174.542969 124.445312 C 175.261719 125.164062 175.984375 125.886719 176.703125 126.605469 C 178.921875 128.9375 183.136719 134.703125 184.964844 137.199219 Z M 237.476562 84.1875 " fill-opacity="1" fill-rule="evenodd"/></g><g clip-path="url(#666e476a23)"><path fill="#00bf63" d="M 237.976562 113.6875 L 188.347656 143.464844 C 191.453125 149.285156 192.675781 153.722656 193.949219 160.042969 Z M 237.976562 113.6875 " fill-opacity="1" fill-rule="evenodd"/></g><path fill="#00bf63" d="M 194.945312 167.253906 L 236.257812 151.171875 L 194.613281 181.722656 C 195.226562 177.011719 195.335938 172.132812 194.945312 167.253906 Z M 194.945312 167.253906 " fill-opacity="1" fill-rule="evenodd"/><path fill="#00bf63" d="M 63.085938 134.980469 C 53.160156 147.289062 47.171875 162.925781 47.171875 180.007812 C 47.171875 219.542969 79.222656 251.59375 118.757812 251.59375 C 135.78125 251.59375 151.476562 245.601562 163.730469 235.621094 C 135.558594 254.253906 97.246094 251.148438 72.402344 226.308594 C 47.617188 201.519531 44.511719 163.203125 63.085938 134.980469 Z M 63.085938 134.980469 " fill-opacity="1" fill-rule="evenodd"/><g fill="#ffffff" fill-opacity="1"><g transform="translate(330.005081, 201.694938)"><g><path d="M 6 -10.875 C 6.96875 -10.875 7.804688 -10.710938 8.515625 -10.390625 C 9.222656 -10.078125 9.769531 -9.625 10.15625 -9.03125 C 10.539062 -8.4375 10.734375 -7.738281 10.734375 -6.9375 C 10.734375 -6.132812 10.539062 -5.4375 10.15625 -4.84375 C 9.769531 -4.25 9.222656 -3.789062 8.515625 -3.46875 C 7.804688 -3.15625 6.96875 -3 6 -3 L 3.8125 -3 L 3.8125 0 L 1.296875 0 L 1.296875 -10.875 Z M 5.859375 -5.046875 C 6.617188 -5.046875 7.191406 -5.207031 7.578125 -5.53125 C 7.972656 -5.863281 8.171875 -6.332031 8.171875 -6.9375 C 8.171875 -7.539062 7.972656 -8.003906 7.578125 -8.328125 C 7.191406 -8.660156 6.617188 -8.828125 5.859375 -8.828125 L 3.8125 -8.828125 L 3.8125 -5.046875 Z M 5.859375 -5.046875 "/></g></g></g><g fill="#ffffff" fill-opacity="1"><g transform="translate(343.339049, 201.694938)"><g><path d="M 8.21875 0 L 6.125 -3.03125 L 3.8125 -3.03125 L 3.8125 0 L 1.296875 0 L 1.296875 -10.875 L 6 -10.875 C 6.96875 -10.875 7.804688 -10.710938 8.515625 -10.390625 C 9.222656 -10.078125 9.769531 -9.625 10.15625 -9.03125 C 10.539062 -8.4375 10.734375 -7.738281 10.734375 -6.9375 C 10.734375 -6.125 10.535156 -5.425781 10.140625 -4.84375 C 9.753906 -4.257812 9.203125 -3.8125 8.484375 -3.5 L 10.921875 0 Z M 8.171875 -6.9375 C 8.171875 -7.539062 7.972656 -8.003906 7.578125 -8.328125 C 7.191406 -8.660156 6.617188 -8.828125 5.859375 -8.828125 L 3.8125 -8.828125 L 3.8125 -5.03125 L 5.859375 -5.03125 C 6.617188 -5.03125 7.191406 -5.195312 7.578125 -5.53125 C 7.972656 -5.863281 8.171875 -6.332031 8.171875 -6.9375 Z M 8.171875 -6.9375 "/></g></g></g><g fill="#ffffff" fill-opacity="1"><g transform="translate(356.719641, 201.694938)"><g><path d="M 6.5625 0.1875 C 5.425781 0.1875 4.40625 -0.0546875 3.5 -0.546875 C 2.59375 -1.035156 1.882812 -1.707031 1.375 -2.5625 C 0.863281 -3.414062 0.609375 -4.375 0.609375 -5.4375 C 0.609375 -6.507812 0.863281 -7.472656 1.375 -8.328125 C 1.882812 -9.179688 2.59375 -9.847656 3.5 -10.328125 C 4.40625 -10.816406 5.425781 -11.0625 6.5625 -11.0625 C 7.6875 -11.0625 8.695312 -10.816406 9.59375 -10.328125 C 10.5 -9.847656 11.210938 -9.179688 11.734375 -8.328125 C 12.253906 -7.472656 12.515625 -6.507812 12.515625 -5.4375 C 12.515625 -4.375 12.253906 -3.414062 11.734375 -2.5625 C 11.210938 -1.707031 10.5 -1.035156 9.59375 -0.546875 C 8.695312 -0.0546875 7.6875 0.1875 6.5625 0.1875 Z M 6.5625 -1.953125 C 7.207031 -1.953125 7.785156 -2.097656 8.296875 -2.390625 C 8.816406 -2.691406 9.222656 -3.109375 9.515625 -3.640625 C 9.816406 -4.171875 9.96875 -4.769531 9.96875 -5.4375 C 9.96875 -6.113281 9.816406 -6.710938 9.515625 -7.234375 C 9.222656 -7.765625 8.816406 -8.175781 8.296875 -8.46875 C 7.785156 -8.769531 7.207031 -8.921875 6.5625 -8.921875 C 5.914062 -8.921875 5.332031 -8.769531 4.8125 -8.46875 C 4.300781 -8.175781 3.894531 -7.765625 3.59375 -7.234375 C 3.300781 -6.710938 3.15625 -6.113281 3.15625 -5.4375 C 3.15625 -4.769531 3.300781 -4.171875 3.59375 -3.640625 C 3.894531 -3.109375 4.300781 -2.691406 4.8125 -2.390625 C 5.332031 -2.097656 5.914062 -1.953125 6.5625 -1.953125 Z M 6.5625 -1.953125 "/></g></g></g><g fill="#ffffff" fill-opacity="1"><g transform="translate(371.793992, 201.694938)"><g/></g></g><g fill="#ffffff" fill-opacity="1"><g transform="translate(378.150898, 201.694938)"><g><path d="M 6.5 0.1875 C 5.382812 0.1875 4.378906 -0.0507812 3.484375 -0.53125 C 2.585938 -1.019531 1.882812 -1.691406 1.375 -2.546875 C 0.863281 -3.398438 0.609375 -4.363281 0.609375 -5.4375 C 0.609375 -6.519531 0.863281 -7.488281 1.375 -8.34375 C 1.882812 -9.195312 2.585938 -9.863281 3.484375 -10.34375 C 4.378906 -10.820312 5.390625 -11.0625 6.515625 -11.0625 C 7.453125 -11.0625 8.300781 -10.894531 9.0625 -10.5625 C 9.832031 -10.238281 10.472656 -9.765625 10.984375 -9.140625 L 9.375 -7.65625 C 8.632812 -8.5 7.722656 -8.921875 6.640625 -8.921875 C 5.960938 -8.921875 5.359375 -8.769531 4.828125 -8.46875 C 4.304688 -8.175781 3.894531 -7.765625 3.59375 -7.234375 C 3.300781 -6.710938 3.15625 -6.113281 3.15625 -5.4375 C 3.15625 -4.769531 3.300781 -4.171875 3.59375 -3.640625 C 3.894531 -3.109375 4.304688 -2.691406 4.828125 -2.390625 C 5.359375 -2.097656 5.960938 -1.953125 6.640625 -1.953125 C 7.722656 -1.953125 8.632812 -2.382812 9.375 -3.25 L 10.984375 -1.75 C 10.472656 -1.125 9.832031 -0.644531 9.0625 -0.3125 C 8.289062 0.0195312 7.4375 0.1875 6.5 0.1875 Z M 6.5 0.1875 "/></g></g></g><g fill="#ffffff" fill-opacity="1"><g transform="translate(391.500408, 201.694938)"><g><path d="M 1.296875 -10.875 L 3.8125 -10.875 L 3.8125 -2.046875 L 9.265625 -2.046875 L 9.265625 0 L 1.296875 0 Z M 1.296875 -10.875 "/></g></g></g><g fill="#ffffff" fill-opacity="1"><g transform="translate(402.84537, 201.694938)"><g><path d="M 6.125 0.1875 C 4.570312 0.1875 3.363281 -0.238281 2.5 -1.09375 C 1.632812 -1.957031 1.203125 -3.1875 1.203125 -4.78125 L 1.203125 -10.875 L 3.71875 -10.875 L 3.71875 -4.875 C 3.71875 -2.925781 4.523438 -1.953125 6.140625 -1.953125 C 6.929688 -1.953125 7.53125 -2.1875 7.9375 -2.65625 C 8.351562 -3.132812 8.5625 -3.875 8.5625 -4.875 L 8.5625 -10.875 L 11.046875 -10.875 L 11.046875 -4.78125 C 11.046875 -3.1875 10.613281 -1.957031 9.75 -1.09375 C 8.882812 -0.238281 7.675781 0.1875 6.125 0.1875 Z M 6.125 0.1875 "/></g></g></g><g fill="#ffffff" fill-opacity="1"><g transform="translate(417.049536, 201.694938)"><g><path d="M 9.28125 -5.65625 C 9.90625 -5.457031 10.390625 -5.128906 10.734375 -4.671875 C 11.085938 -4.210938 11.265625 -3.644531 11.265625 -2.96875 C 11.265625 -2.019531 10.894531 -1.285156 10.15625 -0.765625 C 9.414062 -0.253906 8.335938 0 6.921875 0 L 1.296875 0 L 1.296875 -10.875 L 6.609375 -10.875 C 7.929688 -10.875 8.945312 -10.617188 9.65625 -10.109375 C 10.375 -9.609375 10.734375 -8.921875 10.734375 -8.046875 C 10.734375 -7.523438 10.601562 -7.054688 10.34375 -6.640625 C 10.09375 -6.222656 9.738281 -5.894531 9.28125 -5.65625 Z M 3.796875 -8.984375 L 3.796875 -6.421875 L 6.296875 -6.421875 C 6.921875 -6.421875 7.390625 -6.53125 7.703125 -6.75 C 8.023438 -6.96875 8.1875 -7.289062 8.1875 -7.71875 C 8.1875 -8.132812 8.023438 -8.445312 7.703125 -8.65625 C 7.390625 -8.875 6.921875 -8.984375 6.296875 -8.984375 Z M 6.734375 -1.890625 C 7.398438 -1.890625 7.898438 -2 8.234375 -2.21875 C 8.566406 -2.4375 8.734375 -2.773438 8.734375 -3.234375 C 8.734375 -4.140625 8.066406 -4.59375 6.734375 -4.59375 L 3.796875 -4.59375 L 3.796875 -1.890625 Z M 6.734375 -1.890625 "/></g></g></g><g fill="#ffffff" fill-opacity="1"><g transform="translate(430.896303, 201.694938)"><g><path d="M 4.859375 0.1875 C 4.003906 0.1875 3.175781 0.0703125 2.375 -0.15625 C 1.570312 -0.394531 0.925781 -0.703125 0.4375 -1.078125 L 1.296875 -2.96875 C 1.753906 -2.625 2.304688 -2.347656 2.953125 -2.140625 C 3.597656 -1.929688 4.238281 -1.828125 4.875 -1.828125 C 5.59375 -1.828125 6.125 -1.929688 6.46875 -2.140625 C 6.8125 -2.359375 6.984375 -2.644531 6.984375 -3 C 6.984375 -3.257812 6.878906 -3.472656 6.671875 -3.640625 C 6.472656 -3.816406 6.210938 -3.957031 5.890625 -4.0625 C 5.578125 -4.164062 5.15625 -4.28125 4.625 -4.40625 C 3.789062 -4.59375 3.109375 -4.785156 2.578125 -4.984375 C 2.046875 -5.179688 1.59375 -5.5 1.21875 -5.9375 C 0.84375 -6.375 0.65625 -6.957031 0.65625 -7.6875 C 0.65625 -8.3125 0.820312 -8.878906 1.15625 -9.390625 C 1.5 -9.910156 2.015625 -10.316406 2.703125 -10.609375 C 3.398438 -10.910156 4.242188 -11.0625 5.234375 -11.0625 C 5.929688 -11.0625 6.609375 -10.976562 7.265625 -10.8125 C 7.929688 -10.65625 8.515625 -10.421875 9.015625 -10.109375 L 8.234375 -8.1875 C 7.234375 -8.757812 6.226562 -9.046875 5.21875 -9.046875 C 4.519531 -9.046875 4 -8.929688 3.65625 -8.703125 C 3.320312 -8.472656 3.15625 -8.171875 3.15625 -7.796875 C 3.15625 -7.429688 3.347656 -7.15625 3.734375 -6.96875 C 4.128906 -6.789062 4.722656 -6.613281 5.515625 -6.4375 C 6.347656 -6.238281 7.023438 -6.039062 7.546875 -5.84375 C 8.078125 -5.644531 8.53125 -5.332031 8.90625 -4.90625 C 9.289062 -4.488281 9.484375 -3.914062 9.484375 -3.1875 C 9.484375 -2.5625 9.304688 -1.992188 8.953125 -1.484375 C 8.609375 -0.972656 8.085938 -0.566406 7.390625 -0.265625 C 6.703125 0.0351562 5.859375 0.1875 4.859375 0.1875 Z M 4.859375 0.1875 "/></g></g></g><g transform="matrix(1, 0, 0, 1, 268, 126)"><g clip-path="url(#3e9980de9f)"><g fill="#ffffff" fill-opacity="1"><g transform="translate(0.486799, 42.555597)"><g><path d="M 32.046875 0 L 32 -20.171875 L 22 -3.484375 L 19.484375 -3.484375 L 9.484375 -19.921875 L 9.484375 0 L 4.09375 0 L 4.09375 -30.4375 L 8.734375 -30.4375 L 20.828125 -10.265625 L 32.703125 -30.4375 L 37.359375 -30.4375 L 37.390625 0 Z M 32.046875 0 "/></g></g></g><g fill="#ffffff" fill-opacity="1"><g transform="translate(41.123328, 42.555597)"><g><path d="M 26.921875 -4.734375 L 26.921875 0 L 4.09375 0 L 4.09375 -30.4375 L 26.3125 -30.4375 L 26.3125 -25.703125 L 9.734375 -25.703125 L 9.734375 -17.78125 L 24.4375 -17.78125 L 24.4375 -13.125 L 9.734375 -13.125 L 9.734375 -4.734375 Z M 26.921875 -4.734375 "/></g></g></g><g fill="#ffffff" fill-opacity="1"><g transform="translate(69.373195, 42.555597)"><g><path d="M 24 0 L 17.78125 -8.921875 C 17.519531 -8.890625 17.128906 -8.875 16.609375 -8.875 L 9.734375 -8.875 L 9.734375 0 L 4.09375 0 L 4.09375 -30.4375 L 16.609375 -30.4375 C 19.242188 -30.4375 21.539062 -30 23.5 -29.125 C 25.457031 -28.257812 26.957031 -27.015625 28 -25.390625 C 29.039062 -23.765625 29.5625 -21.835938 29.5625 -19.609375 C 29.5625 -17.316406 29.003906 -15.34375 27.890625 -13.6875 C 26.773438 -12.039062 25.175781 -10.8125 23.09375 -10 L 30.09375 0 Z M 23.875 -19.609375 C 23.875 -21.554688 23.234375 -23.050781 21.953125 -24.09375 C 20.679688 -25.132812 18.8125 -25.65625 16.34375 -25.65625 L 9.734375 -25.65625 L 9.734375 -13.53125 L 16.34375 -13.53125 C 18.8125 -13.53125 20.679688 -14.054688 21.953125 -15.109375 C 23.234375 -16.171875 23.875 -17.671875 23.875 -19.609375 Z M 23.875 -19.609375 "/></g></g></g><g fill="#ffffff" fill-opacity="1"><g transform="translate(100.274251, 42.555597)"><g><path d="M 18.171875 0.4375 C 15.097656 0.4375 12.320312 -0.234375 9.84375 -1.578125 C 7.363281 -2.929688 5.421875 -4.796875 4.015625 -7.171875 C 2.609375 -9.546875 1.90625 -12.226562 1.90625 -15.21875 C 1.90625 -18.207031 2.613281 -20.890625 4.03125 -23.265625 C 5.457031 -25.640625 7.410156 -27.5 9.890625 -28.84375 C 12.367188 -30.195312 15.144531 -30.875 18.21875 -30.875 C 20.707031 -30.875 22.984375 -30.4375 25.046875 -29.5625 C 27.109375 -28.695312 28.847656 -27.4375 30.265625 -25.78125 L 26.609375 -22.34375 C 24.410156 -24.726562 21.703125 -25.921875 18.484375 -25.921875 C 16.390625 -25.921875 14.515625 -25.460938 12.859375 -24.546875 C 11.210938 -23.628906 9.925781 -22.359375 9 -20.734375 C 8.070312 -19.117188 7.609375 -17.28125 7.609375 -15.21875 C 7.609375 -13.15625 8.070312 -11.3125 9 -9.6875 C 9.925781 -8.070312 11.210938 -6.804688 12.859375 -5.890625 C 14.515625 -4.972656 16.390625 -4.515625 18.484375 -4.515625 C 21.703125 -4.515625 24.410156 -5.71875 26.609375 -8.125 L 30.265625 -4.65625 C 28.847656 -3 27.101562 -1.734375 25.03125 -0.859375 C 22.957031 0.00390625 20.671875 0.4375 18.171875 0.4375 Z M 18.171875 0.4375 "/></g></g></g><g fill="#ffffff" fill-opacity="1"><g transform="translate(131.001455, 42.555597)"><g><path d="M 23.828125 -7.046875 L 8.609375 -7.046875 L 5.609375 0 L -0.21875 0 L 13.484375 -30.4375 L 19.046875 -30.4375 L 32.78125 0 L 26.875 0 Z M 21.953125 -11.484375 L 16.21875 -24.78125 L 10.515625 -11.484375 Z M 21.953125 -11.484375 "/></g></g></g><g fill="#ffffff" fill-opacity="1"><g transform="translate(162.684825, 42.555597)"><g><path d="M 4.09375 -30.4375 L 17.390625 -30.4375 C 20.640625 -30.4375 23.523438 -29.804688 26.046875 -28.546875 C 28.566406 -27.285156 30.519531 -25.5 31.90625 -23.1875 C 33.300781 -20.882812 34 -18.226562 34 -15.21875 C 34 -12.207031 33.300781 -9.546875 31.90625 -7.234375 C 30.519531 -4.929688 28.566406 -3.148438 26.046875 -1.890625 C 23.523438 -0.628906 20.640625 0 17.390625 0 L 4.09375 0 Z M 17.140625 -4.78125 C 19.367188 -4.78125 21.328125 -5.207031 23.015625 -6.0625 C 24.710938 -6.914062 26.019531 -8.132812 26.9375 -9.71875 C 27.851562 -11.300781 28.3125 -13.132812 28.3125 -15.21875 C 28.3125 -17.300781 27.851562 -19.132812 26.9375 -20.71875 C 26.019531 -22.300781 24.710938 -23.519531 23.015625 -24.375 C 21.328125 -25.226562 19.367188 -25.65625 17.140625 -25.65625 L 9.734375 -25.65625 L 9.734375 -4.78125 Z M 17.140625 -4.78125 "/></g></g></g><g fill="#ffffff" fill-opacity="1"><g transform="translate(197.714763, 42.555597)"><g><path d="M 18.3125 0.4375 C 15.207031 0.4375 12.40625 -0.234375 9.90625 -1.578125 C 7.414062 -2.929688 5.457031 -4.800781 4.03125 -7.1875 C 2.613281 -9.582031 1.90625 -12.257812 1.90625 -15.21875 C 1.90625 -18.175781 2.613281 -20.847656 4.03125 -23.234375 C 5.457031 -25.628906 7.414062 -27.5 9.90625 -28.84375 C 12.40625 -30.195312 15.207031 -30.875 18.3125 -30.875 C 21.40625 -30.875 24.195312 -30.195312 26.6875 -28.84375 C 29.1875 -27.5 31.144531 -25.640625 32.5625 -23.265625 C 33.988281 -20.890625 34.703125 -18.207031 34.703125 -15.21875 C 34.703125 -12.226562 33.988281 -9.546875 32.5625 -7.171875 C 31.144531 -4.796875 29.1875 -2.929688 26.6875 -1.578125 C 24.195312 -0.234375 21.40625 0.4375 18.3125 0.4375 Z M 18.3125 -4.515625 C 20.332031 -4.515625 22.15625 -4.972656 23.78125 -5.890625 C 25.40625 -6.804688 26.679688 -8.082031 27.609375 -9.71875 C 28.535156 -11.351562 29 -13.1875 29 -15.21875 C 29 -17.25 28.535156 -19.082031 27.609375 -20.71875 C 26.679688 -22.351562 25.40625 -23.628906 23.78125 -24.546875 C 22.15625 -25.460938 20.332031 -25.921875 18.3125 -25.921875 C 16.28125 -25.921875 14.453125 -25.460938 12.828125 -24.546875 C 11.203125 -23.628906 9.925781 -22.351562 9 -20.71875 C 8.070312 -19.082031 7.609375 -17.25 7.609375 -15.21875 C 7.609375 -13.1875 8.070312 -11.351562 9 -9.71875 C 9.925781 -8.082031 11.203125 -6.804688 12.828125 -5.890625 C 14.453125 -4.972656 16.28125 -4.515625 18.3125 -4.515625 Z M 18.3125 -4.515625 "/></g></g></g></g></g></svg>