<svg xmlns="http://www.w3.org/2000/svg" xmlns:xlink="http://www.w3.org/1999/xlink" width="320" zoomAndPan="magnify" viewBox="0 0 240 576" height="800" preserveAspectRatio="xMidYMid meet" version="1.0"><defs><g/><clipPath id="839654b4c4"><path d="M 2.707031 20 L 7 20 L 7 24 L 2.707031 24 Z M 2.707031 20 " clip-rule="nonzero"/></clipPath><clipPath id="91da306194"><path d="M 14 30 L 18 30 L 18 33.074219 L 14 33.074219 Z M 14 30 " clip-rule="nonzero"/></clipPath><clipPath id="904bcaaa55"><path d="M 2.707031 15 L 6 15 L 6 19 L 2.707031 19 Z M 2.707031 15 " clip-rule="nonzero"/></clipPath><clipPath id="671a16d0aa"><path d="M 26 0.488281 L 35 0.488281 L 35 7 L 26 7 Z M 26 0.488281 " clip-rule="nonzero"/></clipPath><clipPath id="c285717045"><path d="M 29 0.488281 L 40.523438 0.488281 L 40.523438 10 L 29 10 Z M 29 0.488281 " clip-rule="nonzero"/></clipPath><clipPath id="b805e881f4"><path d="M 32 5 L 40.523438 5 L 40.523438 14 L 32 14 Z M 32 5 " clip-rule="nonzero"/></clipPath><clipPath id="27ade6815f"><path d="M 33 11 L 40.523438 11 L 40.523438 18 L 33 18 Z M 33 11 " clip-rule="nonzero"/></clipPath><clipPath id="3e864a24a8"><path d="M 12 42 L 31 42 L 31 46.320312 L 12 46.320312 Z M 12 42 " clip-rule="nonzero"/></clipPath><clipPath id="af31fecb11"><path d="M 0.121094 1 L 2 1 L 2 4 L 0.121094 4 Z M 0.121094 1 " clip-rule="nonzero"/></clipPath><clipPath id="565e6b4bfb"><rect x="0" width="19" y="0" height="5"/></clipPath><clipPath id="aff5586d46"><path d="M 0.601562 33 L 41.878906 33 L 41.878906 44 L 0.601562 44 Z M 0.601562 33 " clip-rule="nonzero"/></clipPath><clipPath id="c97452a1cb"><rect x="0" width="42" y="0" height="11"/></clipPath><clipPath id="a15b28d862"><rect x="0" width="42" y="0" height="47"/></clipPath></defs><g transform="matrix(1, 0, 0, 1, 99, 180)"><g clip-path="url(#a15b28d862)"><path fill="#ffca18" d="M 12.433594 30.589844 C 12.644531 30.875 12.84375 31.160156 13.042969 31.445312 C 13.070312 31.492188 13.070312 31.550781 13.050781 31.597656 C 13.023438 31.644531 12.964844 31.664062 12.917969 31.664062 C 12.566406 31.625 12.214844 31.578125 11.875 31.539062 C 11.65625 31.824219 11.445312 32.109375 11.238281 32.386719 C 11.199219 32.433594 11.152344 32.453125 11.09375 32.433594 C 11.046875 32.421875 11.007812 32.386719 11 32.328125 C 10.921875 31.984375 10.855469 31.644531 10.78125 31.300781 C 10.449219 31.1875 10.117188 31.074219 9.785156 30.960938 C 9.734375 30.941406 9.699219 30.894531 9.699219 30.847656 C 9.6875 30.789062 9.71875 30.742188 9.765625 30.714844 C 10.070312 30.542969 10.371094 30.363281 10.675781 30.191406 C 10.6875 29.839844 10.695312 29.488281 10.695312 29.136719 C 10.695312 29.078125 10.722656 29.042969 10.78125 29.011719 C 10.828125 28.992188 10.886719 29.003906 10.921875 29.042969 C 11.179688 29.277344 11.4375 29.515625 11.703125 29.753906 C 12.035156 29.648438 12.378906 29.542969 12.710938 29.441406 C 12.757812 29.429688 12.816406 29.441406 12.851562 29.476562 C 12.882812 29.527344 12.890625 29.574219 12.871094 29.621094 C 12.730469 29.945312 12.585938 30.265625 12.433594 30.589844 Z M 12.433594 30.589844 " fill-opacity="1" fill-rule="evenodd"/><g clip-path="url(#839654b4c4)"><path fill="#ffca18" d="M 4.765625 20.824219 C 4.519531 20.574219 4.28125 20.320312 4.035156 20.070312 C 3.996094 20.035156 3.941406 20.023438 3.894531 20.042969 C 3.835938 20.054688 3.808594 20.101562 3.808594 20.15625 C 3.777344 20.507812 3.75 20.851562 3.722656 21.203125 C 3.410156 21.363281 3.09375 21.515625 2.78125 21.679688 C 2.734375 21.695312 2.707031 21.746094 2.707031 21.800781 C 2.707031 21.859375 2.742188 21.894531 2.792969 21.914062 C 3.113281 22.046875 3.4375 22.179688 3.769531 22.3125 C 3.816406 22.664062 3.863281 23.015625 3.921875 23.359375 C 3.929688 23.417969 3.960938 23.453125 4.015625 23.472656 C 4.0625 23.484375 4.121094 23.472656 4.160156 23.425781 C 4.378906 23.160156 4.605469 22.894531 4.832031 22.628906 C 5.183594 22.683594 5.527344 22.742188 5.878906 22.796875 C 5.925781 22.808594 5.984375 22.789062 6.011719 22.742188 C 6.039062 22.695312 6.039062 22.648438 6.011719 22.597656 C 5.832031 22.296875 5.640625 22 5.460938 21.695312 C 5.621094 21.394531 5.785156 21.078125 5.945312 20.765625 C 5.972656 20.71875 5.964844 20.660156 5.9375 20.621094 C 5.898438 20.574219 5.851562 20.554688 5.792969 20.574219 C 5.453125 20.660156 5.109375 20.738281 4.765625 20.824219 Z M 4.765625 20.824219 " fill-opacity="1" fill-rule="evenodd"/></g><g clip-path="url(#91da306194)"><path fill="#ffca18" d="M 16.804688 31.160156 L 16.433594 30.398438 C 16.414062 30.363281 16.378906 30.34375 16.328125 30.34375 C 16.292969 30.34375 16.253906 30.371094 16.234375 30.410156 L 15.910156 31.1875 L 15.074219 31.3125 C 15.027344 31.320312 15 31.347656 14.980469 31.386719 C 14.972656 31.425781 14.980469 31.472656 15.019531 31.5 L 15.664062 32.050781 L 15.511719 32.886719 C 15.511719 32.925781 15.523438 32.972656 15.558594 32.992188 C 15.597656 33.019531 15.644531 33.019531 15.675781 32.992188 L 16.40625 32.554688 L 17.15625 32.953125 C 17.195312 32.972656 17.230469 32.964844 17.269531 32.9375 C 17.296875 32.917969 17.316406 32.871094 17.308594 32.832031 L 17.109375 32.003906 L 17.714844 31.414062 C 17.753906 31.386719 17.765625 31.339844 17.746094 31.300781 C 17.726562 31.265625 17.699219 31.234375 17.648438 31.226562 Z M 16.804688 31.160156 " fill-opacity="1" fill-rule="evenodd"/></g><g clip-path="url(#904bcaaa55)"><path fill="#ffca18" d="M 5.003906 16.425781 L 5.6875 16.925781 C 5.71875 16.957031 5.738281 16.992188 5.726562 17.042969 C 5.71875 17.078125 5.6875 17.109375 5.640625 17.117188 L 4.816406 17.296875 L 4.539062 18.105469 C 4.53125 18.144531 4.492188 18.171875 4.453125 18.171875 C 4.40625 18.179688 4.367188 18.152344 4.347656 18.125 L 3.921875 17.382812 L 3.074219 17.375 C 3.027344 17.375 2.992188 17.34375 2.972656 17.308594 C 2.960938 17.269531 2.960938 17.230469 2.992188 17.195312 L 3.5625 16.566406 L 3.3125 15.757812 C 3.292969 15.710938 3.304688 15.671875 3.34375 15.644531 C 3.371094 15.617188 3.417969 15.605469 3.457031 15.625 L 4.234375 15.96875 L 4.917969 15.484375 C 4.957031 15.453125 5.003906 15.453125 5.042969 15.472656 C 5.082031 15.492188 5.101562 15.53125 5.089844 15.578125 Z M 5.003906 16.425781 " fill-opacity="1" fill-rule="evenodd"/></g><path fill="#ffca18" d="M 5.746094 28.070312 C 5.242188 27.871094 4.75 27.671875 4.253906 27.472656 C 4.179688 27.445312 4.128906 27.378906 4.121094 27.292969 C 4.121094 27.207031 4.160156 27.140625 4.234375 27.101562 C 4.710938 26.855469 5.195312 26.617188 5.667969 26.378906 C 5.707031 25.839844 5.746094 25.308594 5.773438 24.773438 C 5.785156 24.691406 5.832031 24.625 5.90625 24.59375 C 5.984375 24.566406 6.070312 24.585938 6.125 24.640625 C 6.507812 25.023438 6.875 25.402344 7.257812 25.78125 C 7.777344 25.660156 8.292969 25.527344 8.816406 25.394531 C 8.890625 25.375 8.976562 25.402344 9.023438 25.46875 C 9.070312 25.527344 9.082031 25.613281 9.042969 25.6875 C 8.804688 26.164062 8.558594 26.636719 8.3125 27.113281 C 8.597656 27.570312 8.882812 28.023438 9.167969 28.472656 C 9.214844 28.546875 9.203125 28.625 9.167969 28.699219 C 9.117188 28.765625 9.042969 28.792969 8.957031 28.785156 C 8.433594 28.699219 7.902344 28.613281 7.378906 28.527344 C 7.027344 28.9375 6.6875 29.34375 6.34375 29.753906 C 6.296875 29.820312 6.210938 29.847656 6.136719 29.820312 C 6.058594 29.800781 6.003906 29.746094 5.984375 29.660156 C 5.90625 29.125 5.820312 28.605469 5.746094 28.070312 Z M 5.746094 28.070312 " fill-opacity="1" fill-rule="evenodd"/><path fill="#ffffff" d="M 28.773438 8.234375 C 24.460938 3.921875 17.480469 3.921875 13.164062 8.234375 C 8.851562 12.546875 8.851562 19.539062 13.164062 23.855469 C 17.480469 28.167969 24.460938 28.167969 28.773438 23.855469 C 33.089844 19.539062 33.089844 12.546875 28.773438 8.234375 Z M 28.773438 8.234375 " fill-opacity="1" fill-rule="evenodd"/><path fill="#0033b6" d="M 29.109375 7.902344 C 24.613281 3.40625 17.328125 3.40625 12.832031 7.902344 C 8.332031 12.394531 8.332031 19.691406 12.832031 24.1875 C 17.328125 28.679688 24.613281 28.679688 29.109375 24.1875 C 33.609375 19.691406 33.609375 12.394531 29.109375 7.902344 Z M 28.691406 15.085938 C 28.652344 15.019531 28.566406 15 28.5 15.046875 C 28.433594 15.085938 28.425781 15.171875 28.460938 15.238281 C 28.460938 15.246094 29.59375 16.890625 30.078125 18.734375 C 30.097656 18.808594 30.171875 18.855469 30.25 18.835938 C 30.324219 18.808594 30.371094 18.734375 30.351562 18.667969 C 29.847656 16.777344 28.699219 15.085938 28.691406 15.085938 Z M 29.011719 10.953125 C 28.945312 10.980469 28.917969 11.054688 28.945312 11.132812 C 28.976562 11.199219 29.058594 11.226562 29.125 11.199219 L 30.132812 10.753906 C 30.144531 10.753906 30.144531 10.742188 30.152344 10.742188 C 32.488281 14.800781 31.929688 20.070312 28.460938 23.539062 C 26.457031 25.542969 23.855469 26.570312 21.222656 26.636719 L 21.214844 25.621094 C 21.214844 25.542969 21.144531 25.476562 21.070312 25.476562 C 20.996094 25.476562 20.9375 25.542969 20.9375 25.621094 L 20.945312 26.636719 C 18.238281 26.636719 15.539062 25.601562 13.480469 23.539062 C 10.011719 20.070312 9.449219 14.800781 11.789062 10.742188 L 12.597656 11.445312 C 12.652344 11.492188 12.738281 11.492188 12.785156 11.4375 C 12.84375 11.378906 12.832031 11.292969 12.777344 11.238281 L 11.960938 10.523438 C 11.949219 10.515625 11.941406 10.503906 11.941406 10.503906 C 12.359375 9.8125 12.871094 9.15625 13.480469 8.546875 C 17.613281 4.414062 24.328125 4.414062 28.460938 8.546875 C 29.070312 9.15625 29.582031 9.8125 30.011719 10.503906 Z M 13.535156 15.167969 C 13.574219 15.101562 13.554688 15.019531 13.488281 14.980469 C 13.433594 14.933594 13.335938 14.953125 13.296875 15.019531 C 13.296875 15.027344 11.664062 17.554688 11.40625 18.800781 C 11.398438 18.875 11.445312 18.941406 11.523438 18.960938 C 11.597656 18.96875 11.675781 18.921875 11.683594 18.847656 C 11.921875 17.660156 13.527344 15.179688 13.535156 15.167969 Z M 17.746094 23.285156 C 17.820312 23.285156 17.886719 23.234375 17.898438 23.160156 C 17.90625 23.085938 17.851562 23.007812 17.773438 23.007812 C 17.765625 23.007812 14.761719 22.835938 13.507812 22.179688 C 13.441406 22.144531 13.355469 22.171875 13.316406 22.238281 C 13.289062 22.304688 13.308594 22.390625 13.375 22.429688 C 14.675781 23.101562 17.734375 23.285156 17.746094 23.285156 Z M 16.957031 15.625 C 16.957031 15.550781 16.890625 15.492188 16.8125 15.503906 C 16.738281 15.503906 16.679688 15.578125 16.679688 15.65625 C 16.679688 15.65625 16.851562 17.414062 18.734375 19.664062 C 18.78125 19.722656 18.867188 19.730469 18.921875 19.683594 C 18.980469 19.636719 18.988281 19.539062 18.941406 19.484375 C 17.128906 17.308594 16.957031 15.636719 16.957031 15.625 Z M 18.921875 6.6875 C 18.988281 6.648438 19.019531 6.5625 18.980469 6.496094 C 18.941406 6.429688 18.855469 6.402344 18.789062 6.4375 C 18.78125 6.449219 16.226562 7.949219 15.503906 9.515625 C 15.472656 9.582031 15.503906 9.667969 15.570312 9.699219 C 15.636719 9.734375 15.722656 9.699219 15.757812 9.632812 C 16.433594 8.148438 18.914062 6.6875 18.921875 6.6875 Z M 22.886719 12.128906 C 22.960938 12.101562 23 12.023438 22.980469 11.949219 C 22.953125 11.882812 22.875 11.835938 22.800781 11.863281 C 22.800781 11.863281 20.976562 12.460938 18.269531 12.054688 C 18.191406 12.042969 18.125 12.089844 18.117188 12.167969 C 18.097656 12.242188 18.152344 12.308594 18.230469 12.328125 C 20.996094 12.746094 22.886719 12.128906 22.886719 12.128906 Z M 25.269531 9.230469 C 25.296875 9.296875 25.382812 9.335938 25.449219 9.308594 C 25.527344 9.28125 25.554688 9.195312 25.527344 9.128906 C 25.527344 9.117188 24.84375 7.484375 22.941406 6.363281 C 22.875 6.324219 22.789062 6.34375 22.75 6.410156 C 22.714844 6.476562 22.734375 6.5625 22.800781 6.601562 C 24.625 7.675781 25.269531 9.222656 25.269531 9.230469 Z M 24.890625 15.804688 C 24.9375 15.75 24.925781 15.664062 24.871094 15.617188 C 24.8125 15.570312 24.71875 15.578125 24.671875 15.636719 C 24.023438 16.453125 23.597656 17.183594 23.292969 17.847656 C 22.988281 18.523438 22.820312 19.140625 22.667969 19.730469 C 22.648438 19.796875 22.695312 19.871094 22.761719 19.890625 C 22.835938 19.910156 22.914062 19.871094 22.933594 19.796875 C 23.085938 19.21875 23.253906 18.617188 23.550781 17.964844 C 23.835938 17.316406 24.253906 16.605469 24.890625 15.804688 Z M 28.738281 22.3125 C 28.792969 22.257812 28.792969 22.171875 28.738281 22.113281 C 28.679688 22.066406 28.59375 22.066406 28.539062 22.125 C 28.539062 22.125 27.09375 23.53125 24.222656 23.3125 C 24.148438 23.3125 24.082031 23.367188 24.074219 23.445312 C 24.074219 23.519531 24.128906 23.585938 24.207031 23.585938 C 27.199219 23.816406 28.738281 22.3125 28.738281 22.3125 Z M 28.738281 22.3125 " fill-opacity="1" fill-rule="evenodd"/><path fill="#0033b6" d="M 13.097656 23.1875 C 11.863281 21.828125 11.039062 20.242188 10.621094 18.5625 L 11.503906 18.75 C 11.578125 18.769531 11.675781 18.855469 11.742188 18.980469 L 13.46875 22.078125 C 13.535156 22.199219 13.554688 22.324219 13.527344 22.390625 Z M 13.097656 23.1875 " fill-opacity="1" fill-rule="evenodd"/><path fill="#0033b6" d="M 28.613281 22 L 30.132812 18.828125 C 30.199219 18.703125 30.277344 18.617188 30.351562 18.609375 L 31.320312 18.484375 C 30.921875 20.15625 30.113281 21.753906 28.898438 23.113281 L 28.558594 22.332031 C 28.527344 22.257812 28.546875 22.132812 28.613281 22 Z M 28.613281 22 " fill-opacity="1" fill-rule="evenodd"/><path fill="#0033b6" d="M 22.636719 6.628906 L 19.113281 6.6875 C 18.96875 6.6875 18.847656 6.648438 18.800781 6.589844 L 18.078125 5.792969 C 19.835938 5.308594 21.6875 5.269531 23.453125 5.6875 L 22.933594 6.523438 C 22.894531 6.582031 22.78125 6.621094 22.636719 6.628906 Z M 22.636719 6.628906 " fill-opacity="1" fill-rule="evenodd"/><path fill="#0033b6" d="M 28.917969 10.902344 L 25.648438 9.117188 C 25.515625 9.042969 25.363281 9.0625 25.261719 9.175781 L 22.875 11.769531 C 22.78125 11.875 22.761719 12.035156 22.835938 12.167969 L 24.625 15.570312 C 24.699219 15.703125 24.84375 15.777344 24.984375 15.757812 L 28.472656 15.253906 C 28.613281 15.238281 28.726562 15.121094 28.738281 14.96875 L 29.109375 11.265625 C 29.117188 11.121094 29.042969 10.980469 28.917969 10.902344 Z M 28.917969 10.902344 " fill-opacity="1" fill-rule="evenodd"/><path fill="#0033b6" d="M 22.609375 19.644531 L 19 19.484375 C 18.847656 19.472656 18.714844 19.558594 18.675781 19.703125 L 17.714844 22.988281 C 17.679688 23.121094 17.734375 23.265625 17.851562 23.359375 L 20.871094 25.542969 C 20.996094 25.640625 21.144531 25.640625 21.269531 25.5625 L 24.089844 23.625 C 24.214844 23.550781 24.253906 23.398438 24.207031 23.253906 L 22.933594 19.871094 C 22.875 19.738281 22.75 19.644531 22.609375 19.644531 Z M 22.609375 19.644531 " fill-opacity="1" fill-rule="evenodd"/><path fill="#0033b6" d="M 18.21875 11.988281 L 15.835938 9.59375 C 15.742188 9.496094 15.597656 9.480469 15.484375 9.546875 L 12.746094 11.199219 C 12.632812 11.273438 12.578125 11.398438 12.605469 11.539062 L 13.296875 14.953125 C 13.328125 15.09375 13.433594 15.1875 13.554688 15.207031 L 16.71875 15.664062 C 16.863281 15.683594 16.976562 15.617188 17.03125 15.484375 L 18.296875 12.347656 C 18.34375 12.226562 18.316406 12.082031 18.21875 11.988281 Z M 18.21875 11.988281 " fill-opacity="1" fill-rule="evenodd"/><path fill="#e6e6e6" d="M 26.808594 9.753906 C 26.667969 8.699219 26.382812 7.664062 25.945312 6.6875 C 26.847656 7.160156 27.703125 7.789062 28.460938 8.546875 C 29.070312 9.15625 29.582031 9.8125 30.011719 10.503906 L 29.011719 10.953125 C 29.003906 10.953125 28.992188 10.953125 28.992188 10.960938 C 28.964844 10.941406 28.945312 10.921875 28.917969 10.902344 Z M 26.808594 9.753906 " fill-opacity="1" fill-rule="evenodd"/><path fill="#e6e6e6" d="M 28.738281 14.96875 L 29.109375 11.265625 C 29.109375 11.246094 29.109375 11.226562 29.109375 11.207031 C 29.117188 11.207031 29.117188 11.207031 29.125 11.199219 L 30.132812 10.753906 C 30.144531 10.753906 30.144531 10.742188 30.152344 10.742188 C 31.519531 13.109375 31.890625 15.890625 31.285156 18.496094 L 30.351562 18.609375 C 30.34375 18.609375 30.34375 18.609375 30.332031 18.609375 C 29.859375 16.832031 28.8125 15.253906 28.699219 15.09375 C 28.71875 15.054688 28.738281 15.019531 28.738281 14.96875 Z M 28.738281 14.96875 " fill-opacity="1" fill-rule="evenodd"/><path fill="#e6e6e6" d="M 26.03125 15.605469 L 28.472656 15.253906 C 28.472656 15.253906 28.472656 15.253906 28.480469 15.253906 C 28.613281 15.453125 29.628906 17.011719 30.078125 18.734375 C 30.085938 18.769531 30.113281 18.800781 30.144531 18.816406 L 30.132812 18.828125 L 28.613281 22 C 28.59375 22.039062 28.585938 22.066406 28.574219 22.097656 C 28.566406 22.105469 28.546875 22.113281 28.539062 22.125 C 28.539062 22.125 27.09375 23.53125 24.222656 23.3125 C 24.222656 23.3125 24.222656 23.3125 24.214844 23.3125 C 24.214844 23.292969 24.207031 23.273438 24.207031 23.253906 L 22.933594 19.871094 C 22.921875 19.863281 22.921875 19.855469 22.914062 19.84375 C 23.160156 19.636719 23.386719 19.425781 23.617188 19.199219 C 24.679688 18.132812 25.488281 16.910156 26.03125 15.605469 Z M 26.03125 15.605469 " fill-opacity="1" fill-rule="evenodd"/><path fill="#e6e6e6" d="M 21.269531 25.5625 L 24.089844 23.625 C 24.109375 23.617188 24.140625 23.597656 24.148438 23.578125 C 24.167969 23.585938 24.1875 23.585938 24.207031 23.585938 C 26.683594 23.777344 28.167969 22.78125 28.605469 22.429688 L 28.890625 23.082031 C 28.746094 23.234375 28.613281 23.386719 28.460938 23.539062 C 26.457031 25.542969 23.855469 26.570312 21.222656 26.636719 L 21.214844 25.621094 C 21.214844 25.609375 21.214844 25.601562 21.214844 25.59375 C 21.230469 25.582031 21.25 25.574219 21.269531 25.5625 Z M 21.269531 25.5625 " fill-opacity="1" fill-rule="evenodd"/><path fill="#e6e6e6" d="M 17.851562 23.359375 L 20.871094 25.542969 C 20.898438 25.5625 20.917969 25.574219 20.9375 25.582031 C 20.9375 25.59375 20.9375 25.609375 20.9375 25.621094 L 20.945312 26.636719 C 18.238281 26.636719 15.542969 25.601562 13.480469 23.539062 C 13.355469 23.40625 13.230469 23.285156 13.117188 23.148438 L 13.480469 22.476562 C 14.828125 23.113281 17.734375 23.285156 17.746094 23.285156 C 17.753906 23.285156 17.765625 23.285156 17.773438 23.285156 C 17.792969 23.3125 17.820312 23.332031 17.851562 23.359375 Z M 17.851562 23.359375 " fill-opacity="1" fill-rule="evenodd"/><path fill="#e6e6e6" d="M 17.714844 23 C 17.335938 22.980469 15.152344 22.816406 13.886719 22.34375 C 15.226562 22.5625 16.59375 22.53125 17.933594 22.257812 L 17.714844 22.988281 Z M 17.714844 23 " fill-opacity="1" fill-rule="evenodd"/><g clip-path="url(#671a16d0aa)"><path fill="#ffca18" d="M 34.484375 0.679688 L 28.375 6.304688 C 27.671875 5.851562 26.953125 5.460938 26.210938 5.148438 Z M 34.484375 0.679688 " fill-opacity="1" fill-rule="evenodd"/></g><g clip-path="url(#c285717045)"><path fill="#ffca18" d="M 40.453125 0.492188 L 29.667969 7.390625 C 29.792969 7.511719 29.914062 7.636719 30.039062 7.757812 C 30.417969 8.160156 31.140625 9.144531 31.453125 9.574219 Z M 40.453125 0.492188 " fill-opacity="1" fill-rule="evenodd"/></g><g clip-path="url(#b805e881f4)"><path fill="#ffca18" d="M 40.535156 5.546875 L 32.035156 10.648438 C 32.566406 11.644531 32.773438 12.40625 32.992188 13.488281 Z M 40.535156 5.546875 " fill-opacity="1" fill-rule="evenodd"/></g><g clip-path="url(#27ade6815f)"><path fill="#ffca18" d="M 33.164062 14.722656 L 40.242188 11.96875 L 33.109375 17.203125 C 33.210938 16.394531 33.230469 15.558594 33.164062 14.722656 Z M 33.164062 14.722656 " fill-opacity="1" fill-rule="evenodd"/></g><path fill="#ffca18" d="M 10.570312 9.195312 C 8.871094 11.304688 7.84375 13.980469 7.84375 16.910156 C 7.84375 23.683594 13.335938 29.171875 20.109375 29.171875 C 23.027344 29.171875 25.714844 28.148438 27.816406 26.4375 C 22.988281 29.628906 16.425781 29.097656 12.167969 24.839844 C 7.921875 20.59375 7.390625 14.03125 10.570312 9.195312 Z M 10.570312 9.195312 " fill-opacity="1" fill-rule="evenodd"/><g clip-path="url(#3e864a24a8)"><g transform="matrix(1, 0, 0, 1, 12, 42)"><g clip-path="url(#565e6b4bfb)"><g clip-path="url(#af31fecb11)"><g fill="#ffffff" fill-opacity="1"><g transform="translate(0.294099, 3.259988)"><g><path d="M 0.640625 -1.015625 L 0.78125 -1.015625 C 0.90625 -1.015625 1 -1.035156 1.0625 -1.078125 C 1.125 -1.128906 1.15625 -1.203125 1.15625 -1.296875 C 1.15625 -1.390625 1.128906 -1.457031 1.078125 -1.5 C 1.023438 -1.550781 0.941406 -1.578125 0.828125 -1.578125 L 0.640625 -1.578125 Z M 1.5625 -1.3125 C 1.5625 -1.101562 1.492188 -0.941406 1.359375 -0.828125 C 1.234375 -0.722656 1.050781 -0.671875 0.8125 -0.671875 L 0.640625 -0.671875 L 0.640625 0 L 0.234375 0 L 0.234375 -1.90625 L 0.84375 -1.90625 C 1.082031 -1.90625 1.257812 -1.851562 1.375 -1.75 C 1.5 -1.65625 1.5625 -1.507812 1.5625 -1.3125 Z M 1.5625 -1.3125 "/></g></g></g></g><g fill="#ffffff" fill-opacity="1"><g transform="translate(2.302846, 3.259988)"><g><path d="M 0.640625 -1.0625 L 0.78125 -1.0625 C 0.90625 -1.0625 1 -1.082031 1.0625 -1.125 C 1.125 -1.164062 1.15625 -1.234375 1.15625 -1.328125 C 1.15625 -1.421875 1.125 -1.484375 1.0625 -1.515625 C 1 -1.554688 0.898438 -1.578125 0.765625 -1.578125 L 0.640625 -1.578125 Z M 0.640625 -0.734375 L 0.640625 0 L 0.234375 0 L 0.234375 -1.90625 L 0.796875 -1.90625 C 1.054688 -1.90625 1.25 -1.859375 1.375 -1.765625 C 1.5 -1.671875 1.5625 -1.53125 1.5625 -1.34375 C 1.5625 -1.226562 1.53125 -1.125 1.46875 -1.03125 C 1.40625 -0.945312 1.316406 -0.878906 1.203125 -0.828125 C 1.492188 -0.398438 1.679688 -0.125 1.765625 0 L 1.3125 0 L 0.859375 -0.734375 Z M 0.640625 -0.734375 "/></g></g></g><g fill="#ffffff" fill-opacity="1"><g transform="translate(4.397458, 3.259988)"><g><path d="M 1.96875 -0.953125 C 1.96875 -0.640625 1.890625 -0.394531 1.734375 -0.21875 C 1.578125 -0.0507812 1.351562 0.03125 1.0625 0.03125 C 0.769531 0.03125 0.546875 -0.0507812 0.390625 -0.21875 C 0.234375 -0.394531 0.15625 -0.640625 0.15625 -0.953125 C 0.15625 -1.273438 0.234375 -1.519531 0.390625 -1.6875 C 0.546875 -1.851562 0.769531 -1.9375 1.0625 -1.9375 C 1.351562 -1.9375 1.578125 -1.851562 1.734375 -1.6875 C 1.890625 -1.519531 1.96875 -1.273438 1.96875 -0.953125 Z M 0.578125 -0.953125 C 0.578125 -0.742188 0.617188 -0.582031 0.703125 -0.46875 C 0.785156 -0.363281 0.90625 -0.3125 1.0625 -0.3125 C 1.382812 -0.3125 1.546875 -0.523438 1.546875 -0.953125 C 1.546875 -1.378906 1.382812 -1.59375 1.0625 -1.59375 C 0.90625 -1.59375 0.785156 -1.539062 0.703125 -1.4375 C 0.617188 -1.332031 0.578125 -1.171875 0.578125 -0.953125 Z M 0.578125 -0.953125 "/></g></g></g><g fill="#ffffff" fill-opacity="1"><g transform="translate(6.853737, 3.259988)"><g/></g></g><g fill="#ffffff" fill-opacity="1"><g transform="translate(7.881559, 3.259988)"><g><path d="M 1.046875 -1.59375 C 0.898438 -1.59375 0.785156 -1.535156 0.703125 -1.421875 C 0.617188 -1.304688 0.578125 -1.148438 0.578125 -0.953125 C 0.578125 -0.523438 0.734375 -0.3125 1.046875 -0.3125 C 1.179688 -0.3125 1.34375 -0.34375 1.53125 -0.40625 L 1.53125 -0.078125 C 1.375 -0.00390625 1.203125 0.03125 1.015625 0.03125 C 0.734375 0.03125 0.519531 -0.0507812 0.375 -0.21875 C 0.226562 -0.394531 0.15625 -0.640625 0.15625 -0.953125 C 0.15625 -1.148438 0.191406 -1.320312 0.265625 -1.46875 C 0.335938 -1.625 0.441406 -1.738281 0.578125 -1.8125 C 0.710938 -1.894531 0.867188 -1.9375 1.046875 -1.9375 C 1.234375 -1.9375 1.421875 -1.890625 1.609375 -1.796875 L 1.484375 -1.46875 C 1.410156 -1.5 1.335938 -1.523438 1.265625 -1.546875 C 1.191406 -1.578125 1.117188 -1.59375 1.046875 -1.59375 Z M 1.046875 -1.59375 "/></g></g></g><g fill="#ffffff" fill-opacity="1"><g transform="translate(9.915025, 3.259988)"><g><path d="M 0.234375 0 L 0.234375 -1.90625 L 0.640625 -1.90625 L 0.640625 -0.328125 L 1.421875 -0.328125 L 1.421875 0 Z M 0.234375 0 "/></g></g></g><g fill="#ffffff" fill-opacity="1"><g transform="translate(11.755949, 3.259988)"><g><path d="M 1.796875 -1.90625 L 1.796875 -0.671875 C 1.796875 -0.535156 1.765625 -0.410156 1.703125 -0.296875 C 1.640625 -0.191406 1.546875 -0.109375 1.421875 -0.046875 C 1.304688 0.00390625 1.164062 0.03125 1 0.03125 C 0.757812 0.03125 0.570312 -0.03125 0.4375 -0.15625 C 0.300781 -0.28125 0.234375 -0.453125 0.234375 -0.671875 L 0.234375 -1.90625 L 0.625 -1.90625 L 0.625 -0.734375 C 0.625 -0.585938 0.65625 -0.476562 0.71875 -0.40625 C 0.78125 -0.34375 0.878906 -0.3125 1.015625 -0.3125 C 1.140625 -0.3125 1.234375 -0.34375 1.296875 -0.40625 C 1.359375 -0.476562 1.390625 -0.59375 1.390625 -0.75 L 1.390625 -1.90625 Z M 1.796875 -1.90625 "/></g></g></g><g fill="#ffffff" fill-opacity="1"><g transform="translate(14.105549, 3.259988)"><g><path d="M 0.234375 -1.90625 L 0.828125 -1.90625 C 1.097656 -1.90625 1.296875 -1.863281 1.421875 -1.78125 C 1.546875 -1.707031 1.609375 -1.585938 1.609375 -1.421875 C 1.609375 -1.304688 1.582031 -1.210938 1.53125 -1.140625 C 1.476562 -1.066406 1.40625 -1.023438 1.3125 -1.015625 L 1.3125 -1 C 1.4375 -0.96875 1.523438 -0.914062 1.578125 -0.84375 C 1.628906 -0.769531 1.65625 -0.671875 1.65625 -0.546875 C 1.65625 -0.378906 1.59375 -0.242188 1.46875 -0.140625 C 1.34375 -0.046875 1.171875 0 0.953125 0 L 0.234375 0 Z M 0.640625 -1.15625 L 0.875 -1.15625 C 0.988281 -1.15625 1.066406 -1.171875 1.109375 -1.203125 C 1.160156 -1.234375 1.1875 -1.289062 1.1875 -1.375 C 1.1875 -1.445312 1.160156 -1.5 1.109375 -1.53125 C 1.054688 -1.5625 0.972656 -1.578125 0.859375 -1.578125 L 0.640625 -1.578125 Z M 0.640625 -0.828125 L 0.640625 -0.328125 L 0.90625 -0.328125 C 1.019531 -0.328125 1.101562 -0.347656 1.15625 -0.390625 C 1.207031 -0.441406 1.234375 -0.507812 1.234375 -0.59375 C 1.234375 -0.75 1.117188 -0.828125 0.890625 -0.828125 Z M 0.640625 -0.828125 "/></g></g></g><g fill="#ffffff" fill-opacity="1"><g transform="translate(16.231383, 3.259988)"><g><path d="M 1.359375 -0.53125 C 1.359375 -0.351562 1.296875 -0.210938 1.171875 -0.109375 C 1.054688 -0.015625 0.882812 0.03125 0.65625 0.03125 C 0.457031 0.03125 0.28125 -0.0078125 0.125 -0.09375 L 0.125 -0.46875 C 0.25 -0.40625 0.351562 -0.363281 0.4375 -0.34375 C 0.53125 -0.320312 0.613281 -0.3125 0.6875 -0.3125 C 0.78125 -0.3125 0.847656 -0.328125 0.890625 -0.359375 C 0.941406 -0.390625 0.96875 -0.441406 0.96875 -0.515625 C 0.96875 -0.546875 0.957031 -0.578125 0.9375 -0.609375 C 0.914062 -0.640625 0.882812 -0.664062 0.84375 -0.6875 C 0.800781 -0.71875 0.71875 -0.765625 0.59375 -0.828125 C 0.476562 -0.878906 0.390625 -0.929688 0.328125 -0.984375 C 0.273438 -1.035156 0.226562 -1.09375 0.1875 -1.15625 C 0.15625 -1.21875 0.140625 -1.296875 0.140625 -1.390625 C 0.140625 -1.554688 0.195312 -1.6875 0.3125 -1.78125 C 0.425781 -1.882812 0.585938 -1.9375 0.796875 -1.9375 C 0.890625 -1.9375 0.976562 -1.921875 1.0625 -1.890625 C 1.15625 -1.867188 1.253906 -1.835938 1.359375 -1.796875 L 1.21875 -1.484375 C 1.125 -1.523438 1.039062 -1.550781 0.96875 -1.5625 C 0.90625 -1.582031 0.84375 -1.59375 0.78125 -1.59375 C 0.695312 -1.59375 0.632812 -1.570312 0.59375 -1.53125 C 0.5625 -1.5 0.546875 -1.457031 0.546875 -1.40625 C 0.546875 -1.375 0.550781 -1.34375 0.5625 -1.3125 C 0.582031 -1.28125 0.609375 -1.253906 0.640625 -1.234375 C 0.679688 -1.210938 0.769531 -1.164062 0.90625 -1.09375 C 1.082031 -1.007812 1.203125 -0.925781 1.265625 -0.84375 C 1.328125 -0.757812 1.359375 -0.65625 1.359375 -0.53125 Z M 1.359375 -0.53125 "/></g></g></g></g></g></g><g clip-path="url(#aff5586d46)"><g transform="matrix(1, 0, 0, 1, 0, 33)"><g clip-path="url(#c97452a1cb)"><g fill="#ffffff" fill-opacity="1"><g transform="translate(0.840978, 7.485434)"><g><path d="M 5.359375 0 L 5.359375 -3.125 L 3.828125 -0.546875 L 3.28125 -0.546875 L 1.75 -3.0625 L 1.75 0 L 0.625 0 L 0.625 -5.21875 L 1.625 -5.21875 L 3.5625 -1.96875 L 5.5 -5.21875 L 6.484375 -5.21875 L 6.5 0 Z M 5.359375 0 "/></g></g></g><g fill="#ffffff" fill-opacity="1"><g transform="translate(7.807046, 7.485434)"><g><path d="M 4.65625 -0.96875 L 4.65625 0 L 0.625 0 L 0.625 -5.21875 L 4.5625 -5.21875 L 4.5625 -4.25 L 1.8125 -4.25 L 1.8125 -3.109375 L 4.234375 -3.109375 L 4.234375 -2.171875 L 1.8125 -2.171875 L 1.8125 -0.96875 Z M 4.65625 -0.96875 "/></g></g></g><g fill="#ffffff" fill-opacity="1"><g transform="translate(12.657223, 7.485434)"><g><path d="M 3.9375 0 L 2.9375 -1.453125 L 1.828125 -1.453125 L 1.828125 0 L 0.625 0 L 0.625 -5.21875 L 2.875 -5.21875 C 3.332031 -5.21875 3.734375 -5.140625 4.078125 -4.984375 C 4.421875 -4.828125 4.679688 -4.609375 4.859375 -4.328125 C 5.046875 -4.046875 5.140625 -3.710938 5.140625 -3.328125 C 5.140625 -2.941406 5.046875 -2.609375 4.859375 -2.328125 C 4.671875 -2.046875 4.40625 -1.828125 4.0625 -1.671875 L 5.234375 0 Z M 3.921875 -3.328125 C 3.921875 -3.617188 3.828125 -3.84375 3.640625 -4 C 3.453125 -4.15625 3.175781 -4.234375 2.8125 -4.234375 L 1.828125 -4.234375 L 1.828125 -2.421875 L 2.8125 -2.421875 C 3.175781 -2.421875 3.453125 -2.5 3.640625 -2.65625 C 3.828125 -2.8125 3.921875 -3.035156 3.921875 -3.328125 Z M 3.921875 -3.328125 "/></g></g></g><g fill="#ffffff" fill-opacity="1"><g transform="translate(17.984221, 7.485434)"><g><path d="M 3.109375 0.09375 C 2.578125 0.09375 2.097656 -0.0195312 1.671875 -0.25 C 1.242188 -0.488281 0.90625 -0.8125 0.65625 -1.21875 C 0.414062 -1.625 0.296875 -2.085938 0.296875 -2.609375 C 0.296875 -3.128906 0.414062 -3.59375 0.65625 -4 C 0.90625 -4.40625 1.242188 -4.722656 1.671875 -4.953125 C 2.097656 -5.191406 2.582031 -5.3125 3.125 -5.3125 C 3.570312 -5.3125 3.976562 -5.226562 4.34375 -5.0625 C 4.707031 -4.90625 5.015625 -4.675781 5.265625 -4.375 L 4.5 -3.671875 C 4.144531 -4.078125 3.707031 -4.28125 3.1875 -4.28125 C 2.863281 -4.28125 2.570312 -4.207031 2.3125 -4.0625 C 2.0625 -3.925781 1.863281 -3.726562 1.71875 -3.46875 C 1.582031 -3.21875 1.515625 -2.929688 1.515625 -2.609375 C 1.515625 -2.285156 1.582031 -1.992188 1.71875 -1.734375 C 1.863281 -1.484375 2.0625 -1.285156 2.3125 -1.140625 C 2.570312 -1.003906 2.863281 -0.9375 3.1875 -0.9375 C 3.707031 -0.9375 4.144531 -1.144531 4.5 -1.5625 L 5.265625 -0.84375 C 5.015625 -0.539062 4.707031 -0.304688 4.34375 -0.140625 C 3.976562 0.015625 3.566406 0.09375 3.109375 0.09375 Z M 3.109375 0.09375 "/></g></g></g><g fill="#ffffff" fill-opacity="1"><g transform="translate(23.296317, 7.485434)"><g><path d="M 4.046875 -1.125 L 1.625 -1.125 L 1.171875 0 L -0.0625 0 L 2.265625 -5.21875 L 3.453125 -5.21875 L 5.78125 0 L 4.515625 0 Z M 3.671875 -2.03125 L 2.84375 -4.03125 L 2.015625 -2.03125 Z M 3.671875 -2.03125 "/></g></g></g><g fill="#ffffff" fill-opacity="1"><g transform="translate(28.854269, 7.485434)"><g><path d="M 0.625 -5.21875 L 2.984375 -5.21875 C 3.554688 -5.21875 4.054688 -5.109375 4.484375 -4.890625 C 4.921875 -4.671875 5.257812 -4.363281 5.5 -3.96875 C 5.738281 -3.582031 5.859375 -3.128906 5.859375 -2.609375 C 5.859375 -2.085938 5.738281 -1.628906 5.5 -1.234375 C 5.257812 -0.835938 4.921875 -0.53125 4.484375 -0.3125 C 4.054688 -0.101562 3.554688 0 2.984375 0 L 0.625 0 Z M 2.921875 -0.984375 C 3.453125 -0.984375 3.867188 -1.128906 4.171875 -1.421875 C 4.484375 -1.710938 4.640625 -2.109375 4.640625 -2.609375 C 4.640625 -3.109375 4.484375 -3.5 4.171875 -3.78125 C 3.867188 -4.070312 3.453125 -4.21875 2.921875 -4.21875 L 1.828125 -4.21875 L 1.828125 -0.984375 Z M 2.921875 -0.984375 "/></g></g></g><g fill="#ffffff" fill-opacity="1"><g transform="translate(34.859239, 7.485434)"><g><path d="M 3.140625 0.09375 C 2.597656 0.09375 2.109375 -0.0195312 1.671875 -0.25 C 1.242188 -0.488281 0.90625 -0.8125 0.65625 -1.21875 C 0.414062 -1.632812 0.296875 -2.097656 0.296875 -2.609375 C 0.296875 -3.117188 0.414062 -3.578125 0.65625 -3.984375 C 0.90625 -4.398438 1.242188 -4.722656 1.671875 -4.953125 C 2.109375 -5.191406 2.597656 -5.3125 3.140625 -5.3125 C 3.679688 -5.3125 4.164062 -5.191406 4.59375 -4.953125 C 5.03125 -4.722656 5.375 -4.398438 5.625 -3.984375 C 5.875 -3.578125 6 -3.117188 6 -2.609375 C 6 -2.097656 5.875 -1.632812 5.625 -1.21875 C 5.375 -0.8125 5.03125 -0.488281 4.59375 -0.25 C 4.164062 -0.0195312 3.679688 0.09375 3.140625 0.09375 Z M 3.140625 -0.9375 C 3.453125 -0.9375 3.734375 -1.003906 3.984375 -1.140625 C 4.234375 -1.285156 4.425781 -1.484375 4.5625 -1.734375 C 4.707031 -1.992188 4.78125 -2.285156 4.78125 -2.609375 C 4.78125 -2.929688 4.707031 -3.21875 4.5625 -3.46875 C 4.425781 -3.726562 4.234375 -3.925781 3.984375 -4.0625 C 3.734375 -4.207031 3.453125 -4.28125 3.140625 -4.28125 C 2.835938 -4.28125 2.5625 -4.207031 2.3125 -4.0625 C 2.0625 -3.925781 1.863281 -3.726562 1.71875 -3.46875 C 1.582031 -3.21875 1.515625 -2.929688 1.515625 -2.609375 C 1.515625 -2.285156 1.582031 -1.992188 1.71875 -1.734375 C 1.863281 -1.484375 2.0625 -1.285156 2.3125 -1.140625 C 2.5625 -1.003906 2.835938 -0.9375 3.140625 -0.9375 Z M 3.140625 -0.9375 "/></g></g></g></g></g></g></g></g></svg>