<svg xmlns="http://www.w3.org/2000/svg" xmlns:xlink="http://www.w3.org/1999/xlink" width="100" zoomAndPan="magnify" viewBox="0 0 75 74.999997" height="100" preserveAspectRatio="xMidYMid meet" version="1.0"><defs><clipPath id="fcc25720a2"><path d="M 6.46875 27 L 24 27 L 24 59 L 6.46875 59 Z M 6.46875 27 " clip-rule="nonzero"/></clipPath><clipPath id="da63bb8016"><path d="M 55 6 L 68.71875 6 L 68.71875 21 L 55 21 Z M 55 6 " clip-rule="nonzero"/></clipPath></defs><path fill="#ffffff" d="M 10.863281 52.769531 C 10.480469 52.6875 10.117188 52.582031 9.773438 52.460938 L 13.808594 57.785156 L 10.527344 70.699219 C 10.058594 72.550781 11.179688 74.433594 13.03125 74.90625 C 13.316406 74.976562 13.601562 75.011719 13.882812 75.011719 C 15.429688 75.011719 16.835938 73.96875 17.234375 72.402344 L 20.164062 60.863281 L 20.070312 60.703125 Z M 10.863281 52.769531 " fill-opacity="1" fill-rule="nonzero"/><g clip-path="url(#fcc25720a2)"><path fill="#ffffff" d="M 11.242188 52 L 18.683594 58.414062 L 23.511719 53.441406 L 16.269531 47.199219 C 16.292969 46.871094 16.324219 46.539062 16.363281 46.210938 L 10.652344 41.902344 C 9.621094 41.128906 9.25 39.757812 9.742188 38.570312 L 12.792969 31.214844 C 13.234375 30.15625 14.257812 29.472656 15.402344 29.472656 C 15.773438 29.472656 16.136719 29.546875 16.484375 29.6875 C 17.921875 30.285156 18.605469 31.941406 18.007812 33.378906 L 15.796875 38.714844 L 17.699219 40.148438 C 18.308594 38.121094 18.996094 36.21875 19.539062 34.613281 C 20.6875 31.984375 20.09375 28.582031 17.828125 27.6875 C 15.566406 26.792969 12 27.613281 10.085938 31.445312 C 7.484375 36.730469 6.605469 40.28125 6.503906 46.46875 C 6.738281 50.402344 9.003906 51.566406 11.242188 52 Z M 11.242188 52 " fill-opacity="1" fill-rule="nonzero"/></g><path fill="#ffffff" d="M 19.523438 59.136719 L 20.710938 60.160156 L 27.253906 70.949219 C 27.902344 72.019531 29.042969 72.613281 30.214844 72.613281 C 30.824219 72.613281 31.445312 72.453125 32.003906 72.109375 C 33.636719 71.121094 34.160156 68.992188 33.167969 67.359375 L 26.339844 56.105469 C 26.152344 55.792969 25.917969 55.515625 25.640625 55.277344 L 24.347656 54.164062 Z M 19.523438 59.136719 " fill-opacity="1" fill-rule="nonzero"/><path fill="#ffffff" d="M 15.050781 38.914062 L 17.445312 33.144531 C 17.914062 32.015625 17.378906 30.71875 16.25 30.25 C 15.121094 29.78125 13.824219 30.316406 13.355469 31.449219 L 10.304688 38.800781 C 9.917969 39.734375 10.210938 40.808594 11.015625 41.417969 L 19.191406 47.582031 C 19.589844 47.882812 20.058594 48.027344 20.523438 48.027344 C 21.195312 48.027344 21.855469 47.722656 22.292969 47.148438 C 23.027344 46.171875 22.832031 44.78125 21.855469 44.046875 Z M 15.050781 38.914062 " fill-opacity="1" fill-rule="nonzero"/><path fill="#ffffff" d="M 23.40625 15.046875 C 23.8125 15.097656 24.207031 15.191406 24.59375 15.324219 C 24.980469 15.457031 25.351562 15.625 25.707031 15.828125 C 26.058594 16.035156 26.390625 16.273438 26.699219 16.542969 C 27.003906 16.8125 27.28125 17.109375 27.53125 17.433594 C 27.78125 17.757812 27.992188 18.105469 28.175781 18.472656 C 28.355469 18.835938 28.496094 19.21875 28.601562 19.613281 C 28.707031 20.007812 28.773438 20.410156 28.800781 20.820312 C 28.828125 21.226562 28.8125 21.632812 28.757812 22.039062 C 28.707031 22.445312 28.613281 22.839844 28.480469 23.226562 C 28.347656 23.613281 28.179688 23.984375 27.976562 24.339844 C 27.769531 24.691406 27.53125 25.023438 27.261719 25.328125 C 26.992188 25.636719 26.695312 25.914062 26.371094 26.164062 C 26.046875 26.410156 25.699219 26.625 25.332031 26.804688 C 24.96875 26.988281 24.585938 27.128906 24.191406 27.234375 C 23.796875 27.339844 23.394531 27.40625 22.984375 27.433594 C 22.578125 27.457031 22.171875 27.445312 21.765625 27.390625 C 21.359375 27.335938 20.964844 27.246094 20.578125 27.113281 C 20.191406 26.980469 19.820312 26.8125 19.464844 26.605469 C 19.113281 26.402344 18.78125 26.164062 18.476562 25.894531 C 18.167969 25.625 17.890625 25.328125 17.640625 25.003906 C 17.394531 24.679688 17.179688 24.332031 17 23.964844 C 16.816406 23.597656 16.675781 23.21875 16.570312 22.824219 C 16.464844 22.429688 16.398438 22.027344 16.371094 21.617188 C 16.347656 21.210938 16.359375 20.804688 16.414062 20.398438 C 16.46875 19.992188 16.558594 19.597656 16.691406 19.210938 C 16.824219 18.824219 16.992188 18.453125 17.199219 18.097656 C 17.402344 17.746094 17.640625 17.414062 17.910156 17.105469 C 18.179688 16.800781 18.476562 16.523438 18.800781 16.273438 C 19.125 16.023438 19.472656 15.8125 19.839844 15.628906 C 20.207031 15.449219 20.585938 15.308594 20.980469 15.203125 C 21.375 15.097656 21.777344 15.03125 22.1875 15.003906 C 22.59375 14.976562 23 14.992188 23.40625 15.046875 Z M 23.40625 15.046875 " fill-opacity="1" fill-rule="nonzero"/><path fill="#ffffff" d="M 39.527344 67.214844 L 45.464844 57.554688 C 44.574219 57.355469 43.75 56.980469 43.035156 56.460938 L 36.023438 66.203125 Z M 39.527344 67.214844 " fill-opacity="1" fill-rule="nonzero"/><path fill="#ffffff" d="M 52.039062 46.859375 L 61.609375 31.285156 L 61.160156 31.285156 L 50.789062 45.6875 C 51.253906 46.023438 51.675781 46.417969 52.039062 46.859375 Z M 52.039062 46.859375 " fill-opacity="1" fill-rule="nonzero"/><path fill="#ffffff" d="M 52.441406 51.070312 C 52.441406 51.4375 52.40625 51.796875 52.335938 52.152344 C 52.265625 52.507812 52.160156 52.855469 52.023438 53.191406 C 51.882812 53.527344 51.710938 53.84375 51.511719 54.148438 C 51.308594 54.449219 51.078125 54.730469 50.820312 54.984375 C 50.566406 55.242188 50.285156 55.472656 49.984375 55.675781 C 49.679688 55.875 49.363281 56.046875 49.027344 56.1875 C 48.691406 56.324219 48.34375 56.429688 47.988281 56.5 C 47.632812 56.570312 47.269531 56.605469 46.90625 56.605469 C 46.542969 56.605469 46.183594 56.570312 45.828125 56.5 C 45.472656 56.429688 45.125 56.324219 44.789062 56.1875 C 44.453125 56.046875 44.136719 55.875 43.832031 55.675781 C 43.53125 55.472656 43.25 55.242188 42.992188 54.984375 C 42.738281 54.730469 42.507812 54.449219 42.304688 54.148438 C 42.105469 53.84375 41.933594 53.527344 41.792969 53.191406 C 41.65625 52.855469 41.550781 52.507812 41.480469 52.152344 C 41.410156 51.796875 41.371094 51.4375 41.371094 51.070312 C 41.371094 50.707031 41.410156 50.347656 41.480469 49.992188 C 41.550781 49.636719 41.65625 49.289062 41.792969 48.953125 C 41.933594 48.617188 42.105469 48.300781 42.304688 47.996094 C 42.507812 47.695312 42.738281 47.414062 42.992188 47.160156 C 43.25 46.902344 43.53125 46.671875 43.832031 46.46875 C 44.136719 46.269531 44.453125 46.097656 44.789062 45.957031 C 45.125 45.820312 45.472656 45.714844 45.828125 45.644531 C 46.183594 45.574219 46.542969 45.539062 46.90625 45.539062 C 47.269531 45.539062 47.632812 45.574219 47.988281 45.644531 C 48.34375 45.714844 48.691406 45.820312 49.027344 45.957031 C 49.363281 46.097656 49.679688 46.269531 49.984375 46.46875 C 50.285156 46.671875 50.566406 46.902344 50.820312 47.160156 C 51.078125 47.414062 51.308594 47.695312 51.511719 47.996094 C 51.710938 48.300781 51.882812 48.617188 52.023438 48.953125 C 52.160156 49.289062 52.265625 49.636719 52.335938 49.992188 C 52.40625 50.347656 52.441406 50.707031 52.441406 51.070312 Z M 52.441406 51.070312 " fill-opacity="1" fill-rule="nonzero"/><g clip-path="url(#da63bb8016)"><path fill="#ffffff" d="M 56.925781 18.171875 C 56.945312 18.171875 56.964844 18.171875 56.988281 18.171875 C 57.535156 18.140625 57.953125 17.667969 57.917969 17.121094 C 57.664062 12.761719 58.160156 10.4375 58.714844 9.285156 L 58.714844 15.738281 C 58.714844 15.789062 58.722656 15.835938 58.726562 15.882812 L 58.265625 20.605469 L 61.351562 20.605469 L 61.730469 16.699219 L 62.410156 16.699219 L 62.789062 20.605469 L 65.871094 20.605469 L 65.414062 15.882812 C 65.417969 15.835938 65.425781 15.789062 65.425781 15.738281 L 65.425781 9.285156 C 65.980469 10.4375 66.476562 12.761719 66.21875 17.121094 C 66.1875 17.667969 66.605469 18.140625 67.152344 18.171875 C 67.171875 18.171875 67.191406 18.171875 67.210938 18.171875 C 67.734375 18.171875 68.171875 17.765625 68.203125 17.238281 C 68.507812 11.996094 67.855469 8.574219 66.253906 7.070312 C 65.53125 6.394531 64.828125 6.296875 64.492188 6.292969 C 64.484375 6.292969 64.476562 6.292969 64.46875 6.292969 L 63.683594 6.292969 C 63.445312 6.90625 62.8125 7.34375 62.070312 7.34375 C 61.324219 7.34375 60.695312 6.90625 60.457031 6.292969 L 59.671875 6.292969 C 59.664062 6.292969 59.65625 6.292969 59.648438 6.292969 C 59.3125 6.296875 58.605469 6.394531 57.886719 7.070312 C 56.285156 8.574219 55.628906 11.996094 55.9375 17.238281 C 55.96875 17.765625 56.40625 18.171875 56.925781 18.171875 Z M 56.925781 18.171875 " fill-opacity="1" fill-rule="nonzero"/></g><path fill="#ffffff" d="M 63.511719 28.015625 C 63.59375 28.859375 64.34375 29.476562 65.1875 29.394531 C 66.03125 29.3125 66.648438 28.5625 66.566406 27.71875 L 65.921875 21.101562 L 62.835938 21.101562 Z M 63.511719 28.015625 " fill-opacity="1" fill-rule="nonzero"/><path fill="#ffffff" d="M 57.574219 27.71875 C 57.492188 28.5625 58.109375 29.3125 58.953125 29.394531 C 59.796875 29.476562 60.546875 28.859375 60.628906 28.015625 L 61.300781 21.101562 L 58.21875 21.101562 Z M 57.574219 27.71875 " fill-opacity="1" fill-rule="nonzero"/><path fill="#ffffff" d="M 63.636719 5.105469 C 64.375 4.601562 64.863281 3.753906 64.863281 2.792969 C 64.863281 1.25 63.613281 0 62.070312 0 C 60.527344 0 59.277344 1.25 59.277344 2.792969 C 59.277344 3.753906 59.765625 4.601562 60.503906 5.105469 C 60.949219 5.40625 61.488281 5.585938 62.070312 5.585938 C 62.652344 5.585938 63.191406 5.40625 63.636719 5.105469 Z M 63.636719 5.105469 " fill-opacity="1" fill-rule="nonzero"/></svg>