<svg xmlns="http://www.w3.org/2000/svg" xmlns:xlink="http://www.w3.org/1999/xlink" width="320" zoomAndPan="magnify" viewBox="0 0 240 576" height="800" preserveAspectRatio="xMidYMid meet" version="1.0"><defs><clipPath id="cbf4b0a047"><path d="M 112.769531 360.3125 L 127.769531 360.3125 L 127.769531 375.3125 L 112.769531 375.3125 Z M 112.769531 360.3125 " clip-rule="nonzero"/></clipPath></defs><g clip-path="url(#cbf4b0a047)"><path fill="#ffffff" d="M 113.839844 360.308594 C 113.699219 360.308594 113.5625 360.332031 113.433594 360.386719 C 113.300781 360.4375 113.1875 360.515625 113.085938 360.613281 C 112.988281 360.710938 112.910156 360.824219 112.855469 360.953125 C 112.800781 361.082031 112.773438 361.21875 112.773438 361.359375 C 112.773438 361.5 112.800781 361.632812 112.855469 361.761719 C 112.910156 361.894531 112.988281 362.007812 113.085938 362.105469 C 113.1875 362.203125 113.300781 362.277344 113.433594 362.332031 C 113.5625 362.382812 113.699219 362.410156 113.839844 362.40625 L 126.835938 362.40625 C 126.976562 362.410156 127.109375 362.382812 127.242188 362.332031 C 127.371094 362.277344 127.488281 362.203125 127.585938 362.105469 C 127.6875 362.007812 127.761719 361.894531 127.816406 361.761719 C 127.871094 361.632812 127.898438 361.5 127.898438 361.359375 C 127.898438 361.21875 127.871094 361.082031 127.816406 360.953125 C 127.761719 360.824219 127.6875 360.710938 127.585938 360.613281 C 127.488281 360.515625 127.371094 360.4375 127.242188 360.386719 C 127.109375 360.332031 126.976562 360.308594 126.835938 360.308594 Z M 113.839844 367.019531 C 113.699219 367.015625 113.5625 367.042969 113.433594 367.09375 C 113.300781 367.148438 113.1875 367.222656 113.085938 367.320312 C 112.988281 367.417969 112.910156 367.53125 112.855469 367.664062 C 112.800781 367.792969 112.773438 367.925781 112.773438 368.066406 C 112.773438 368.207031 112.800781 368.34375 112.855469 368.472656 C 112.910156 368.601562 112.988281 368.714844 113.085938 368.8125 C 113.1875 368.910156 113.300781 368.988281 113.433594 369.039062 C 113.5625 369.09375 113.699219 369.117188 113.839844 369.113281 L 126.835938 369.113281 C 126.976562 369.117188 127.109375 369.09375 127.242188 369.039062 C 127.371094 368.988281 127.488281 368.910156 127.585938 368.8125 C 127.6875 368.714844 127.761719 368.601562 127.816406 368.472656 C 127.871094 368.34375 127.898438 368.207031 127.898438 368.066406 C 127.898438 367.925781 127.871094 367.792969 127.816406 367.664062 C 127.761719 367.53125 127.6875 367.417969 127.585938 367.320312 C 127.488281 367.222656 127.371094 367.148438 127.242188 367.09375 C 127.109375 367.042969 126.976562 367.015625 126.835938 367.019531 Z M 113.839844 373.308594 C 113.699219 373.304688 113.5625 373.332031 113.433594 373.382812 C 113.300781 373.4375 113.1875 373.511719 113.085938 373.609375 C 112.988281 373.707031 112.910156 373.820312 112.855469 373.953125 C 112.800781 374.082031 112.773438 374.214844 112.773438 374.355469 C 112.773438 374.496094 112.800781 374.632812 112.855469 374.761719 C 112.910156 374.890625 112.988281 375.003906 113.085938 375.101562 C 113.1875 375.199219 113.300781 375.277344 113.433594 375.328125 C 113.5625 375.382812 113.699219 375.40625 113.839844 375.402344 L 126.835938 375.402344 C 126.976562 375.40625 127.109375 375.382812 127.242188 375.328125 C 127.371094 375.277344 127.488281 375.199219 127.585938 375.101562 C 127.6875 375.003906 127.761719 374.890625 127.816406 374.761719 C 127.871094 374.632812 127.898438 374.496094 127.898438 374.355469 C 127.898438 374.214844 127.871094 374.082031 127.816406 373.953125 C 127.761719 373.820312 127.6875 373.707031 127.585938 373.609375 C 127.488281 373.511719 127.371094 373.4375 127.242188 373.382812 C 127.109375 373.332031 126.976562 373.304688 126.835938 373.308594 Z M 113.839844 373.308594 " fill-opacity="1" fill-rule="nonzero"/></g></svg>