<svg xmlns="http://www.w3.org/2000/svg" xmlns:xlink="http://www.w3.org/1999/xlink" width="250" zoomAndPan="magnify" viewBox="0 0 187.5 187.499992" height="250" preserveAspectRatio="xMidYMid meet" version="1.0"><path fill="#000000" d="M 159.617188 27.386719 C 141.957031 9.726562 118.476562 0 93.5 0 C 68.523438 0 45.046875 9.726562 27.386719 27.386719 C 9.726562 45.046875 0 68.527344 0 93.5 C 0 118.476562 9.726562 141.957031 27.386719 159.617188 C 45.046875 177.273438 68.523438 187 93.5 187 C 118.476562 187 141.957031 177.273438 159.617188 159.617188 C 177.273438 141.957031 187 118.476562 187 93.5 C 187 68.523438 177.273438 45.046875 159.617188 27.386719 Z M 159.617188 27.386719 " fill-opacity="1" fill-rule="nonzero"/><path fill="#ffffff" d="M 115.832031 49.089844 C 116.5625 49.824219 117.253906 50.585938 117.910156 51.386719 C 118.566406 52.1875 119.183594 53.015625 119.757812 53.875 C 120.332031 54.738281 120.863281 55.621094 121.351562 56.535156 C 121.839844 57.445312 122.28125 58.378906 122.675781 59.335938 C 123.070312 60.292969 123.421875 61.265625 123.71875 62.253906 C 124.019531 63.242188 124.269531 64.246094 124.472656 65.261719 C 124.675781 66.273438 124.828125 67.296875 124.929688 68.324219 C 125.027344 69.355469 125.078125 70.386719 125.078125 71.421875 C 125.078125 72.453125 125.027344 73.488281 124.929688 74.515625 C 124.828125 75.546875 124.675781 76.566406 124.472656 77.582031 C 124.269531 78.59375 124.019531 79.597656 123.71875 80.585938 C 123.421875 81.578125 123.070312 82.550781 122.675781 83.503906 C 122.28125 84.460938 121.839844 85.394531 121.351562 86.304688 C 120.863281 87.21875 120.332031 88.105469 119.757812 88.964844 C 119.183594 89.824219 118.566406 90.652344 117.910156 91.453125 C 117.253906 92.253906 116.5625 93.019531 115.832031 93.75 C 115.097656 94.480469 114.335938 95.175781 113.535156 95.832031 C 112.734375 96.488281 111.90625 97.101562 111.046875 97.675781 C 110.1875 98.25 109.300781 98.78125 108.386719 99.269531 C 107.476562 99.757812 106.542969 100.199219 105.585938 100.59375 C 104.628906 100.992188 103.65625 101.339844 102.667969 101.640625 C 101.679688 101.9375 100.675781 102.191406 99.660156 102.390625 C 98.648438 102.59375 97.625 102.746094 96.597656 102.847656 C 95.566406 102.949219 94.535156 103 93.5 103 C 92.46875 103 91.433594 102.949219 90.40625 102.847656 C 89.378906 102.746094 88.355469 102.59375 87.339844 102.390625 C 86.328125 102.191406 85.324219 101.9375 84.335938 101.640625 C 83.34375 101.339844 82.371094 100.992188 81.417969 100.59375 C 80.460938 100.199219 79.527344 99.757812 78.617188 99.269531 C 77.703125 98.78125 76.816406 98.25 75.957031 97.675781 C 75.097656 97.101562 74.269531 96.488281 73.46875 95.832031 C 72.667969 95.175781 71.902344 94.480469 71.171875 93.75 C 70.441406 93.019531 69.746094 92.253906 69.089844 91.453125 C 68.433594 90.652344 67.820312 89.824219 67.246094 88.964844 C 66.671875 88.105469 66.140625 87.21875 65.652344 86.304688 C 65.164062 85.394531 64.722656 84.460938 64.328125 83.503906 C 63.929688 82.550781 63.582031 81.578125 63.28125 80.585938 C 62.984375 79.597656 62.730469 78.59375 62.53125 77.582031 C 62.328125 76.566406 62.175781 75.546875 62.074219 74.515625 C 61.972656 73.488281 61.921875 72.453125 61.921875 71.421875 C 61.921875 70.386719 61.972656 69.355469 62.074219 68.324219 C 62.175781 67.296875 62.328125 66.273438 62.53125 65.261719 C 62.730469 64.246094 62.984375 63.242188 63.28125 62.253906 C 63.582031 61.265625 63.929688 60.292969 64.328125 59.335938 C 64.722656 58.378906 65.164062 57.445312 65.652344 56.535156 C 66.140625 55.621094 66.671875 54.738281 67.246094 53.875 C 67.820312 53.015625 68.433594 52.1875 69.089844 51.386719 C 69.746094 50.585938 70.441406 49.824219 71.171875 49.089844 C 71.902344 48.359375 72.667969 47.667969 73.46875 47.011719 C 74.269531 46.355469 75.097656 45.738281 75.957031 45.164062 C 76.816406 44.589844 77.703125 44.058594 78.617188 43.570312 C 79.527344 43.082031 80.460938 42.640625 81.417969 42.246094 C 82.371094 41.851562 83.34375 41.503906 84.335938 41.203125 C 85.324219 40.902344 86.328125 40.652344 87.339844 40.449219 C 88.355469 40.246094 89.378906 40.09375 90.40625 39.992188 C 91.433594 39.894531 92.46875 39.84375 93.5 39.84375 C 94.535156 39.84375 95.566406 39.894531 96.597656 39.992188 C 97.625 40.09375 98.648438 40.246094 99.660156 40.449219 C 100.675781 40.652344 101.679688 40.902344 102.667969 41.203125 C 103.65625 41.503906 104.628906 41.851562 105.585938 42.246094 C 106.542969 42.640625 107.476562 43.082031 108.386719 43.570312 C 109.300781 44.058594 110.1875 44.589844 111.046875 45.164062 C 111.90625 45.738281 112.734375 46.355469 113.535156 47.011719 C 114.335938 47.667969 115.097656 48.359375 115.832031 49.089844 Z M 115.832031 49.089844 " fill-opacity="1" fill-rule="nonzero"/><path fill="#ffffff" d="M 94.414062 117.03125 L 92.589844 117.03125 C 66.785156 117.03125 45.058594 134.449219 38.511719 158.171875 C 53.339844 170.800781 72.542969 178.433594 93.5 178.433594 C 114.457031 178.433594 133.664062 170.800781 148.492188 158.171875 C 141.945312 134.453125 120.214844 117.03125 94.414062 117.03125 Z M 94.414062 117.03125 " fill-opacity="1" fill-rule="nonzero"/></svg>