<svg xmlns="http://www.w3.org/2000/svg" xmlns:xlink="http://www.w3.org/1999/xlink" width="100" zoomAndPan="magnify" viewBox="0 0 75 74.999997" height="100" preserveAspectRatio="xMidYMid meet" version="1.0"><defs><clipPath id="7deee581b1"><path d="M 4.226562 8 L 36 8 L 36 75 L 4.226562 75 Z M 4.226562 8 " clip-rule="nonzero"/></clipPath><clipPath id="9787c371f3"><path d="M 39 8 L 70.976562 8 L 70.976562 75 L 39 75 Z M 39 8 " clip-rule="nonzero"/></clipPath></defs><path fill="#ffffff" d="M 53.460938 51.199219 C 54.765625 49.78125 55.617188 48.132812 56.023438 46.25 C 57.773438 38.058594 58.527344 29.777344 58.285156 21.402344 C 58.277344 21.222656 58.234375 21.050781 58.15625 20.886719 C 58.078125 20.726562 57.96875 20.585938 57.832031 20.46875 C 57.695312 20.351562 57.539062 20.265625 57.363281 20.214844 C 57.191406 20.164062 57.015625 20.148438 56.835938 20.171875 C 47.492188 21.351562 41.3125 17.800781 38.308594 15.402344 C 38.070312 15.214844 37.804688 15.125 37.503906 15.125 C 37.203125 15.125 36.933594 15.21875 36.699219 15.40625 C 34.105469 17.476562 29.140625 20.40625 21.820312 20.40625 C 20.597656 20.402344 19.378906 20.324219 18.167969 20.171875 C 17.988281 20.148438 17.8125 20.164062 17.640625 20.214844 C 17.46875 20.269531 17.3125 20.351562 17.175781 20.46875 C 17.039062 20.585938 16.933594 20.726562 16.855469 20.890625 C 16.777344 21.054688 16.734375 21.222656 16.726562 21.40625 C 16.484375 29.777344 17.238281 38.058594 18.988281 46.25 C 19.394531 48.132812 20.246094 49.78125 21.550781 51.199219 C 24.144531 54.027344 29.171875 58.886719 35.511719 62.011719 C 36.140625 62.320312 36.804688 62.476562 37.507812 62.476562 C 38.207031 62.476562 38.871094 62.320312 39.5 62.011719 C 45.839844 58.886719 50.867188 54.027344 53.460938 51.199219 Z M 53.460938 51.199219 " fill-opacity="1" fill-rule="nonzero"/><path fill="#ffffff" d="M 38.851562 0.605469 C 38.679688 0.417969 38.472656 0.273438 38.242188 0.171875 C 38.007812 0.0664062 37.761719 0.015625 37.507812 0.015625 C 37.25 0.015625 37.007812 0.0664062 36.773438 0.171875 C 36.539062 0.273438 36.335938 0.417969 36.160156 0.605469 C 27.621094 9.839844 16.105469 8.128906 9.539062 6.050781 C 9.394531 6.007812 9.253906 6.007812 9.113281 6.054688 C 8.96875 6.101562 8.855469 6.1875 8.769531 6.308594 C 8.683594 6.429688 8.640625 6.566406 8.640625 6.714844 C 8.644531 6.863281 8.6875 7 8.777344 7.117188 C 11.347656 10.609375 13.796875 13.664062 15.230469 15.417969 C 15.730469 16.035156 16.375 16.414062 17.15625 16.554688 C 29.636719 18.785156 35.921875 11.542969 36.195312 11.21875 C 36.539062 10.816406 36.972656 10.613281 37.503906 10.609375 L 37.511719 10.609375 C 38.042969 10.613281 38.480469 10.816406 38.820312 11.226562 C 39.089844 11.542969 45.375 18.78125 57.855469 16.554688 C 58.636719 16.414062 59.28125 16.035156 59.78125 15.417969 C 61.214844 13.664062 63.664062 10.609375 66.234375 7.117188 C 66.324219 7 66.367188 6.863281 66.371094 6.714844 C 66.371094 6.566406 66.328125 6.429688 66.242188 6.308594 C 66.15625 6.1875 66.042969 6.101562 65.898438 6.054688 C 65.757812 6.007812 65.617188 6.007812 65.472656 6.050781 C 58.90625 8.128906 47.394531 9.839844 38.851562 0.605469 Z M 38.851562 0.605469 " fill-opacity="1" fill-rule="nonzero"/><g clip-path="url(#7deee581b1)"><path fill="#ffffff" d="M 34.890625 65.5 C 27.628906 62.152344 21.917969 56.652344 19.03125 53.511719 C 17.308594 51.636719 16.179688 49.453125 15.644531 46.96875 C 12.972656 34.550781 13.128906 24.222656 13.363281 19.894531 C 13.410156 19.042969 13.164062 18.292969 12.625 17.636719 C 11.066406 15.738281 8.316406 12.3125 5.476562 8.410156 C 5.390625 8.292969 5.277344 8.207031 5.136719 8.160156 C 4.992188 8.117188 4.851562 8.117188 4.710938 8.160156 C 4.566406 8.207031 4.453125 8.289062 4.367188 8.410156 C 4.277344 8.53125 4.234375 8.667969 4.234375 8.816406 C 4.289062 21.355469 6.59375 43.386719 7.464844 51.308594 C 7.699219 53.425781 8.527344 55.273438 9.949219 56.855469 C 16.710938 64.390625 28.488281 72.863281 34.203125 76.789062 C 34.542969 77.023438 34.890625 77.042969 35.253906 76.851562 C 35.617188 76.660156 35.796875 76.359375 35.796875 75.949219 L 35.796875 66.917969 C 35.796875 66.613281 35.714844 66.332031 35.550781 66.078125 C 35.386719 65.820312 35.167969 65.628906 34.890625 65.5 Z M 34.890625 65.5 " fill-opacity="1" fill-rule="nonzero"/></g><g clip-path="url(#9787c371f3)"><path fill="#ffffff" d="M 69.535156 8.410156 C 66.695312 12.3125 63.945312 15.738281 62.386719 17.636719 C 61.847656 18.292969 61.601562 19.042969 61.648438 19.890625 C 61.886719 24.222656 62.039062 34.550781 59.367188 46.96875 C 58.832031 49.453125 57.703125 51.636719 55.980469 53.511719 C 53.097656 56.652344 47.382812 62.152344 40.121094 65.5 C 39.84375 65.628906 39.625 65.820312 39.460938 66.078125 C 39.296875 66.332031 39.214844 66.613281 39.214844 66.917969 L 39.214844 75.949219 C 39.214844 76.359375 39.394531 76.660156 39.757812 76.851562 C 40.121094 77.042969 40.472656 77.023438 40.808594 76.789062 C 46.523438 72.863281 58.300781 64.390625 65.0625 56.855469 C 66.484375 55.273438 67.3125 53.425781 67.546875 51.308594 C 68.417969 43.386719 70.722656 21.355469 70.777344 8.816406 C 70.777344 8.667969 70.734375 8.53125 70.644531 8.410156 C 70.558594 8.289062 70.445312 8.207031 70.300781 8.160156 C 70.160156 8.117188 70.019531 8.117188 69.878906 8.160156 C 69.734375 8.207031 69.621094 8.292969 69.535156 8.410156 Z M 69.535156 8.410156 " fill-opacity="1" fill-rule="nonzero"/></g></svg>